<svg width="1734" height="1070" viewBox="0 0 1734 1070" fill="none" xmlns="http://www.w3.org/2000/svg">
<path d="M43.5693 259.179C109.958 122.067 200.519 142.613 345.569 155.255C421.515 161.874 512.397 166.326 622.569 144.85C900.241 90.6909 987.908 -11.4145 1210.99 1.04387C1401.07 11.6594 1553.37 102.525 1654.3 259.179C1765.6 431.903 1730.32 604.7 1720.27 646.601C1675.43 834.546 1532.2 931.236 1481.65 964.227C1273.36 1100.06 1035.64 1070.64 921.601 1056.57C493.21 1003.61 29.287 706.151 2.02729 392.534C-1.58192 351.475 -6.0332 313.252 43.5693 259.179Z" fill="url(#paint0_linear_5125_2)"/>
<defs>
<linearGradient id="paint0_linear_5125_2" x1="1103.08" y1="-252.732" x2="700.776" y2="960.728" gradientUnits="userSpaceOnUse">
<stop stop-color="#F3F7FF"/>
<stop offset="1" stop-color="#DEEEFE"/>
</linearGradient>
</defs>
</svg>
