<svg width="1388" height="1070" viewBox="0 0 1388 1070" fill="none" xmlns="http://www.w3.org/2000/svg">
<path d="M-302 259.829C-235.611 122.718 -145.051 143.263 0 155.905C75.9452 162.524 166.828 166.977 277 145.5C554.671 91.3412 642.339 -10.7643 865.418 1.69414C1055.5 12.3097 1207.8 103.176 1308.73 259.829C1420.03 432.553 1384.75 605.35 1374.7 647.251C1329.86 835.196 1186.63 931.886 1136.08 964.877C927.795 1100.71 690.074 1071.29 576.031 1057.22C147.641 1004.26 -316.282 706.802 -343.542 393.185C-347.151 352.125 -351.603 313.902 -302 259.829Z" fill="url(#paint0_linear_5105_90)"/>
<defs>
<linearGradient id="paint0_linear_5105_90" x1="757.506" y1="-252.081" x2="355.207" y2="961.378" gradientUnits="userSpaceOnUse">
<stop stop-color="#F3F7FF"/>
<stop offset="1" stop-color="#DEEEFE"/>
</linearGradient>
</defs>
</svg>
