<svg width="183" height="80" viewBox="0 0 183 80" fill="none" xmlns="http://www.w3.org/2000/svg">
<path fill-rule="evenodd" clip-rule="evenodd" d="M115.595 25.5049C115.364 25.5824 114.634 25.7406 113.891 25.8737C113.599 25.926 113.247 26.0001 113.108 26.0384C112.969 26.0767 112.709 26.1213 112.53 26.1376C112.351 26.1539 112.101 26.1985 111.974 26.2367C111.848 26.2749 111.543 26.3215 111.297 26.3402C111.051 26.3589 110.811 26.3943 110.764 26.4188C110.655 26.4753 110.646 26.8139 110.751 26.9011C110.791 26.9343 111.005 26.9813 111.228 27.0054C111.79 27.0665 111.888 27.0912 112.195 27.2469C112.536 27.4201 112.738 27.6336 112.912 28.006L113.051 28.3005V47.5927L112.887 47.8607C112.798 48.0081 112.629 48.2 112.512 48.287C112.265 48.4712 111.697 48.6446 111.182 48.6928C110.752 48.7331 110.678 48.7873 110.678 49.0613C110.678 49.3746 110.743 49.4059 111.228 49.3249C111.809 49.228 116.942 49.2285 117.671 49.3256C118.179 49.3933 118.181 49.3931 118.27 49.2833C118.374 49.1545 118.386 48.9449 118.296 48.8215C118.251 48.7596 118.142 48.7279 117.917 48.7105C116.95 48.6365 116.358 48.3345 116.102 47.7862L115.959 47.4791L115.988 39.2453L116.141 38.7545C116.411 37.887 116.691 37.3656 117.194 36.793C117.443 36.5085 118.042 36.022 118.328 35.871C119.261 35.3785 120.572 35.2801 121.504 35.6327C122.47 35.9979 122.981 36.714 123.201 38.0109C123.295 38.5641 123.3 38.8038 123.3 42.926C123.3 47.1529 123.298 47.2675 123.2 47.5846C122.992 48.2597 122.476 48.5782 121.405 48.6916C121.21 48.7122 121.018 48.7568 120.977 48.7907C120.886 48.8665 120.879 49.1821 120.966 49.3014C121.025 49.3822 121.06 49.3838 121.443 49.3231C122.041 49.2285 127.178 49.23 127.89 49.3249C128.239 49.3714 128.412 49.3765 128.446 49.3415C128.474 49.3135 128.508 49.194 128.521 49.0759C128.553 48.7909 128.481 48.7366 128.007 48.6911C127.24 48.6172 126.728 48.4067 126.436 48.0439C126.368 47.9605 126.279 47.7365 126.228 47.5224C126.145 47.1736 126.138 46.8429 126.138 42.821C126.138 40.1949 126.118 38.3005 126.087 38.0001C125.946 36.6196 125.093 35.4178 123.897 34.9147C123.207 34.6245 122.798 34.5234 122.045 34.4581C120.782 34.3485 119.885 34.4642 118.75 34.8834C117.853 35.2151 116.805 36.0301 116.353 36.7486C116.219 36.9614 116.125 37.0612 116.059 37.0612C115.999 37.0612 115.961 37.0279 115.961 36.9753C115.96 36.9281 115.96 34.3341 115.962 31.2108C115.964 25.8224 115.96 25.5298 115.877 25.4856C115.819 25.4546 115.725 25.461 115.595 25.5049ZM62.9782 27.1045C62.1037 27.13 60.4607 27.1379 59.3269 27.1222C57.0112 27.0901 57.1075 27.0761 57.1075 27.4451C57.1075 27.7493 57.2076 27.8128 57.7478 27.8508C58.2632 27.8871 58.9782 28.034 59.235 28.1563C59.6873 28.3715 60.0652 28.8851 60.1839 29.4458C60.2621 29.8154 60.2645 46.6289 60.1864 47.0476C60.0373 47.8469 59.3909 48.4124 58.4773 48.5426C57.5293 48.6778 57.2543 48.7301 57.1838 48.7889C57.0772 48.8776 57.0846 49.1971 57.1956 49.2978C57.2753 49.3702 57.3905 49.3727 58.4064 49.3245C59.5737 49.2691 62.4309 49.2968 64.1279 49.38C64.6392 49.4051 65.7399 49.4263 66.5741 49.4273C67.8407 49.4286 68.1995 49.4128 68.7511 49.3312C69.1144 49.2775 69.5107 49.233 69.6317 49.2323C69.7528 49.2316 69.995 49.1987 70.1699 49.1593C70.3448 49.1199 70.609 49.0637 70.757 49.0346C71.2021 48.9468 72.0778 48.6965 72.484 48.5409C73.2429 48.2503 74.335 47.6833 74.7827 47.3476C76.0436 46.4021 77.123 45.161 77.6891 44.006C77.7817 43.8171 77.8867 43.6073 77.9223 43.5398C77.958 43.4723 78.0574 43.2293 78.1432 42.9999C78.2291 42.7705 78.3524 42.4443 78.4175 42.275C78.4825 42.1058 78.5367 41.918 78.5379 41.8578C78.539 41.7976 78.5726 41.66 78.6124 41.552C78.7154 41.2729 78.878 40.4215 78.9546 39.7606C79.0315 39.0968 79.0441 36.917 78.9751 36.2051C78.9235 35.6726 78.7241 34.6493 78.6111 34.3373C78.572 34.2293 78.5389 34.0858 78.5376 34.0183C78.5362 33.9508 78.5 33.8293 78.457 33.7483C78.4141 33.6674 78.3464 33.4907 78.3066 33.3557C78.1346 32.7724 77.5677 31.7334 77.02 30.9974C76.0456 29.6881 74.629 28.653 72.8936 27.9822C72.6831 27.9008 72.4782 27.8342 72.4384 27.8342C72.3986 27.8342 72.2737 27.7921 72.1608 27.7406C72.0479 27.6891 71.8289 27.6236 71.6741 27.595C71.5193 27.5664 71.3502 27.5202 71.2984 27.4924C71.2465 27.4645 70.8338 27.3848 70.3812 27.3152C69.9287 27.2456 69.4263 27.1679 69.2648 27.1427C68.835 27.0753 64.8211 27.051 62.9782 27.1045ZM67.6993 27.7856C68.4252 27.832 70.0082 28.1133 70.1363 28.2186C70.1682 28.2449 70.2934 28.2925 70.4145 28.3245C70.657 28.3886 71.595 28.8465 71.8453 29.023C72.4854 29.4744 73.0466 30.0273 73.4532 30.6072C74.0784 31.4989 74.5979 32.8538 74.8174 34.1655C75.091 35.801 75.0867 35.7387 75.0867 37.9937C75.0867 39.824 75.0745 40.1917 75.0012 40.5704C74.9542 40.8134 74.8955 41.1999 74.8706 41.4293C74.7306 42.7229 74.1235 44.5647 73.5313 45.4923C73.0073 46.3131 72.6778 46.7006 72.1088 47.1654C71.3697 47.769 70.7665 48.0624 69.5828 48.3943C69.0294 48.5494 67.8093 48.6218 66.9063 48.5529C66.2919 48.5061 66.1162 48.4732 65.7424 48.3353C65.1456 48.115 65.012 48.0336 64.6367 47.6608C64.3877 47.4135 64.2664 47.2399 64.1064 46.9022C63.9924 46.6614 63.8795 46.3419 63.8556 46.1923C63.6616 44.9775 63.6639 45.0907 63.6643 36.9385C63.6647 29.2428 63.6666 29.0779 63.7627 28.6952C63.8199 28.4675 63.9063 28.2559 63.9699 28.1875C64.1709 27.9716 64.4772 27.8281 64.8238 27.7876C65.301 27.7319 66.8439 27.7308 67.6993 27.7856ZM148.226 34.2401C147.69 34.4449 147.396 34.5608 147.297 34.6062C147.069 34.7105 146.291 34.948 145.951 35.0168C145.75 35.0575 145.519 35.1167 145.438 35.1481C145.357 35.1795 145.051 35.2215 144.758 35.2414C144.322 35.2711 144.214 35.2941 144.159 35.369C144.076 35.4835 144.072 35.8061 144.154 35.8706C144.187 35.8973 144.446 35.9316 144.728 35.9469C145.476 35.9872 145.948 36.2274 146.18 36.6857C146.438 37.1945 146.441 37.2622 146.44 42.5502C146.44 45.8901 146.423 47.5039 146.387 47.638C146.321 47.887 146.134 48.1637 145.923 48.3245C145.729 48.4731 145.077 48.6685 144.631 48.7118C144.283 48.7454 144.19 48.815 144.19 49.0407C144.19 49.1135 144.23 49.2224 144.279 49.2827C144.365 49.3902 144.374 49.391 144.731 49.325C145.256 49.2279 150.355 49.2283 151.084 49.3255C151.565 49.3895 151.598 49.3883 151.659 49.3038C151.695 49.2546 151.724 49.1314 151.724 49.0302C151.724 48.7846 151.593 48.6934 151.236 48.6926C150.898 48.6918 150.172 48.4939 149.949 48.3417C149.721 48.1857 149.547 47.9687 149.44 47.7083C149.357 47.5041 149.352 47.2398 149.352 43.4171C149.352 39.3475 149.352 39.343 149.464 38.8281C149.526 38.5447 149.617 38.2134 149.667 38.0919C149.716 37.9704 149.798 37.7719 149.848 37.6506C149.989 37.3075 150.359 36.7691 150.66 36.4666C151.071 36.0548 151.528 35.7778 152.105 35.5911C152.57 35.4406 152.655 35.4285 153.254 35.4287C153.848 35.4288 153.936 35.4411 154.326 35.5775C154.833 35.7552 155.114 35.9402 155.406 36.2876C155.665 36.5961 155.836 36.9156 155.989 37.3802L156.103 37.7238L156.126 47.5398L155.968 47.8321C155.754 48.2265 155.477 48.4192 154.903 48.5734C154.658 48.6393 154.394 48.6932 154.317 48.6932C154.24 48.6932 154.12 48.7147 154.051 48.741C153.94 48.7834 153.926 48.8164 153.926 49.0295C153.926 49.3791 153.977 49.4053 154.5 49.3241C155.104 49.2303 160.004 49.2293 160.692 49.3228C161.259 49.4 161.313 49.3769 161.313 49.058C161.313 48.7968 161.192 48.6932 160.885 48.6932C160.549 48.6932 159.894 48.5044 159.635 48.3333C159.349 48.1433 159.124 47.7935 159.058 47.4361C159.027 47.2679 159.015 45.6804 159.025 43.1097L159.041 39.049L159.199 38.46C159.379 37.7911 159.51 37.4975 159.879 36.9385C160.147 36.5332 160.589 36.1212 161.026 35.8691C161.605 35.5357 162.546 35.3634 163.36 35.4417C164.365 35.5384 165.055 36.0102 165.467 36.8828C165.82 37.6314 165.823 37.686 165.8 42.889C165.786 46.3066 165.766 47.45 165.719 47.6307C165.635 47.9547 165.181 48.4191 164.875 48.4944C164.759 48.5229 164.552 48.5793 164.416 48.6196C164.279 48.6601 164.065 48.6932 163.942 48.6932C163.818 48.6932 163.66 48.7147 163.591 48.741C163.48 48.7834 163.466 48.8164 163.466 49.0295C163.466 49.367 163.525 49.404 163.941 49.3274C164.168 49.2855 165.08 49.2598 166.838 49.2461C168.942 49.2296 169.538 49.24 170.156 49.304C170.57 49.347 170.929 49.3693 170.954 49.3537C170.979 49.3382 171 49.1958 171 49.0374V48.7493L170.719 48.7208C170.202 48.6686 169.566 48.495 169.324 48.3402C169.046 48.1628 168.929 48.0077 168.785 47.6276C168.677 47.3437 168.677 47.3407 168.667 43.1471C168.655 37.9828 168.654 37.95 168.483 37.3802C168.215 36.4859 167.934 35.9966 167.396 35.4901C167.027 35.1426 166.554 34.8608 166.029 34.6758C165.609 34.5281 164.511 34.3617 163.957 34.3621C163.439 34.3623 162.299 34.5265 162.101 34.6291C162.02 34.6711 161.913 34.7054 161.863 34.7054C161.814 34.7054 161.664 34.7576 161.531 34.8213C161.398 34.8851 161.167 34.9947 161.019 35.0648C160.404 35.355 159.571 36.08 159.213 36.6356C158.934 37.0693 158.82 37.2085 158.744 37.2085C158.651 37.2085 158.624 37.1507 158.575 36.8508C158.469 36.1977 157.694 35.312 156.865 34.896C155.819 34.3716 154.458 34.1837 153.352 34.4113C152.508 34.585 152.194 34.6888 151.543 35.0075C150.785 35.3789 150.097 35.9585 149.599 36.644C149.269 37.098 149.182 37.181 149.112 37.1107C149.085 37.0835 149.057 36.7241 149.05 36.3046C149.042 35.8516 149.006 35.403 148.959 35.1878C148.917 34.99 148.86 34.6963 148.833 34.5353C148.755 34.0728 148.715 34.0534 148.226 34.2401ZM134.993 34.3704C134.136 34.4257 133.164 34.5472 132.96 34.6246C132.853 34.6647 132.683 34.7117 132.58 34.7289C132.388 34.7611 131.7 35.014 131.568 35.1006C131.528 35.1272 131.435 35.1771 131.362 35.2114C131.136 35.3182 130.573 35.7878 130.41 36.0059C129.997 36.5569 129.888 37.211 130.131 37.6751C130.303 38.003 130.377 38.0816 130.649 38.2199C131.066 38.432 131.673 38.3222 132.018 37.9723C132.19 37.7976 132.336 37.329 132.368 36.8505C132.394 36.4427 132.589 35.9291 132.807 35.6939C132.973 35.5137 133.398 35.2567 133.632 35.1953C133.748 35.1647 133.937 35.1082 134.053 35.0698C134.201 35.0204 134.504 34.9999 135.088 34.9999C135.775 34.9999 135.966 35.0162 136.224 35.0974C136.394 35.151 136.568 35.1952 136.61 35.1956C136.651 35.1959 136.838 35.2746 137.025 35.3704C137.495 35.6108 137.84 35.9644 138.078 36.4477C138.257 36.8108 138.275 36.8884 138.325 37.4784C138.397 38.3235 138.362 39.4888 138.259 39.687C138.111 39.9708 137.762 40.1921 137.102 40.4215C136.924 40.4832 136.624 40.5934 136.436 40.6664C136.248 40.7394 136.005 40.8317 135.898 40.8716C135.79 40.9115 135.613 40.9871 135.503 41.0396C135.394 41.092 135.271 41.1349 135.23 41.1349C135.189 41.1349 134.916 41.236 134.622 41.3596C134.328 41.4832 134.024 41.6039 133.947 41.6278C133.87 41.6518 133.76 41.7019 133.702 41.7392C133.645 41.7765 133.511 41.8359 133.404 41.871C133.128 41.9618 131.901 42.6001 131.468 42.8782C130.959 43.2055 130.449 43.6327 130.096 44.0278C129.747 44.4189 129.612 44.6439 129.401 45.184C129.253 45.5615 129.247 45.6051 129.246 46.3168C129.244 46.9859 129.255 47.0825 129.359 47.3229C129.612 47.9124 129.749 48.1303 130.076 48.4687C130.715 49.1286 131.595 49.5045 132.791 49.6279C133.332 49.6837 134.264 49.6451 134.65 49.5508C134.798 49.5147 135.029 49.4699 135.164 49.4513C135.299 49.4326 135.501 49.3759 135.614 49.3252C135.727 49.2745 135.845 49.233 135.877 49.233C135.943 49.233 136.639 48.8921 136.901 48.7319C137.136 48.5874 137.559 48.2317 137.873 47.9127C138.214 47.5662 138.223 47.5705 138.518 48.2145C138.806 48.8452 139.349 49.303 140.081 49.5307C140.39 49.6269 140.548 49.6442 141.084 49.6408C141.969 49.6352 142.507 49.4753 143.12 49.0359C143.368 48.8581 143.799 48.3533 143.799 48.24C143.799 48.1401 143.549 47.8588 143.46 47.8588C143.431 47.8588 143.323 47.9354 143.22 48.0289C143.117 48.1225 142.905 48.266 142.75 48.3479C142.367 48.5502 142.104 48.5489 141.765 48.3431C141.416 48.1309 141.229 47.8088 141.16 47.3031C141.126 47.0545 141.108 45.2763 141.108 42.2588C141.108 37.7132 141.106 37.5886 141.007 37.1949C140.844 36.5426 140.558 36.0299 140.143 35.6484C139.889 35.4144 139.284 34.9999 139.196 34.9999C139.164 34.9999 139.015 34.9472 138.864 34.8829C138.367 34.6715 137.642 34.517 136.778 34.4382C135.649 34.3352 135.58 34.3326 134.993 34.3704ZM103.144 34.4452C102.573 34.6306 102.32 34.7013 102.117 34.7313C101.995 34.7491 101.731 34.8042 101.529 34.8537C101.328 34.9031 100.931 34.9689 100.649 34.9997C100.366 35.0306 100.003 35.086 99.8416 35.1228C99.6802 35.1597 99.4097 35.2052 99.2406 35.2241C98.9004 35.262 98.8382 35.32 98.8395 35.5979C98.8408 35.8899 98.8725 35.905 99.5585 35.938C100.117 35.965 100.213 35.9831 100.453 36.1078C100.995 36.3888 101.187 36.6335 101.398 37.3138L101.529 37.7382V42.6532C101.529 47.4313 101.527 47.5735 101.434 47.756C101.295 48.03 101.106 48.2375 100.876 48.3707C100.649 48.502 99.9944 48.6722 99.5481 48.7158C99.2268 48.7473 99.1323 48.8211 99.1323 49.0407C99.1323 49.1135 99.1725 49.223 99.2218 49.284C99.3104 49.3938 99.3153 49.3942 99.7232 49.3263C100.308 49.2288 105.45 49.2274 106.134 49.3243C106.726 49.4085 106.813 49.3753 106.813 49.0655C106.813 48.7947 106.736 48.7307 106.382 48.7056C106.229 48.6948 105.917 48.6413 105.688 48.5868C105.122 48.4516 104.822 48.2445 104.618 47.848L104.465 47.5505V43.4209C104.465 39.9075 104.476 39.2512 104.538 39.0229C104.578 38.8753 104.645 38.6109 104.687 38.4355C104.759 38.1291 104.962 37.6765 105.237 37.2088C105.406 36.9195 105.944 36.3833 106.278 36.1698C106.782 35.8483 107.167 35.7285 107.717 35.722C108.13 35.7171 108.239 35.7328 108.406 35.8207C108.684 35.9665 108.916 36.2412 109.132 36.6797C109.358 37.139 109.553 37.3632 109.866 37.5258C110.438 37.8228 111.18 37.5282 111.385 36.9221C111.648 36.1486 111.26 35.3505 110.409 34.9134C109.864 34.6333 108.704 34.4706 108.232 34.6078C108.138 34.6351 107.924 34.6795 107.757 34.7065C107.426 34.7602 106.818 34.9877 106.471 35.1878C106.072 35.4181 105.494 35.888 105.173 36.2443C104.86 36.5903 104.465 37.1762 104.465 37.2931C104.465 37.3262 104.401 37.3863 104.323 37.4268C104.212 37.4842 104.171 37.4872 104.134 37.4403C104.108 37.4073 104.072 37.0931 104.054 36.7422C104.001 35.7071 103.775 34.5546 103.599 34.4232C103.499 34.3489 103.43 34.3523 103.144 34.4452ZM80.3179 34.8074C80.2281 34.907 80.2279 35.1988 80.3174 35.3218C80.3755 35.4015 80.4694 35.4219 80.8923 35.4469C81.8062 35.5008 82.3073 35.8146 82.5538 36.4874L82.6652 36.7913L82.6965 41.4784C82.7181 44.714 82.7451 46.239 82.7836 46.4027C83.0864 47.689 83.5731 48.4595 84.43 49.0095C84.5904 49.1124 84.7884 49.2196 84.8698 49.2475C84.9513 49.2755 85.062 49.3257 85.1158 49.3591C85.1697 49.3926 85.3125 49.4359 85.4332 49.4555C85.554 49.475 85.7392 49.5216 85.8448 49.559C85.9505 49.5964 86.36 49.6507 86.7548 49.6796C88.2865 49.7917 89.6107 49.5528 90.5952 48.9868C90.7298 48.9094 90.9169 48.8025 91.0111 48.7492C91.2068 48.6384 92.0057 47.9192 92.218 47.6625C92.2962 47.568 92.447 47.3739 92.5532 47.2311C92.6911 47.0459 92.7746 46.9756 92.8449 46.9857C92.9395 46.9993 92.9445 47.044 92.968 48.0903C92.9877 48.9713 93.0066 49.1948 93.066 49.2543C93.1284 49.3169 93.224 49.3209 93.702 49.2813C94.8267 49.188 97.1272 49.2311 97.619 49.3548C97.7836 49.3961 97.906 49.2911 97.9402 49.0789C97.9832 48.8136 97.8444 48.6932 97.4955 48.6932C97.3358 48.6932 97.0979 48.6455 96.9027 48.5744C96.3631 48.3779 96.0348 47.987 95.8485 47.3189L95.7322 46.9018L95.7179 40.8654C95.71 37.5171 95.6847 34.8099 95.661 34.7862C95.6375 34.7626 94.4779 34.7443 93.0842 34.7454C90.691 34.7473 90.5464 34.7524 90.4836 34.8368C90.4124 34.9326 90.439 35.2799 90.5242 35.3654C90.5496 35.3909 90.8071 35.4268 91.0965 35.4451C91.534 35.4729 91.677 35.5034 91.9462 35.6268C92.308 35.7926 92.5606 36.0193 92.702 36.3053C92.793 36.4893 92.7973 36.6534 92.8101 40.4686C92.8216 43.893 92.8129 44.5017 92.7469 44.8856C92.4869 46.3969 91.5543 47.7141 90.3261 48.3048C89.7185 48.5971 89.2395 48.7105 88.6138 48.7105C87.1882 48.7105 86.178 48.0394 85.7432 46.8036L85.6051 46.411L85.5915 40.6367C85.58 35.7618 85.5673 34.8535 85.5095 34.8054C85.4598 34.7641 84.7482 34.7459 82.9144 34.7392C80.667 34.731 80.3801 34.7385 80.3179 34.8074ZM138.298 40.81C138.313 40.8683 138.318 42.064 138.31 43.4671L138.295 46.0183L138.152 46.3373C137.581 47.6082 136.372 48.3785 134.787 48.4803C134.374 48.5069 134.268 48.4963 133.964 48.3983C133.071 48.1103 132.514 47.4552 132.332 46.4801C132.135 45.4264 132.33 44.6176 132.99 43.7579C133.367 43.2653 134.025 42.739 134.993 42.1561C135.375 41.9259 137.058 41.0858 137.137 41.0858C137.183 41.0858 137.59 40.9134 137.947 40.7433C138.165 40.6397 138.26 40.6579 138.298 40.81ZM87.4397 53.8756C87.1168 54.0157 86.8235 54.3784 86.7351 54.747C86.7152 54.8301 86.734 54.9985 86.7817 55.1629C87.0164 55.9731 88.0029 56.2269 88.591 55.6285C88.8599 55.3548 88.9496 55.0131 88.8556 54.62C88.7099 54.0106 87.995 53.6347 87.4397 53.8756ZM129.293 53.8935C128.779 54.1278 128.565 54.6645 128.735 55.2944C128.915 55.958 129.893 56.1798 130.443 55.6816C130.869 55.2951 130.895 54.6175 130.501 54.1798C130.176 53.8192 129.703 53.707 129.293 53.8935ZM58.1716 54.713C58.0667 54.7427 58.0049 54.9621 58.0715 55.0689C58.1047 55.1222 58.2514 55.1639 58.5312 55.1997C59.407 55.3117 59.8018 55.5407 60.0059 56.0552C60.1124 56.3236 60.1132 56.3501 60.1448 60.7177C60.1637 63.33 60.1963 65.1999 60.2253 65.3313C60.4822 66.4943 61.1502 67.5588 62.0369 68.2182C62.7571 68.7538 63.4047 69.0238 64.4848 69.2386C65.0559 69.3522 65.1859 69.3605 66.0848 69.3407C67.1372 69.3176 67.6522 69.2379 68.3995 68.9826C69.2297 68.6989 69.9247 68.1757 70.446 67.4417C70.8144 66.9232 71.0238 66.4199 71.212 65.6012C71.3093 65.1777 71.3148 64.9771 71.3449 60.7423C71.3643 58.0096 71.3952 56.2596 71.4258 56.1533C71.6095 55.5156 72.0882 55.1717 72.7923 55.1717C73.1875 55.1717 73.301 55.1169 73.301 54.9263C73.301 54.6914 73.2182 54.6776 72.1236 54.7301C71.4852 54.7608 70.7658 54.7608 70.1029 54.7303C69.2145 54.6894 69.058 54.693 68.9612 54.7566C68.8341 54.8402 68.8155 54.9839 68.9184 55.0872C68.9583 55.1272 69.1369 55.1694 69.3383 55.1863C69.9697 55.2394 70.3858 55.463 70.5842 55.8558C70.7981 56.2792 70.8152 56.7054 70.7916 61.0122C70.7763 63.7902 70.7521 65.1022 70.7122 65.3067C70.3528 67.1493 69.3851 68.1628 67.6408 68.5237C65.9806 68.8671 64.5214 68.5527 63.554 67.643C63.1825 67.2937 63.0253 67.0783 62.7981 66.6073C62.5395 66.0714 62.437 65.7648 62.3878 65.3803C62.3139 64.8032 62.3141 56.5395 62.388 56.1884C62.438 55.9508 62.489 55.8621 62.7007 55.6449C63.0026 55.3351 63.2726 55.2259 63.8344 55.1863C64.0496 55.1712 64.2533 55.1369 64.2869 55.1101C64.3768 55.0387 64.3614 54.8554 64.2574 54.7611C64.1773 54.6883 64.1188 54.6849 63.7559 54.7315C62.7796 54.8568 59.3497 54.8406 58.381 54.706C58.3129 54.6966 58.2187 54.6997 58.1716 54.713ZM135.728 57.6349C135.193 58.4808 134.689 59.0558 134.026 59.5757C133.674 59.8513 133.525 60.0067 133.525 60.0975C133.525 60.1109 133.56 60.1565 133.602 60.1989C133.657 60.2537 133.774 60.276 134.008 60.276C134.559 60.276 134.508 59.9367 134.505 63.5652C134.502 67.1334 134.527 67.5215 134.795 68.0606C135.204 68.8811 135.861 69.2213 137.048 69.2268C137.723 69.2299 138.035 69.1712 138.491 68.9559C138.767 68.8251 139.269 68.3924 139.43 68.1454C139.513 68.0189 139.457 67.8704 139.293 67.7827C139.205 67.7355 139.156 67.7658 138.895 68.0301C138.732 68.1958 138.464 68.4012 138.3 68.4865C138.043 68.6201 137.951 68.6415 137.635 68.6417C137.02 68.642 136.652 68.3658 136.421 67.7315L136.289 67.3681L136.275 63.9544C136.265 61.7062 136.277 60.4955 136.31 60.4083L136.36 60.276H137.428C138.64 60.276 138.683 60.265 138.671 59.9582C138.659 59.6356 138.668 59.638 137.489 59.638C136.527 59.638 136.419 59.6296 136.347 59.5494C136.279 59.4742 136.265 59.3009 136.253 58.4082L136.24 57.3558L136.082 57.3405C135.936 57.3263 135.91 57.3482 135.728 57.6349ZM75.688 59.3912C75.3912 59.5508 74.6322 59.7833 74.0593 59.8901C73.7633 59.9453 73.4722 59.9997 73.4125 60.0111C73.3527 60.0225 73.2806 60.0752 73.2523 60.1282C73.2116 60.2046 73.2215 60.2454 73.2998 60.324C73.3759 60.4003 73.4639 60.4235 73.6801 60.4243C74.1505 60.4262 74.4723 60.6283 74.6562 61.0375C74.7372 61.2176 74.7454 61.471 74.7595 64.243C74.7684 65.9935 74.7549 67.4181 74.7273 67.6475C74.6838 68.0083 74.664 68.058 74.4958 68.2307C74.2962 68.4359 74.0117 68.5551 73.608 68.6027C73.3238 68.6362 73.2365 68.7045 73.2605 68.8746C73.2761 68.9851 73.2884 68.9875 73.7902 68.9799C75.7761 68.9496 76.9175 68.9555 77.357 68.9984C77.9493 69.0562 78.0371 69.0421 78.077 68.8831C78.1166 68.7245 78.0185 68.6196 77.8306 68.6196C77.5772 68.6196 77.1075 68.4768 76.9404 68.3489C76.8547 68.2833 76.7373 68.1319 76.6796 68.0123C76.5758 67.7972 76.5749 67.7684 76.5892 65.1521L76.6035 62.5092L76.7407 62.102C76.9293 61.5426 77.1465 61.192 77.5404 60.8111C77.8995 60.4639 77.9829 60.4113 78.5113 60.1994C78.806 60.0811 78.9185 60.0625 79.3185 60.0657C79.7083 60.0688 79.8384 60.0916 80.1257 60.2071C80.5508 60.378 80.8728 60.6928 81.0926 61.1524L81.2486 61.4785L81.2651 64.5951C81.2741 66.3092 81.2681 67.7839 81.2516 67.8722C81.1841 68.2339 80.7333 68.537 80.1681 68.6007C79.8372 68.6379 79.7588 68.6847 79.7588 68.8447C79.7588 69.0273 79.8808 69.0549 80.4437 68.9999C81.0904 68.9367 83.1819 68.9365 83.8898 68.9996C84.511 69.0549 84.5928 69.0421 84.6326 68.8831C84.6715 68.7278 84.5751 68.6196 84.3979 68.6196C84.319 68.6196 84.1005 68.5845 83.9121 68.5415C83.6272 68.4764 83.5383 68.4305 83.3818 68.2671C83.2785 68.1592 83.1805 68.0038 83.1642 67.9219C83.1478 67.84 83.1345 66.4843 83.1345 64.9093C83.1345 62.162 83.1302 62.0262 83.0294 61.5666C82.8967 60.961 82.6821 60.5626 82.2951 60.2031C81.7973 59.7408 81.3709 59.5776 80.3002 59.4396C79.8454 59.381 78.8726 59.5234 78.3889 59.7195C77.7874 59.9632 77.0387 60.5439 76.8475 60.9148C76.7697 61.0657 76.5978 61.1491 76.5218 61.0728C76.4958 61.0468 76.4555 60.8292 76.4321 60.5894C76.3648 59.8976 76.2877 59.4301 76.2293 59.3596C76.151 59.2648 75.8952 59.2798 75.688 59.3912ZM88.3937 59.3856C88.0964 59.5209 87.338 59.7284 86.7336 59.8399C86.4358 59.8948 86.1109 59.9606 86.0116 59.9863C85.6351 60.0833 85.7658 60.4233 86.1797 60.4233C86.5252 60.4233 86.7483 60.5215 86.9423 60.759L87.1217 60.9787V67.957L86.955 68.165C86.7783 68.3854 86.4877 68.5265 86.0698 68.5948C85.8029 68.6384 85.7274 68.6937 85.7274 68.8455C85.7274 69.0191 85.8584 69.0311 87.0181 68.9635C87.8271 68.9164 88.271 68.9157 89.0092 68.9602C89.5317 68.9918 89.9988 69.0293 90.0472 69.0435C90.1684 69.0792 90.3751 68.9334 90.3751 68.8123C90.3751 68.7087 90.1275 68.5705 89.9419 68.5705C89.7233 68.5705 89.3382 68.4009 89.201 68.2441C88.9003 67.9005 88.9047 67.9725 88.9089 63.4782C88.911 61.2307 88.8992 59.37 88.8827 59.3432C88.8362 59.2677 88.6096 59.2874 88.3937 59.3856ZM113.124 59.3991C112.735 59.5441 111.485 59.8312 110.91 59.9077C110.63 59.9449 110.487 60.102 110.578 60.2727C110.608 60.3285 110.67 60.3761 110.716 60.3784C111.41 60.4135 111.607 60.474 111.848 60.7257C111.96 60.8416 112.088 61.0527 112.154 61.2268L112.268 61.5276V67.908L112.109 68.1375C111.931 68.3942 111.651 68.5303 111.167 68.5947C110.853 68.6366 110.776 68.6864 110.776 68.8477C110.776 69.0229 110.932 69.059 111.438 69.0008C111.972 68.9394 114.187 68.9384 114.861 68.9993C115.473 69.0547 115.595 69.0286 115.595 68.8423C115.595 68.6739 115.54 68.6438 115.118 68.5801C114.629 68.5063 114.388 68.3717 114.232 68.0845L114.103 67.8456V65.2672C114.103 62.8252 114.108 62.6659 114.205 62.2584C114.407 61.4016 114.858 60.7627 115.481 60.4504C115.786 60.2973 115.873 60.276 116.193 60.276C116.662 60.276 116.849 60.364 117.066 60.6876C117.158 60.8249 117.234 60.9635 117.234 60.9955C117.234 61.0857 117.474 61.3512 117.628 61.4312C117.946 61.5958 118.264 61.485 118.5 61.1282C118.831 60.6273 118.585 60.0215 117.921 59.7015C117.665 59.5784 117.608 59.5709 116.94 59.5712C116.287 59.5715 116.205 59.582 115.901 59.7025C115.719 59.7745 115.448 59.9029 115.298 59.9877C114.966 60.1759 114.458 60.6679 114.296 60.9599C114.156 61.2112 114.034 61.3064 113.954 61.2265C113.925 61.1972 113.891 61.0046 113.878 60.7986C113.85 60.3536 113.692 59.4502 113.631 59.3941C113.534 59.3031 113.378 59.3046 113.124 59.3991ZM130.223 59.4013C129.819 59.5688 128.916 59.8038 128.28 59.9071C127.798 59.9853 127.703 60.0341 127.703 60.2055C127.703 60.3592 127.769 60.391 128.159 60.4274C128.636 60.4719 128.897 60.6918 128.979 61.1174C129.041 61.4387 129.035 67.6716 128.972 67.897C128.866 68.2824 128.56 68.496 127.973 68.5954C127.713 68.6394 127.605 68.7026 127.605 68.8117C127.605 69.0228 127.69 69.0334 128.844 68.966C129.732 68.9142 130.107 68.9142 130.908 68.9663C132.095 69.0435 132.11 69.0432 132.189 68.934C132.302 68.7794 132.165 68.6531 131.807 68.582C131.321 68.4853 131.08 68.3397 130.934 68.0546L130.81 67.8124L130.799 63.6176C130.793 61.3104 130.778 59.3939 130.764 59.3586C130.729 59.2664 130.505 59.284 130.223 59.4013ZM104.93 59.4457C104.849 59.4721 104.662 59.5173 104.514 59.546C103.778 59.6888 102.982 60.1553 102.33 60.8251C101.687 61.486 101.194 62.3538 101.039 63.0977C100.988 63.3409 100.923 63.617 100.895 63.7113C100.806 64.0121 100.832 65.1646 100.937 65.5531C100.988 65.7415 101.044 65.984 101.063 66.092C101.108 66.3571 101.478 67.1096 101.726 67.4417C102.079 67.9128 102.835 68.6196 102.987 68.6196C103.012 68.6196 103.087 68.6626 103.154 68.7152C103.36 68.878 104.017 69.1115 104.633 69.2411C105.882 69.5036 107.237 69.2791 108.232 68.6451C108.536 68.4514 109.308 67.6672 109.308 67.5524C109.308 67.4329 109.111 67.2454 108.985 67.2454C108.932 67.2454 108.769 67.3686 108.622 67.5192C108.193 67.9583 107.61 68.3094 107.084 68.4459C106.713 68.5421 105.907 68.5429 105.504 68.4475C104.878 68.2995 104.271 67.9062 103.825 67.359C103.333 66.7556 103.074 66.1112 102.894 65.0464C102.796 64.4678 102.789 64.3342 102.834 63.8729C102.877 63.4246 102.899 63.3399 102.995 63.2621C103.1 63.1764 103.272 63.1717 106.323 63.1717C109.141 63.1717 109.549 63.1625 109.602 63.0972C109.707 62.9714 109.634 62.2291 109.475 61.7975C109.279 61.2658 108.861 60.6558 108.461 60.3186C108.049 59.9717 107.433 59.6598 106.899 59.5288C106.443 59.4166 105.181 59.3634 104.93 59.4457ZM121.49 59.5155C121.063 59.6448 120.759 59.7935 120.493 60.0035C120.042 60.3588 119.898 60.5357 119.624 61.0742C119.482 61.3515 119.465 61.4314 119.446 61.9226C119.426 62.4505 119.43 62.475 119.589 62.8463C119.864 63.4878 120.293 63.897 121.221 64.404C121.698 64.6642 121.928 64.7798 122.927 65.2586C124.091 65.8163 124.523 66.2977 124.537 67.0515C124.561 68.3629 123.144 69.2037 121.68 68.7473C121.21 68.6009 120.952 68.4492 120.601 68.1134C120.166 67.6976 119.851 67.1339 119.682 66.471C119.63 66.2698 119.546 66.1656 119.435 66.1656C119.258 66.1656 119.245 66.2639 119.247 67.6043C119.249 68.6915 119.262 68.9295 119.321 68.9892C119.458 69.1264 119.588 69.0601 119.762 68.765C119.9 68.5305 120.066 68.5303 120.34 68.7644C120.51 68.9093 121.014 69.1036 121.567 69.2378C122.039 69.3523 122.167 69.3644 122.664 69.3408C124.017 69.2769 125.013 68.7634 125.57 67.8419C126.092 66.9804 126.109 65.6065 125.606 64.8753C125.28 64.4006 124.745 63.9893 123.933 63.59C123.684 63.4676 123.457 63.3482 123.427 63.3247C123.398 63.3012 123.319 63.2653 123.251 63.2449C123.184 63.2246 123.074 63.171 123.007 63.1258C122.939 63.0806 122.719 62.9694 122.517 62.8786C121.594 62.4633 121.126 62.1191 120.946 61.7239C120.846 61.5051 120.826 61.0435 120.903 60.7635C120.97 60.5202 121.345 60.1457 121.677 59.9896C121.927 59.8717 122.01 59.8588 122.517 59.8588C123.16 59.8588 123.499 59.9565 123.988 60.2819C124.365 60.5334 124.718 60.9993 124.873 61.4513C125.009 61.8464 125.092 61.9535 125.248 61.9354L125.379 61.9202V60.6932C125.379 59.4821 125.378 59.466 125.276 59.4514C125.206 59.4414 125.105 59.5081 124.961 59.66C124.843 59.7843 124.704 59.8832 124.648 59.8829C124.593 59.8826 124.427 59.825 124.279 59.7548C123.506 59.3881 122.263 59.2814 121.49 59.5155ZM100.38 59.647C100.265 59.6752 99.6308 59.687 98.8496 59.6754C97.411 59.6542 97.3779 59.6596 97.4393 59.9051C97.4628 59.999 97.511 60.033 97.6527 60.0559C97.991 60.1104 98.0367 60.1256 98.2045 60.239C98.4096 60.3776 98.5941 60.6432 98.5941 60.7999C98.5941 60.864 98.5501 61.0422 98.4963 61.1958C98.4424 61.3494 98.3984 61.5141 98.3984 61.5617C98.3984 61.6093 98.3448 61.7868 98.2794 61.956C98.2139 62.1253 98.1278 62.3631 98.088 62.4846C98.0482 62.6061 97.9587 62.8545 97.889 63.0368C97.8194 63.219 97.7055 63.5171 97.6358 63.6993C97.5662 63.8816 97.4686 64.1411 97.4188 64.276C97.3691 64.411 97.2589 64.6981 97.1741 64.9141C96.9144 65.5751 96.7787 65.9348 96.7016 66.1656C96.5588 66.5938 96.5279 66.6534 96.4339 66.6834C96.3079 66.7235 96.2147 66.6388 96.1433 66.4194C96.111 66.3203 96.0438 66.1623 95.994 66.0682C95.9441 65.9741 95.9033 65.8719 95.9033 65.841C95.9033 65.7859 95.7445 65.4014 95.561 65.0122C95.467 64.8129 95.372 64.5925 94.9261 63.5398C94.7889 63.2159 94.6338 62.8625 94.5815 62.7546C94.3645 62.3069 93.9766 61.2007 93.9234 60.8783C93.8478 60.419 94.1557 60.0797 94.6479 60.0797C94.8107 60.0797 94.9039 60.0516 94.9738 59.9815C95.0823 59.8727 95.0896 59.8406 95.0281 59.7431C94.9936 59.6886 94.5767 59.6763 92.735 59.6754C91.497 59.6748 90.4595 59.6896 90.4296 59.7082C90.3391 59.7642 90.3681 59.922 90.4838 60.0033C90.5436 60.0453 90.6771 60.0797 90.7805 60.0797C91.0754 60.0797 91.4496 60.26 91.7021 60.5238C91.906 60.7369 92.1706 61.2069 92.2575 61.5104C92.2756 61.5738 92.3324 61.7141 92.3836 61.822C92.4349 61.93 92.5443 62.184 92.6268 62.3865C92.7094 62.5889 92.8189 62.8539 92.8701 62.9754C92.9214 63.0969 93.0308 63.3619 93.1133 63.5644C93.1958 63.7668 93.2975 63.9978 93.3393 64.0777C93.3812 64.1575 93.4914 64.4225 93.5844 64.6666C93.6773 64.9107 93.7863 65.17 93.8267 65.2429C93.867 65.3157 93.9309 65.4593 93.9685 65.5619C94.0061 65.6645 94.1173 65.9362 94.2155 66.1656C94.3137 66.3951 94.4258 66.6711 94.4644 66.7791C94.5031 66.8871 94.5664 67.0417 94.605 67.1227C94.8023 67.536 95.1695 68.3942 95.1695 68.4422C95.1696 68.5501 95.4514 69.0878 95.5575 69.1826C95.6652 69.2787 95.6666 69.2787 95.8419 69.1826C95.9839 69.1046 96.0453 69.0193 96.1587 68.7423C96.3368 68.3076 96.5276 67.8176 96.6173 67.5644C96.6555 67.4564 96.7093 67.3288 96.7367 67.2807C96.7642 67.2326 96.8382 67.0559 96.901 66.888C96.9639 66.7202 97.0829 66.4172 97.1653 66.2147C97.2477 66.0122 97.4072 65.6147 97.5197 65.3313C97.6321 65.0478 97.7901 64.6503 97.8708 64.4478C97.9514 64.2454 98.0569 63.967 98.1052 63.8292C98.1535 63.6914 98.217 63.5368 98.2462 63.4856C98.2755 63.4345 98.3457 63.2711 98.4022 63.1227C98.4587 62.9742 98.5495 62.7423 98.604 62.6073C98.6584 62.4724 98.752 62.228 98.8118 62.0644C99.0054 61.5353 99.3782 60.8373 99.6078 60.5739C99.8507 60.2954 100.241 60.0797 100.502 60.0797C100.735 60.0797 100.845 60.0002 100.845 59.8314C100.845 59.719 100.815 59.6734 100.719 59.6368C100.65 59.6105 100.59 59.5911 100.585 59.5938C100.58 59.5966 100.487 59.6205 100.38 59.647ZM143.016 59.6471C142.814 59.672 141.896 59.6854 140.974 59.6768C139.198 59.6601 139.249 59.6539 139.249 59.8857C139.249 59.9915 139.386 60.0795 139.552 60.0802C139.754 60.081 140.156 60.3541 140.319 60.6008C140.403 60.7283 140.472 60.8538 140.472 60.8795C140.472 60.9053 140.529 61.0616 140.599 61.2269C140.669 61.3923 140.781 61.6601 140.849 61.822C140.917 61.984 141.025 62.2329 141.089 62.3753C141.153 62.5176 141.206 62.6612 141.206 62.6943C141.207 62.7274 141.261 62.865 141.327 63C141.393 63.1349 141.448 63.2652 141.449 63.2895C141.45 63.3138 141.504 63.4464 141.568 63.584C141.793 64.0617 141.989 64.5296 141.989 64.589C141.989 64.6218 142.044 64.7524 142.111 64.8791C142.178 65.0059 142.233 65.144 142.233 65.1861C142.233 65.2281 142.254 65.2835 142.28 65.3092C142.331 65.3607 142.594 65.9808 142.695 66.2883C142.76 66.4845 142.891 66.8017 143.061 67.1718C143.345 67.7931 143.407 67.9407 143.407 67.9968C143.407 68.031 143.447 68.137 143.496 68.2323C143.544 68.3276 143.633 68.5426 143.694 68.7101L143.805 69.0147L143.704 69.285C143.649 69.4336 143.573 69.6043 143.535 69.6641C143.497 69.724 143.452 69.8282 143.433 69.8957C143.415 69.9632 143.327 70.173 143.238 70.362C143.149 70.5509 142.995 70.8822 142.895 71.0981C142.455 72.0513 142.354 72.2466 142.107 72.6182C141.803 73.0746 141.652 73.2061 141.125 73.473C140.684 73.6964 140.518 73.8515 140.377 74.1732C140.267 74.4221 140.275 74.4771 140.467 74.7896L140.594 74.9964L141.302 75L141.575 74.7217C141.819 74.4729 141.947 74.2999 142.259 73.7975C142.368 73.6221 142.533 73.2923 142.86 72.5951C143.076 72.1339 143.164 71.9326 143.505 71.1227C143.556 71.0012 143.647 70.7914 143.706 70.6564C143.766 70.5215 143.868 70.2896 143.933 70.1411C143.998 69.9926 144.081 69.7828 144.117 69.6748C144.154 69.5669 144.264 69.2908 144.363 69.0613C144.462 68.8319 144.593 68.5116 144.655 68.3497C144.86 67.8081 144.981 67.5158 145.02 67.4662C145.041 67.4392 145.086 67.3288 145.12 67.2208C145.154 67.1129 145.199 67.0019 145.221 66.9743C145.242 66.9467 145.314 66.781 145.38 66.6062C145.594 66.0402 145.693 65.8004 145.774 65.6503C145.817 65.5693 145.853 65.4834 145.853 65.4594C145.853 65.4353 145.897 65.3249 145.95 65.214C146.003 65.103 146.123 64.8135 146.216 64.5705C146.31 64.3276 146.467 63.9411 146.565 63.7116C146.663 63.4822 146.782 63.1951 146.828 63.0736C146.947 62.7634 147.257 62.0275 147.425 61.657C147.502 61.4853 147.566 61.3241 147.566 61.2989C147.566 61.1818 147.913 60.5319 148.038 60.416C148.267 60.2029 148.509 60.0801 148.7 60.0799C148.799 60.0798 148.914 60.045 148.957 60.0026C149.049 59.9104 149.057 59.7566 148.973 59.7045C148.94 59.6839 148.285 59.663 147.518 59.6579C146.75 59.6529 146.081 59.6453 146.029 59.6409C145.858 59.6265 145.793 59.8644 145.93 60.0026C145.973 60.045 146.077 60.0802 146.163 60.0808C146.248 60.0815 146.428 60.1422 146.563 60.2158C146.778 60.3333 146.818 60.3813 146.893 60.6083C146.972 60.8478 146.973 60.9012 146.905 61.3276C146.864 61.5809 146.775 61.9172 146.706 62.075C146.579 62.3664 146.454 62.6613 146.225 63.2024C146.155 63.3678 146.098 63.5345 146.098 63.573C146.098 63.6114 146.076 63.6654 146.048 63.693C146.021 63.7206 145.956 63.852 145.905 63.985C145.694 64.5339 145.353 65.369 145.264 65.5575C145.212 65.6684 145.169 65.7736 145.169 65.7911C145.169 65.8088 145.125 65.9167 145.072 66.0312C145.019 66.1456 144.945 66.3276 144.908 66.4356C144.863 66.5695 144.809 66.6367 144.739 66.6472C144.625 66.6641 144.54 66.5312 144.385 66.0976C144.336 65.9595 144.225 65.6589 144.14 65.4294C144.054 65.2 143.945 64.8995 143.897 64.7617C143.848 64.6239 143.785 64.4693 143.755 64.4181C143.726 64.367 143.666 64.2257 143.623 64.1043C143.579 63.9828 143.482 63.7178 143.406 63.5153C143.33 63.3128 143.233 63.0478 143.189 62.9263C143.146 62.8049 143.069 62.6171 143.019 62.5092C142.877 62.2025 142.72 61.794 142.65 61.5521C142.615 61.4306 142.551 61.2491 142.508 61.1488C142.418 60.9413 142.405 60.6099 142.48 60.4691C142.566 60.3072 143.016 60.0807 143.252 60.0802C143.54 60.0796 143.652 60.0107 143.652 59.8343C143.652 59.7009 143.534 59.5776 143.423 59.5953C143.401 59.5988 143.218 59.6221 143.016 59.6471ZM106.569 59.9915C107.219 60.2852 107.632 60.8849 107.749 61.7056C107.82 62.2022 107.754 62.4847 107.555 62.5318C107.494 62.5464 106.473 62.5472 105.287 62.5337C103.314 62.5113 103.126 62.502 103.077 62.4245C103.038 62.3622 103.041 62.2975 103.089 62.1791C103.125 62.0907 103.186 61.8873 103.225 61.7272C103.265 61.567 103.339 61.3759 103.392 61.3024C103.444 61.229 103.486 61.154 103.486 61.1359C103.486 61.0683 103.934 60.5226 104.11 60.3748C104.418 60.1172 104.966 59.8789 105.335 59.8423C105.803 59.7958 106.257 59.8508 106.569 59.9915Z" fill="#222222"/>
<path fill-rule="evenodd" clip-rule="evenodd" d="M27.8755 5.03622C27.7948 5.0481 27.7043 5.07804 27.6744 5.10282C27.6445 5.12761 27.1051 5.17055 26.4758 5.19828C24.6362 5.27931 23.1256 5.39804 21.4421 5.59387C20.9712 5.64864 20.2998 5.72452 19.95 5.76251C19.6002 5.80049 19.2369 5.8533 19.1427 5.87986C19.0486 5.90641 18.8174 5.94145 18.6291 5.9577C18.4407 5.97399 18.0774 6.02842 17.8218 6.07873C17.5662 6.12903 16.9278 6.25134 16.4031 6.35053C14.71 6.67058 14.2047 6.85237 13.6713 7.3335C13.399 7.5791 13.0024 8.14391 12.9492 8.36197C12.9294 8.44296 12.8734 8.59756 12.8246 8.70553C12.7759 8.81351 12.7355 8.99035 12.7349 9.09852C12.7343 9.20664 12.7119 9.37194 12.6851 9.46578C12.6582 9.55962 12.5811 10.0343 12.5136 10.5207C12.4462 11.007 12.3594 11.5927 12.3208 11.8221C12.2823 12.0516 12.2358 12.5039 12.2177 12.8274C12.1855 13.4007 12.1395 13.631 12.0456 13.6892C12.0171 13.7069 12.0043 15.319 12.0119 17.9009L12.0245 22.0838L12.1817 21.9675C12.3406 21.8499 14.5397 19.7102 18.629 15.6945C19.1402 15.1923 19.9091 14.4414 20.3376 14.0258C20.7661 13.61 21.2755 13.1098 21.4698 12.9141C21.7046 12.6775 21.8608 12.5583 21.9358 12.5583C22.0205 12.5583 23.2049 13.7247 26.6787 17.2292C30.1434 20.7246 31.329 21.8923 31.3896 21.869C31.4592 21.8422 31.4669 21.7776 31.4447 21.4067C31.4305 21.1695 31.3862 19.562 31.3463 17.8344C31.3064 16.1068 31.2528 14.373 31.2273 13.9816C31.2017 13.5902 31.1684 13.0601 31.1533 12.8037C31.0889 11.7109 30.9756 10.0384 30.9307 9.51535C30.904 9.20492 30.8599 8.61964 30.8326 8.21473C30.8053 7.80983 30.7407 7.16933 30.689 6.79142C30.6374 6.4135 30.5826 5.92241 30.5674 5.70007C30.5521 5.47774 30.5263 5.22925 30.5101 5.14793L30.4806 5L29.2514 5.00736C28.5754 5.01139 27.9562 5.02439 27.8755 5.03622ZM35.4164 5.03813C35.3773 5.10155 35.2513 6.11946 35.1881 6.88315C35.1593 7.23054 35.1143 7.62808 35.088 7.76659C35.0618 7.90509 35.0185 8.40492 34.992 8.87731C34.9654 9.34971 34.9097 9.97916 34.8682 10.2761C34.8266 10.573 34.7735 11.3129 34.75 11.9203C34.7265 12.5276 34.6842 13.4 34.656 13.8589C34.5384 15.7714 34.4952 17.3316 34.4692 20.6127C34.4375 24.6035 34.3931 24.2464 34.9289 24.3073C35.0894 24.3255 35.2678 24.3735 35.3255 24.414C35.4471 24.4994 35.5312 24.7637 35.5316 25.0614C35.532 25.3207 35.6602 25.4667 35.8866 25.4654C35.9741 25.465 36.7281 25.4437 37.5622 25.4183C38.3964 25.3929 40.0365 25.3483 41.207 25.3191C42.3775 25.29 43.5443 25.2456 43.7999 25.2203C44.0555 25.1952 44.815 25.1517 45.4877 25.1238C46.1604 25.096 47.1291 25.0405 47.6403 25.0005C48.1516 24.9605 48.8781 24.9051 49.2548 24.8774C51.5076 24.7116 53.7235 24.441 53.8232 24.3197C53.986 24.1213 54.0565 19.8168 53.937 17.3681C53.8386 15.3484 53.725 13.7741 53.5866 12.5092C53.5585 12.2528 53.5142 11.8442 53.488 11.6012C53.3674 10.48 53.2473 9.67359 53.0859 8.90185C53.0208 8.59005 52.7918 8.0568 52.6018 7.77449C52.3007 7.32678 51.5998 6.84384 51.0288 6.69066C50.6138 6.57929 50.0174 6.44746 49.2548 6.29851C48.905 6.23019 48.4647 6.1415 48.2763 6.10145C48.088 6.06135 47.7357 6.00624 47.4936 5.9789C47.2514 5.95156 46.9762 5.90876 46.882 5.88378C46.7878 5.8588 46.4576 5.81419 46.1482 5.78454C45.8387 5.7549 45.5525 5.72172 45.5122 5.71073C45.0467 5.5842 41.6151 5.28997 39.5229 5.19716C38.7381 5.16236 38.3288 5.1254 38.2802 5.08491C38.1905 5.01016 35.461 4.96559 35.4164 5.03813ZM27.6686 6.76678C27.7893 6.86209 27.9489 7.23122 27.9489 7.41537C27.9489 7.46553 27.9857 7.56285 28.0306 7.63166C28.0996 7.73733 28.1031 7.78224 28.0531 7.92099C28.0018 8.06347 28.0071 8.10985 28.0937 8.27191C28.2184 8.50538 28.2188 8.58647 28.0956 8.74347C28.0418 8.81209 27.9978 8.89199 27.9978 8.92104C27.9978 8.9714 27.785 9.22431 27.4973 9.51574C27.2429 9.77351 27.2266 9.94765 27.3944 10.6177C27.4347 10.7786 27.507 10.9664 27.5551 11.0349C27.6033 11.1034 27.6777 11.2814 27.7204 11.4304C27.8117 11.7479 27.9533 11.9203 28.123 11.9203C28.361 11.9203 28.4102 11.4545 28.193 11.2573C28.1401 11.2092 28.0485 11.0197 27.9896 10.8361L27.8824 10.5023L28.0646 10.1325C28.21 9.83736 28.2365 9.74323 28.1957 9.66676C28.0535 9.40021 28.2239 9.18966 28.5407 9.24051C28.7432 9.27295 28.7436 9.27275 28.7097 9.1365C28.5812 8.62009 28.6571 8.51412 28.9639 8.78151C29.2905 9.06622 29.3459 9.27025 29.1655 9.52438C29.07 9.65896 29.0667 9.68767 29.1259 9.8676C29.1717 10.0069 29.1757 10.0876 29.1396 10.1454C29.0691 10.2585 28.84 10.2763 28.7309 10.1773C28.609 10.0666 28.4742 10.1023 28.4189 10.26C28.3817 10.3663 28.395 10.4175 28.4913 10.5387C28.5562 10.6204 28.6714 10.7876 28.7471 10.9102L28.8849 11.1332L28.7787 11.4654C28.6047 12.0097 28.5895 12.0392 28.4077 12.1848C28.2624 12.3011 28.2008 12.3202 28.0409 12.2987C27.8588 12.2742 27.8324 12.2888 27.5319 12.5785C27.3576 12.7467 27.215 12.9259 27.215 12.9769C27.215 13.0278 27.2911 13.1478 27.3841 13.2434C27.5471 13.411 27.5521 13.4272 27.524 13.699C27.4958 13.9729 27.4886 13.9844 27.2694 14.1075C27.1453 14.1772 26.9818 14.2467 26.9059 14.2619C26.8301 14.2772 26.7316 14.3474 26.6869 14.4179C26.5119 14.6942 26.348 14.7238 26.0999 14.5237C25.9488 14.4019 25.8956 14.315 25.8465 14.1098C25.7614 13.7538 25.8297 13.6155 26.0696 13.6577C26.1615 13.6739 26.31 13.7002 26.3999 13.7161C26.5164 13.7368 26.5865 13.7217 26.6445 13.6635C26.768 13.5396 26.7434 13.4053 26.5481 13.1384C26.3712 12.8967 26.3706 12.894 26.4032 12.5321L26.4361 12.1685L26.3043 12.1353C26.1063 12.0855 26.0185 12.1687 26.0017 12.4221C25.9892 12.613 25.9604 12.6655 25.7956 12.7983C25.627 12.9343 25.5802 12.9488 25.4034 12.9205C25.242 12.8946 25.1748 12.9089 25.0611 12.9932C24.862 13.1409 24.7693 13.1255 24.5345 12.9058L24.3289 12.7135L24.3702 12.4103C24.3929 12.2435 24.4424 12.0865 24.4801 12.0614C24.5833 11.9928 24.8095 12.0518 24.9732 12.19C25.1323 12.3243 25.2551 12.3453 25.3462 12.254C25.4317 12.1682 25.4185 12.0285 25.3021 11.7874C25.2091 11.5947 25.2063 11.5641 25.2725 11.4651C25.404 11.2687 25.5521 11.1368 25.6759 11.1055C25.84 11.0643 26.202 11.1228 26.3156 11.209C26.3663 11.2476 26.4463 11.2798 26.4934 11.2807C26.656 11.2837 26.5782 11.144 26.3222 10.9734C26.1809 10.8792 26.0234 10.7556 25.9721 10.6987C25.8645 10.5791 25.7629 10.5672 25.6534 10.6616C25.6108 10.6982 25.4596 10.7692 25.3171 10.8194C25.1074 10.8932 25.0401 10.8992 24.9631 10.851C24.8289 10.7669 24.7179 10.7772 24.5487 10.8896C24.357 11.017 24.2473 11.0133 24.1775 10.8773C24.1464 10.8166 24.064 10.7057 23.9946 10.631C23.8713 10.4985 23.8703 10.4917 23.9516 10.3535C23.9975 10.2756 24.035 10.17 24.035 10.1188C24.035 9.88704 24.3385 9.83236 24.5243 10.0307C24.6191 10.1319 24.6849 10.1534 24.9013 10.1534C25.2025 10.1534 25.4112 10.0777 25.6373 9.88654C25.922 9.64566 25.8017 9.465 25.4716 9.63776C25.3946 9.67805 25.2886 9.71118 25.2363 9.71138C25.0956 9.71182 24.7861 9.47918 24.6742 9.2889C24.5928 9.15039 24.548 9.12271 24.4053 9.12271C24.1887 9.12271 24.1127 8.99638 24.1199 8.64806C24.1247 8.41969 24.1452 8.37415 24.3247 8.19407C24.4345 8.08394 24.567 7.99387 24.6193 7.99387C24.7332 7.99387 24.8667 8.16983 24.8667 8.31981C24.8667 8.52114 24.93 8.59383 25.2288 8.73562C25.5904 8.90725 25.652 8.9099 25.8292 8.76153C26.0225 8.59962 26.2593 8.48467 26.3994 8.48467C26.5398 8.48467 26.6506 8.36919 26.6105 8.26445C26.5917 8.21542 26.5161 8.19019 26.3877 8.19019C26.2809 8.19019 26.1801 8.16855 26.1638 8.1421C26.1465 8.11407 26.0177 8.10617 25.8551 8.1231C25.6153 8.14808 25.5636 8.13827 25.4871 8.05306C25.4288 7.98828 25.4034 7.89719 25.4137 7.7899C25.4307 7.61144 25.4437 7.60825 25.8614 7.67922L26.0488 7.71108L26.0326 7.49665C26.0178 7.30057 26.029 7.27588 26.1632 7.20801C26.2439 7.16717 26.4173 7.07328 26.5485 6.99942C26.6797 6.9255 26.8259 6.86504 26.8734 6.86504C26.9208 6.86504 27.0557 6.82135 27.173 6.76796C27.4422 6.6454 27.5145 6.64521 27.6686 6.76678ZM18.2528 7.51795C18.4408 7.7126 18.567 8.10067 18.5751 8.50921C18.5783 8.67118 18.6111 8.87589 18.648 8.96409C18.7522 9.21351 18.6225 9.4889 18.2034 9.90765L17.8588 10.252L17.8825 10.6812C17.9053 11.0953 17.9746 11.3201 18.2343 11.8221C18.2692 11.8896 18.3135 12.0109 18.3328 12.0918C18.3521 12.1726 18.3908 12.2665 18.4188 12.3003C18.4946 12.392 18.6756 12.375 18.7728 12.2671C18.8797 12.1486 18.8439 11.9493 18.6691 11.691C18.5722 11.5477 18.5397 11.4265 18.5207 11.1372C18.4983 10.7951 18.5065 10.7523 18.628 10.5745C18.7551 10.3889 18.7602 10.3376 18.6781 10.0748C18.6237 9.90058 18.7765 9.79511 19.0283 9.833C19.2662 9.86878 19.2731 9.85641 19.1834 9.55628C19.1083 9.30465 19.1722 9.23197 19.3759 9.33764C19.5805 9.44375 19.7787 9.69484 19.7787 9.84772C19.7787 9.91903 19.7225 10.0351 19.6524 10.1085C19.5293 10.2375 19.5281 10.2448 19.6067 10.3972C19.6805 10.5403 19.6807 10.5635 19.6096 10.6725C19.5194 10.8105 19.3602 10.8264 19.232 10.71C19.159 10.6437 19.1196 10.639 19.0202 10.6844C18.8635 10.7561 18.8585 10.9472 19.0082 11.1394C19.0688 11.2171 19.1678 11.3452 19.2284 11.4242C19.3815 11.6238 19.3691 11.8704 19.1858 12.2692C19.0554 12.553 19.0057 12.6125 18.8448 12.6771C18.7412 12.7186 18.6241 12.7402 18.5845 12.725C18.4916 12.6893 18.4256 12.7288 18.095 13.0185C17.7739 13.2999 17.7504 13.4208 17.9686 13.6701C18.1774 13.9087 18.1684 14.1187 17.9385 14.3741C17.8245 14.5006 17.7192 14.5706 17.6428 14.5706C17.5696 14.5706 17.4339 14.6552 17.2887 14.7914C17.0543 15.0114 16.9281 15.0611 16.8647 14.9582C16.8464 14.9285 16.7571 14.873 16.6662 14.8349C16.5371 14.7807 16.5009 14.737 16.5009 14.6348C16.5009 14.5628 16.4738 14.4285 16.4405 14.3364C16.3864 14.1863 16.3902 14.1614 16.4772 14.0968C16.5399 14.0501 16.6262 14.0355 16.7211 14.0553C17.1149 14.1379 17.1697 14.138 17.2507 14.0568C17.3551 13.9521 17.3559 13.7677 17.2526 13.6816C17.08 13.5379 16.9311 13.2367 16.9611 13.0918C17.0549 12.6373 17.0568 12.6625 16.9236 12.6015C16.7527 12.5235 16.6477 12.6143 16.6477 12.84C16.6477 12.9747 16.6057 13.0537 16.4522 13.2077C16.2658 13.3947 16.2463 13.4023 16.0357 13.3706C15.8543 13.3433 15.7918 13.3555 15.6865 13.4387C15.5088 13.5788 15.4329 13.5646 15.1823 13.3439L14.9646 13.1521L15.0295 12.892C15.0952 12.6286 15.1999 12.46 15.2976 12.4603C15.3271 12.4605 15.4503 12.5267 15.5714 12.6074C15.8371 12.7846 15.9477 12.7924 16.0175 12.6387C16.0582 12.5492 16.0523 12.4883 15.992 12.3712C15.8686 12.1319 15.8923 11.9603 16.0728 11.786C16.2815 11.5847 16.4329 11.5523 16.6995 11.652C17.2358 11.8526 17.3302 11.785 16.9289 11.4876C16.7876 11.3828 16.6419 11.2607 16.6049 11.2161C16.5085 11.0995 16.3933 11.115 16.0767 11.2868C15.8051 11.4342 15.7923 11.4363 15.6336 11.3604C15.4254 11.2608 15.3783 11.2631 15.2289 11.3804C15.0285 11.5376 14.9203 11.5054 14.7469 11.237C14.5794 10.9776 14.5796 10.9737 14.7873 10.546C14.8473 10.4226 15.0113 10.4357 15.1791 10.5773C15.3048 10.6835 15.3863 10.7111 15.5653 10.7084C15.8336 10.7044 16.219 10.5355 16.3546 10.3626C16.5262 10.1437 16.3997 10.0982 16.0078 10.2379L15.7706 10.3224L15.6177 10.1766C15.5336 10.0963 15.4307 9.96443 15.3889 9.88345C15.2934 9.69793 15.2418 9.66426 15.0514 9.66333C14.8526 9.66235 14.8085 9.59889 14.7706 9.25901C14.7406 8.99078 14.7452 8.9742 14.8739 8.89174C14.9481 8.84423 15.0375 8.76635 15.0727 8.71864C15.16 8.60021 15.4069 8.60531 15.4718 8.72684C15.4997 8.77906 15.5224 8.87545 15.5224 8.94107C15.5224 9.12217 15.6922 9.30097 15.9469 9.38799C16.2533 9.49273 16.2596 9.4917 16.5062 9.29498C16.6449 9.18441 16.7739 9.1235 16.8703 9.1232C17.0275 9.12266 17.1369 9.04796 17.1369 8.94112C17.1369 8.90602 17.0868 8.87731 17.0255 8.87731C16.9642 8.87731 16.8632 8.84158 16.8011 8.79795C16.717 8.73886 16.6291 8.72639 16.4576 8.74922C16.2059 8.78274 16.0919 8.72919 16.04 8.55285C16.0208 8.48777 16.0427 8.40806 16.0989 8.33842L16.1884 8.22754L16.3813 8.32448C16.7258 8.49753 17.0391 8.5129 17.0391 8.35672C17.0391 8.31432 16.9862 8.28835 16.8999 8.28835C16.7325 8.28835 16.5784 8.13532 16.6185 8.0088C16.6525 7.90141 17.2817 7.57331 17.5356 7.53056C17.6338 7.51402 17.7411 7.46793 17.774 7.42818C17.8771 7.30352 18.0829 7.34214 18.2528 7.51795ZM26.1498 7.75726C26.1748 7.8325 26.4263 7.84595 26.4445 7.77302C26.4512 7.74602 26.3828 7.71682 26.2925 7.70818C26.1734 7.69675 26.1342 7.71019 26.1498 7.75726ZM20.8 15.7338C20.2517 16.2656 19.7784 16.7239 19.748 16.7522C19.7177 16.7806 19.1893 17.3011 18.5739 17.909C17.9585 18.517 16.4092 20.0285 15.1311 21.2679C13.853 22.5073 12.6576 23.6719 12.4747 23.8558C12.2918 24.0398 12.1101 24.1902 12.071 24.1902C12.032 24.1902 12 24.2316 12 24.2822C12 24.3582 12.0698 24.3877 12.4036 24.4529C12.6256 24.4963 13.1375 24.5675 13.5411 24.6113C13.9447 24.655 14.5391 24.7214 14.862 24.7588C15.1849 24.7962 15.8453 24.8601 16.3297 24.9007C16.814 24.9414 17.2653 24.9857 17.3326 24.9992C17.3999 25.0126 18.0383 25.0563 18.7514 25.0962C19.4644 25.1361 20.2019 25.1903 20.3903 25.2168C20.5786 25.2433 21.6023 25.2878 22.6652 25.3159C23.728 25.3439 24.7958 25.3778 25.038 25.3912C25.2801 25.4045 26.5187 25.4302 27.7903 25.4481C29.9749 25.4789 30.1077 25.4758 30.1998 25.3923C30.2625 25.3354 30.2973 25.241 30.2975 25.1274C30.2978 24.8905 30.378 24.6148 30.4853 24.4819C30.5467 24.4059 30.6681 24.3558 30.8877 24.3161C31.1395 24.2706 31.2048 24.2402 31.2149 24.1634C31.2241 24.0939 29.9533 22.7895 26.5911 19.4172C24.0411 16.8596 21.9192 14.7669 21.8757 14.7669C21.8322 14.7669 21.3481 15.202 20.8 15.7338ZM22.8562 16.8651C23.0141 17.0235 23.2156 17.6182 23.2346 17.9816C23.2416 18.1166 23.2615 18.318 23.2788 18.4292C23.3208 18.6993 23.2255 18.8801 22.8249 19.2899L22.5057 19.6166L22.5301 20.0261C22.5543 20.433 22.5669 20.4722 22.9152 21.2242C22.9661 21.3339 23.0077 21.4596 23.0077 21.5036C23.0077 21.5773 23.1798 21.7363 23.2597 21.7363C23.3432 21.7363 23.448 21.5699 23.448 21.4374C23.448 21.3578 23.3819 21.1685 23.3012 21.0167C23.1805 20.7899 23.1544 20.6829 23.1544 20.4156C23.1544 20.1456 23.1762 20.0582 23.2826 19.9011C23.4018 19.7252 23.4064 19.6987 23.3486 19.5232C23.261 19.2568 23.3425 19.163 23.6274 19.2022C23.8712 19.2357 23.9283 19.179 23.8191 19.0119C23.6526 18.757 23.7772 18.5599 24.0086 18.712C24.3683 18.9485 24.4736 19.2469 24.2729 19.4612C24.1798 19.5606 24.1751 19.5892 24.2296 19.7211C24.357 20.0298 24.1579 20.2578 23.9057 20.092C23.8297 20.042 23.7354 20.0217 23.6635 20.0398C23.4638 20.0901 23.5047 20.3277 23.766 20.6345C23.887 20.7767 23.9855 20.9336 23.9848 20.9833C23.9841 21.033 23.9213 21.2504 23.8454 21.4663C23.7274 21.8022 23.6833 21.8714 23.541 21.9447C23.4495 21.992 23.3076 22.0306 23.2257 22.0306C23.082 22.0307 23.0463 22.0564 22.5307 22.5291C22.3825 22.6649 22.3911 22.7214 22.5918 22.9287C22.7356 23.0773 22.763 23.1407 22.763 23.3248C22.763 23.5197 22.7427 23.56 22.5796 23.6884C22.4787 23.7678 22.3153 23.8592 22.2166 23.8914C22.1147 23.9245 21.9813 24.0231 21.9083 24.1191C21.8375 24.2122 21.7364 24.2884 21.6836 24.2884C21.5312 24.2884 21.2471 24.0793 21.2169 23.9448C21.2017 23.8774 21.1541 23.7521 21.1109 23.6664C21.0434 23.5324 21.0421 23.4991 21.1009 23.4279C21.1584 23.3586 21.2233 23.3506 21.5047 23.3784C22.0398 23.4313 22.1194 23.2691 21.7805 22.8166C21.6215 22.6043 21.5866 22.5221 21.6093 22.4131C21.7025 21.9653 21.7043 21.9876 21.5712 21.9267C21.3988 21.848 21.2956 21.9394 21.2946 22.1717C21.2937 22.3809 21.2725 22.4172 21.0677 22.5607C20.9664 22.6316 20.8403 22.6688 20.7007 22.669C20.5742 22.6691 20.4229 22.7091 20.327 22.7677C20.1431 22.8802 20.0899 22.8624 19.8386 22.6047C19.6801 22.4422 19.6789 22.4376 19.7327 22.1857C19.8245 21.7565 19.9486 21.7106 20.3257 21.9663C20.4247 22.0334 20.5458 22.0807 20.5947 22.0714C20.7135 22.0488 20.7356 21.8273 20.6426 21.5939C20.5772 21.4301 20.5777 21.3941 20.6471 21.2503C20.7954 20.943 21.1485 20.8469 21.4858 21.0219C21.6449 21.1044 21.8335 21.1235 21.8335 21.057C21.8335 21.0234 21.4581 20.7017 21.1668 20.4856C21.1209 20.4517 21.009 20.4868 20.7857 20.6053C20.5077 20.7527 20.454 20.766 20.3419 20.7148C20.1597 20.6315 20.0535 20.642 19.848 20.7636L19.667 20.8708L19.5782 20.7514C19.5293 20.6857 19.4407 20.5687 19.3812 20.4915L19.273 20.3511L19.3914 20.1322C19.5736 19.7949 19.6051 19.7821 19.8761 19.935C20.0054 20.0079 20.1849 20.067 20.2752 20.0665C20.5952 20.0643 21.0997 19.7595 21.0997 19.5682C21.0997 19.4605 20.9775 19.4539 20.8061 19.5522C20.7389 19.5908 20.6331 19.6231 20.5711 19.6241C20.4096 19.6265 20.1278 19.4186 20.032 19.2262C19.9643 19.0902 19.9185 19.0588 19.7702 19.0464C19.6714 19.0381 19.5681 19.0044 19.5408 18.9713C19.4638 18.8782 19.455 18.3353 19.5301 18.3102C19.5645 18.2987 19.6648 18.2256 19.7533 18.1477C20.0086 17.9228 20.1286 17.9688 20.1909 18.3157C20.235 18.5611 20.3491 18.6675 20.6807 18.7724C20.9519 18.8582 20.9551 18.858 21.088 18.7508C21.2582 18.6136 21.3667 18.5623 21.6256 18.4968C21.7817 18.4572 21.8335 18.4201 21.8335 18.3478C21.8335 18.2835 21.8002 18.2516 21.7332 18.2516C21.6781 18.2516 21.5695 18.2186 21.492 18.1784C21.396 18.1286 21.2815 18.1148 21.1333 18.1352C20.9525 18.1601 20.8981 18.1476 20.812 18.0611C20.6971 17.9459 20.6828 17.851 20.7589 17.7085C20.8252 17.5843 20.8435 17.5867 21.2187 17.7665C21.3942 17.8505 21.5729 17.9059 21.6158 17.8893C21.7428 17.8404 21.6748 17.6967 21.5038 17.6522C21.3935 17.6235 21.3363 17.574 21.315 17.489C21.2826 17.3596 21.3615 17.2209 21.4676 17.2209C21.502 17.2209 21.6556 17.1546 21.809 17.0737C21.9625 16.9927 22.1354 16.9263 22.1932 16.9261C22.251 16.9259 22.3643 16.8819 22.445 16.8283C22.639 16.6994 22.6962 16.7045 22.8562 16.8651ZM23.8149 28.6112C23.0615 28.6312 22.0305 28.6827 21.5239 28.7257C21.0173 28.7686 20.4449 28.8035 20.2519 28.8032C19.6768 28.8022 18.2919 28.8995 17.4549 28.9995C17.0244 29.051 16.4386 29.1049 16.1531 29.1193C15.8676 29.1338 15.4933 29.1775 15.3214 29.2165C15.1495 29.2556 14.7103 29.3104 14.3454 29.3383C13.9806 29.3662 13.5522 29.423 13.3934 29.4645C13.2346 29.506 13.0364 29.54 12.9531 29.54C12.8697 29.54 12.7613 29.5695 12.7121 29.6055C12.6167 29.6755 12.6128 29.6307 12.7778 30.3743C12.9027 30.9372 13.5047 32.888 13.6008 33.041C13.6205 33.0725 13.6732 33.1976 13.7177 33.3191C13.7623 33.4406 13.8692 33.7167 13.9554 33.9326C14.0416 34.1486 14.1516 34.4246 14.1999 34.5461C14.4303 35.1252 14.9484 36.2228 15.4972 37.2946C15.8587 38.0006 16.8852 39.8222 17.1844 40.2885C17.233 40.3641 17.6532 41.0249 17.8707 41.3676C18.7065 42.6842 20.2941 44.793 21.2926 45.9127C21.4152 46.0502 21.6476 46.3147 21.809 46.5005C23.0434 47.9203 25.6564 50.3112 26.8744 51.1351C26.9741 51.2026 27.2512 51.3967 27.4901 51.5663C27.915 51.8682 28.9235 52.5221 29.1776 52.6605C29.248 52.6989 29.417 52.7905 29.5533 52.8643C29.6895 52.938 29.8149 53.0208 29.8318 53.0483C29.869 53.1086 30.0854 53.1151 30.1212 53.057C30.1352 53.0342 30.1914 52.5649 30.246 52.014C30.3007 51.4631 30.3802 50.6922 30.4227 50.3008C30.4652 49.9093 30.52 49.4014 30.5445 49.1719C30.5689 48.9425 30.5893 48.6033 30.5898 48.4182C30.5903 48.2331 30.6331 47.7362 30.6849 47.3139C30.7367 46.8916 30.8026 46.1265 30.8314 45.6136C30.8602 45.1007 30.9053 44.3719 30.9317 43.994C31.1082 41.4722 31.2681 38.6231 31.3011 37.4173C31.3165 36.8504 31.3385 36.1768 31.35 35.9203C31.3615 35.6639 31.3859 34.191 31.4043 32.6471L31.4377 29.8402L31.271 29.7663C31.1794 29.7256 31.0014 29.679 30.8754 29.6628C30.4754 29.611 30.2981 29.3694 30.2975 28.8749C30.2973 28.7656 30.2707 28.6496 30.2385 28.6173C30.172 28.5506 26.238 28.5469 23.8149 28.6112ZM35.617 28.6272C35.5781 28.6663 35.5331 28.8446 35.5161 29.0274C35.4672 29.5532 35.4546 29.5634 34.6618 29.7173C34.5973 29.7298 34.5278 29.7956 34.4976 29.8726C34.4613 29.965 34.4532 30.9289 34.4711 33.0001C34.4951 35.7871 34.525 36.752 34.6553 38.9633C34.6831 39.4357 34.7254 40.3412 34.7491 40.9756C34.7877 42.0069 34.8518 42.8325 34.9207 43.1842C34.9339 43.2517 34.9667 43.7928 34.9935 44.3866C35.0204 44.9805 35.0636 45.5954 35.0896 45.753C35.1156 45.9106 35.1606 46.4075 35.1896 46.8573C35.2186 47.307 35.2864 48.1277 35.3402 48.6811C35.3941 49.2345 35.4604 50.0517 35.4878 50.4971C35.5152 50.9425 35.5682 51.4416 35.6057 51.6061C35.6432 51.7707 35.6892 52.1637 35.708 52.4795C35.7478 53.1467 35.7918 53.2138 36.0739 53.0368C36.166 52.9791 36.3011 52.8975 36.3741 52.8556C36.4472 52.8136 36.6233 52.7115 36.7655 52.6285C36.9077 52.5456 37.1121 52.4271 37.2198 52.3651C37.3274 52.3031 37.5365 52.1699 37.6845 52.0692C37.8325 51.9684 38.0828 51.7998 38.2406 51.6946C38.3985 51.5893 38.588 51.459 38.6618 51.4051C38.7356 51.3511 38.8597 51.2629 38.9374 51.2092C39.081 51.11 39.4246 50.8477 39.9347 50.448C42.3889 48.525 45.1266 45.5676 47.2 42.5998C47.3346 42.4073 47.4947 42.1784 47.5559 42.0912C47.6171 42.004 47.7912 41.7449 47.9427 41.5155C48.0942 41.286 48.2561 41.0431 48.3024 40.9756C48.4065 40.8238 49.0045 39.853 49.1442 39.6089C49.2007 39.5103 49.3587 39.2343 49.4955 38.9956C49.7798 38.4993 50.2129 37.7062 50.3576 37.4173C50.4116 37.3093 50.4874 37.1657 50.5258 37.0983C50.647 36.8858 51.3195 35.4684 51.4573 35.1351C51.5299 34.9596 51.6506 34.6725 51.7256 34.497C51.8006 34.3216 51.9211 34.0234 51.9934 33.8344C52.0658 33.6455 52.1671 33.4011 52.2187 33.2913C52.2703 33.1816 52.3125 33.0749 52.3125 33.0543C52.3125 33.0337 52.3646 32.8805 52.4283 32.714C52.5372 32.4291 52.6364 32.1135 52.9209 31.1473C53.0942 30.559 53.2547 29.8813 53.261 29.7117C53.2664 29.5656 53.264 29.5643 52.946 29.5327C52.7697 29.5152 52.5385 29.4761 52.4323 29.4457C52.326 29.4154 51.9495 29.3691 51.5956 29.3429C51.2417 29.3166 50.7966 29.2624 50.6066 29.2223C50.4165 29.1822 49.9211 29.1266 49.5057 29.0987C49.0902 29.0708 48.5336 29.0169 48.2687 28.979C48.0038 28.9411 47.2808 28.8856 46.6619 28.8558C46.043 28.8259 45.0303 28.7662 44.4114 28.7231C42.8758 28.6161 41.2032 28.5732 38.2148 28.5643C36.0765 28.5579 35.6765 28.5676 35.617 28.6272Z" fill="#67246C"/>
</svg>
