<svg width="249" height="80" viewBox="0 0 249 80" fill="none" xmlns="http://www.w3.org/2000/svg">
<path d="M100.177 5.63318V6.45632C97.3056 6.51964 96.2646 7.65937 96.2646 10.4454V22.096C96.2646 27.4464 92.8574 33.1767 83.5192 33.1767C75.3167 33.1767 71.0893 28.4912 71.0893 22.3176V9.68556C71.0893 6.93121 70.3006 6.48798 67.3982 6.45632V5.63318H78.44V6.45632H78.0614C75.6953 6.45632 74.6542 7.12116 74.6542 9.62224V21.6211C74.6542 27.4464 78.0614 30.9289 84.4656 30.9289C89.324 30.9289 94.2771 28.9027 94.2771 21.5578V11.5218C94.2771 7.37444 93.6145 6.64627 90.0496 6.45632V5.63318H100.177Z" fill="#003568"/>
<path d="M105.035 28.7444C105.035 31.1188 105.603 31.6887 107.906 31.6887V32.5118H99.2616V31.6887C101.155 31.6887 102.132 30.6439 102.132 28.966V19.8798C102.132 18.2968 101.943 17.9802 100.839 17.7586L99.3878 17.4737V16.7772L104.341 14.9726H105.035V18.3285C107.906 16.5239 110.335 14.9093 112.449 14.9093C115.383 14.9093 117.055 17.0621 117.055 21.3678C117.055 27.0981 116.739 28.2378 116.708 29.9158C116.676 31.0872 117.339 31.657 119.105 31.657H120.052V32.4802H110.808V31.657C112.039 31.5937 112.796 31.3088 113.269 30.8339C114.089 30.0108 114.184 26.8448 114.184 21.1145C114.184 17.6637 112.512 16.5872 110.777 16.5872C109.389 16.5872 107.306 17.7903 105.066 19.3416V28.7444H105.035Z" fill="#003568"/>
<path d="M127.718 29.2193C127.718 30.739 128.538 31.6887 130.81 31.6887V32.5119H121.251V31.6887C123.869 31.6887 124.815 30.8339 124.815 28.5228V19.8482C124.815 18.1702 124.595 17.9486 123.49 17.727L121.471 17.3471V16.6506L127.055 14.7194H127.718V29.2193ZM125.951 5C126.992 5 127.844 5.72816 127.844 6.64628C127.844 7.53274 126.992 8.29256 125.951 8.29256C124.91 8.29256 124.09 7.5644 124.09 6.64628C124.09 5.72816 124.91 5 125.951 5Z" fill="#003568"/>
<path d="M139.58 32.8601L133.333 18.5502C132.671 17.0305 132.135 16.524 131.441 16.3973L130.116 16.1757V15.4159H138.886V16.1757C136.267 16.2707 135.447 16.6189 136.488 18.6451L141.063 29.3776L145.416 19.405C146.205 17.632 145.795 16.3657 142.672 16.1757V15.4159H150.148V16.1757C148.508 16.4923 147.562 17.4421 146.741 19.3416L140.81 32.8918H139.58V32.8601Z" fill="#003568"/>
<path d="M152.767 21.5261C152.672 22.1593 152.609 22.7925 152.609 23.3307C152.609 27.8263 155.732 30.8339 159.14 30.8339C161.285 30.8339 162.957 29.9791 164.597 28.0163L165.071 28.5228C163.272 30.8023 160.559 32.9868 157.404 32.9868C153.177 32.9868 149.928 29.156 149.928 24.1222C149.928 19.5316 152.988 14.8777 158.225 14.8777C164.03 14.8777 163.903 19.0567 165.323 20.4814V21.4628H152.767V21.5261ZM161.695 20.3864C161.222 17.5687 159.518 15.7325 157.436 15.7325C156.016 15.7325 153.871 16.3657 152.893 20.3864H161.695Z" fill="#003568"/>
<path d="M173.147 29.346C173.147 31.1189 173.778 31.6887 175.955 31.6887H177.595V32.5119H167.405V31.6887C169.614 31.6254 170.276 30.739 170.276 28.4595V18.4552L167.405 17.4104V16.6823L172.295 14.9727H173.147V19.5316H173.242C175.387 15.9858 175.892 15.1626 177.343 15.1626C177.848 15.1626 177.974 15.1943 178.794 15.5425C179.236 15.7008 179.993 15.8908 181.034 16.1757L179.993 18.7718C179.362 18.6768 178.542 18.4552 177.721 18.0753C177.248 17.8536 176.743 17.6637 176.207 17.6637C175.45 17.6637 174.977 18.1702 174.535 18.7718C173.967 19.5316 173.494 20.2914 173.147 20.9246V29.346Z" fill="#003568"/>
<path d="M183.432 28.1112C183.936 30.7073 185.577 32.1636 187.501 32.1636C189.236 32.1636 190.561 30.8656 190.561 29.3143C190.561 28.3961 190.341 27.8579 189.173 26.6865C186.113 23.6156 182.738 23.3307 182.738 19.7532C182.738 16.9038 184.977 14.9093 188.227 14.9093C189.394 14.9093 190.593 15.1626 191.666 15.6058L191.76 19.5316H191.035C190.719 17.3471 189.331 15.9541 187.596 15.9541C186.176 15.9541 184.977 16.9355 184.977 18.3602C184.977 22.1593 192.959 22.7925 192.959 28.0795C192.959 30.8972 190.625 32.9867 187.627 32.9867C186.807 32.9867 186.208 32.8601 185.735 32.6701C185.261 32.5435 184.914 32.4169 184.567 32.4169C184.315 32.4169 184.063 32.5752 183.842 32.9234H183.179L182.706 28.0795H183.432V28.1112Z" fill="#003568"/>
<path d="M201.508 29.2193C201.508 30.739 202.329 31.6887 204.6 31.6887V32.5119H195.041V31.6887C197.66 31.6887 198.606 30.8339 198.606 28.5228V19.8482C198.606 18.1702 198.385 17.9486 197.281 17.727L195.262 17.3471V16.6506L200.846 14.7194H201.477V29.2193H201.508ZM199.742 5C200.783 5 201.635 5.72816 201.635 6.64628C201.635 7.53274 200.783 8.29256 199.742 8.29256C198.701 8.29256 197.88 7.5644 197.88 6.64628C197.88 5.72816 198.701 5 199.742 5Z" fill="#003568"/>
<path d="M215.863 15.3842L215.169 17.2838H210.531V27.3514C210.531 30.0741 212.456 30.9922 213.371 30.9922C214.317 30.9922 215.169 30.2641 215.989 28.8394L216.683 29.5043C215.642 31.7521 213.97 33.0501 211.982 33.0501C209.459 33.0501 207.629 30.9289 207.629 28.0479V17.2838H205.641V16.5873C207.313 15.7641 208.796 13.7696 209.774 11.1102H210.5V15.3842H215.863Z" fill="#003568"/>
<path d="M231.889 20.1964C233.183 16.9039 232.362 16.2707 229.839 16.1757V15.4159H236.968V16.1757C235.202 16.3973 234.224 17.6004 233.403 19.6266L226.084 37.9256C224.791 41.1232 223.813 42.5479 222.299 42.5479C221.258 42.5479 220.532 41.883 220.532 41.0282C220.532 39.2553 223.024 39.6985 224.097 38.6221C224.57 38.1472 225.233 37.0392 225.548 36.1527L226.842 32.9235L220.185 18.7401C219.365 16.9672 218.607 16.239 216.778 16.2074V15.4476H225.453V16.2074C222.835 16.239 222.519 17.0305 223.403 18.8351L228.261 29.3776L231.889 20.1964Z" fill="#003568"/>
<path d="M78.9132 47.0752C80.1751 47.0752 82.8251 48.7848 82.8251 53.407C82.8251 61.6068 74.6857 65.1843 72.6667 65.1843C70.6476 65.1843 68.8494 61.955 68.8494 58.3776C68.8494 51.3809 76.3262 47.0752 78.9132 47.0752ZM76.7364 48.6582C74.0232 48.6582 71.6256 53.8819 71.6256 58.1876C71.6256 61.7967 73.1714 63.5697 74.6227 63.5697C78.0614 63.5697 80.0804 57.966 80.0804 53.9769C80.0804 51.0009 78.6292 48.6582 76.7364 48.6582Z" fill="#003568"/>
<path d="M84.371 49.0064L84.4972 48.1832C85.5383 48.0566 86.5478 47.8666 87.652 47.6134C88.283 44.0675 89.5764 40.3634 92.0056 37.9573C93.5199 36.4376 95.4128 35.6145 97.0849 35.6145C98.7569 35.6145 100.145 36.5643 100.145 37.6724C100.145 38.3689 99.6402 38.9387 98.9462 38.9387C97.5265 38.9387 96.3592 37.1658 95.1289 37.1658C93.4568 37.1658 92.0687 39.0654 91.4693 41.9147L90.302 47.5817H93.9931L93.5515 49.0064H90.0181L87.8097 61.6067C86.1377 71.2628 81.2162 74.7137 77.1781 74.7137C75.3799 74.7137 73.8656 73.7956 73.8656 72.7191C73.8656 72.0226 74.5596 71.4211 75.2852 71.4211C76.8626 71.4211 77.746 73.3207 79.3549 73.3207C80.3329 73.3207 81.2162 72.8458 81.9734 72.0543C84.1186 69.9015 84.9389 62.5249 85.0966 61.4801L87.305 48.9747H84.371V49.0064Z" fill="#003568"/>
<path d="M125.415 62.6514C121.156 64.8676 115.698 65.3741 113.9 65.3741C104.467 65.3741 100.082 58.0925 100.082 51.7923C100.082 45.3338 104.593 37.1974 115.099 37.1974C119.705 37.1974 122.765 38.6537 123.648 38.6537C124.027 38.6537 124.374 38.5587 124.626 38.3688H125.226V45.3655H124.374C123.206 39.9834 119.547 38.3055 115.572 38.3055C108 38.3055 104.12 44.6057 104.12 51.539C104.12 60.372 110.303 64.2977 115.256 64.2977C117.244 64.2977 119.421 63.8545 121.85 62.6514V57.206C121.85 54.7366 120.998 53.9135 118.411 53.9135H116.802V53.1537H128.412V53.9135C126.267 54.0401 125.415 54.7683 125.415 56.6362V62.6514Z" fill="#003568"/>
<path d="M134.911 61.2585C134.911 63.0314 135.731 63.8546 137.403 63.8546H138.129V64.6777H128.443V63.8546C131.188 63.8546 132.008 63.0314 132.008 60.9736V40.1418C132.008 38.9388 131.882 38.5588 130.683 38.4006L128.759 38.1789V37.4508L134.248 35.6779H134.879V61.2585H134.911Z" fill="#003568"/>
<path d="M140.242 52.7421C140.148 52.4888 140.116 52.3622 140.116 52.1406C140.116 50.6209 143.681 47.1384 146.489 47.1384C147.782 47.1384 149.801 47.74 151 49.4179C151.663 50.336 151.663 50.8742 151.663 53.122V58.9157C151.663 62.3665 151.663 63.158 152.799 63.158C153.272 63.158 153.84 63.1263 154.912 62.2082L155.133 62.8414C152.83 64.741 151.6 65.2159 150.874 65.2159C149.107 65.2159 148.95 63.2846 148.887 62.5881C145.921 65.0576 145.069 65.2159 143.902 65.2159C141.41 65.2159 139.895 63.7912 139.895 61.67C139.895 59.0423 142.23 58.1242 144.975 57.4277C145.89 57.2061 147.309 56.6995 148.792 55.7814V52.3622C148.792 51.1592 148.792 50.4626 148.066 49.6078C147.498 48.9113 146.615 48.3731 145.669 48.3731C144.249 48.3731 142.987 49.5762 142.987 50.4943C142.987 50.7476 143.019 50.9375 143.208 51.3174L140.242 52.7421ZM148.76 56.6679C147.94 57.1427 147.246 57.4593 146.237 57.8709C143.618 58.9473 142.609 59.3906 142.609 61.1635C142.609 62.7148 143.839 63.6962 145.132 63.6962C145.826 63.6962 146.331 63.4746 148.729 61.7967V56.6679H148.76Z" fill="#003568"/>
<path d="M157.215 60.3087C157.72 62.9048 159.36 64.3611 161.316 64.3611C163.02 64.3611 164.377 63.0631 164.377 61.5118C164.377 60.5937 164.156 60.0554 162.988 58.8841C159.928 55.8131 156.553 55.5282 156.553 51.9507C156.553 49.1013 158.793 47.1068 162.042 47.1068C163.209 47.1068 164.408 47.3601 165.481 47.8033L165.575 51.7291H164.85C164.534 49.5129 163.115 48.1516 161.411 48.1516C159.991 48.1516 158.793 49.133 158.793 50.5577C158.793 54.3568 166.774 54.99 166.774 60.2771C166.774 63.0631 164.44 65.1842 161.443 65.1842C160.622 65.1842 160.023 65.0576 159.55 64.8993C159.077 64.7727 158.73 64.646 158.382 64.646C158.13 64.646 157.878 64.8043 157.657 65.1526H156.994L156.521 60.3087H157.215Z" fill="#003568"/>
<path d="M187.407 51.1275C186.744 51.0959 184.725 50.9059 183.116 50.5893C183.368 51.0642 183.842 51.9823 183.842 53.3437C183.842 56.5413 181.097 59.6122 176.333 59.6122C175.513 59.6122 175.134 59.5172 174.346 59.264C173.652 59.9921 171.727 60.467 171.727 61.4485C171.727 62.5249 173.589 62.9681 177.879 62.9998C182.738 63.0314 184.41 63.253 185.703 64.5511C186.744 65.5958 186.997 66.6722 186.997 67.5587C186.997 70.3764 183.211 74.682 175.261 74.682C170.781 74.682 168.636 72.6875 168.636 70.5663C168.636 68.0652 171.254 67.6853 173.242 65.2476C170.907 65.026 169.172 63.5696 169.172 62.1766C169.172 60.1821 172.043 60.1188 173.557 58.979C170.939 57.9343 169.424 56.098 169.424 53.6286C169.424 49.9245 172.737 47.0118 176.996 47.0118C178.983 47.0118 180.655 47.6134 181.823 48.7531C183.747 48.7531 185.545 48.5315 187.47 48.3099V51.1275H187.407ZM177.627 73.5106C181.286 73.5106 184.725 71.1045 184.725 68.3818C184.725 66.7989 183.4 65.9757 181.854 65.8491C180.75 65.7225 175.324 65.6591 174.062 65.5008C172.863 66.9255 171.254 67.527 171.254 69.205C171.254 71.2312 174.093 73.5106 177.627 73.5106ZM176.428 47.93C174.787 47.93 172.264 48.8481 172.264 52.8371C172.264 55.3699 173.557 58.7891 176.807 58.7891C179.299 58.7891 180.939 56.7312 180.939 53.7236C180.939 50.0511 179.046 47.93 176.428 47.93Z" fill="#003568"/>
<path d="M197.565 47.1068C202.802 47.1068 206.809 51.0326 206.809 56.1614C206.809 61.2585 202.802 65.1842 197.691 65.1842C192.36 65.1842 188.29 61.2902 188.29 56.2563C188.258 50.3044 193.085 47.1068 197.565 47.1068ZM198.165 64.1711C200.688 64.1711 203.591 61.5751 203.591 57.2694C203.591 52.3622 200.594 48.1516 196.966 48.1516C194.126 48.1516 191.508 51.0959 191.508 54.8C191.476 60.0238 194.473 64.1711 198.165 64.1711Z" fill="#003568"/>
<path d="M226.747 65.0576L221.636 52.9004L216.462 65.0576H215.263L208.859 50.5576C208.26 49.2279 207.66 48.5631 205.673 48.3731V47.5817H214.002V48.3731C211.478 48.4998 211.288 49.2279 212.203 51.2541L216.841 61.67L221.068 51.6657C220.122 49.4812 219.396 48.6897 217.882 48.5314L216.841 48.4048V47.5817H225.769V48.3731C223.655 48.4048 223.024 49.0696 223.908 51.2225L228.135 61.4801L232.268 51.3808C233.214 49.1013 232.489 48.3731 229.775 48.3731V47.5817H237V48.3731C235.359 48.5314 234.35 49.3546 233.467 51.4758L227.914 65.0892H226.747V65.0576Z" fill="#003568"/>
<path d="M12.0946 5.66479H57.082C57.082 5.66479 57.1451 27.0664 57.082 42.5795C57.082 54.0085 43.0116 66.6405 34.5883 67.0837C25.2501 66.3239 12.0946 53.217 12.0946 42.7378V5.66479Z" fill="#003568"/>
<path d="M34.2413 60.9735H35.6925V21.2095H34.2413V60.9735Z" fill="#99DBF9"/>
<path d="M43.7688 34.8864H50.8355C52.9177 34.8864 53.107 35.1713 53.2647 35.6145C53.1701 34.918 52.7284 31.3405 52.4129 28.7761C52.3183 28.1113 52.0974 26.2434 51.151 25.1353C50.8671 24.7871 50.7093 24.5971 50.0784 24.3438C50.1415 24.1855 50.7093 22.7609 51.1195 21.5895C51.3403 20.988 51.1195 20.4181 50.6462 20.1332C50.2677 19.9115 49.7629 19.8799 49.3843 19.8799C46.9551 19.8799 45.0938 19.8799 44.3366 19.8799C43.0432 19.8799 42.4438 20.703 42.8223 21.7161C43.1378 22.4759 43.611 23.774 43.8634 24.3438C42.286 24.882 41.7497 27.0665 41.5289 28.9344C41.1503 32.132 40.614 36.3744 40.5824 36.6276C40.5193 37.0392 40.4562 37.3558 41.1188 37.3874C42.3807 37.4824 43.8319 37.4824 46.2926 37.4191C46.545 37.5457 46.8289 37.6407 47.2391 37.6407C47.6492 37.6407 47.9331 37.5141 48.1539 37.3874C49.1635 37.3558 50.2992 37.2925 51.6242 37.2608C50.4569 37.2292 49.3843 37.1975 48.4063 37.1658C48.7534 36.7226 48.7218 36.1211 48.6903 35.9944C48.5325 37.6407 46.3873 37.4824 46.9236 35.7412C46.7027 35.7412 46.1033 35.7412 45.7248 36.0578C45.6301 36.311 45.6617 36.7543 45.914 37.1025C44.5259 37.0392 43.3587 36.9759 42.5384 36.9442C42.0967 36.9126 41.9075 36.6276 42.1283 36.3427C43.0116 35.108 43.0747 34.8864 43.7688 34.8864ZM44.3997 20.9563C45.6617 20.9563 47.7438 20.9563 49.0688 20.9563C49.479 20.9563 50.173 20.8297 49.7944 21.7478C49.4474 22.5709 48.9742 23.7107 48.7534 24.1855C48.0593 24.1855 45.1884 24.1855 45.1884 24.1855C44.9676 23.6473 44.6206 22.8875 44.2105 21.9377C43.9896 21.4312 43.895 20.9563 44.3997 20.9563Z" fill="#FFCF3A"/>
<path d="M34.6199 60.7836C34.6199 61.2585 34.3044 61.6384 33.9259 61.6384C33.5473 61.6384 33.2318 61.2585 33.2318 60.7836V56.8262C33.2318 56.3513 33.5473 55.9714 33.9259 55.9714C34.3044 55.9714 34.6199 56.3513 34.6199 56.8262V60.7836Z" fill="white"/>
<path d="M24.9347 13.9595C25.1555 13.8646 25.471 13.8962 25.7549 13.8962C25.4394 13.6113 25.1239 13.5163 24.9662 13.4846C24.5561 11.9017 22.2846 12.3449 22.0638 13.7379C21.9691 14.2445 20.2025 14.4661 18.1518 17.2204C17.2054 18.4868 15.9119 19.5632 15.5018 19.8482C15.0917 20.1014 16.0697 20.0381 16.5113 19.5632C16.9215 19.9748 17.7417 18.7084 19.0036 18.4868C19.3191 18.4235 23.4519 17.6953 22.3793 15.3209C23.8305 17.1888 21.4013 18.5501 19.887 18.7084C20.0132 18.7717 20.8019 18.8351 20.8965 18.8667C21.1174 18.9617 20.8334 19.215 21.0227 19.3416C21.4644 19.5949 22.3477 20.418 22.3477 20.418C22.3477 20.418 22.8525 20.2597 22.6317 20.0065C21.9376 19.5632 21.7799 19.4049 21.5906 19.1517C21.5906 19.12 21.3697 18.7084 21.8114 18.6134C22.4424 18.5501 24.5561 17.7903 24.209 15.1626C24.1144 14.6244 24.4299 14.1812 24.9347 13.9595Z" fill="#E2A235"/>
<path d="M24.6192 13.5163C24.6192 13.643 24.5245 13.7696 24.3983 13.7696C24.2721 13.7696 24.1775 13.6746 24.1775 13.5163C24.1775 13.3897 24.2721 13.2631 24.3983 13.2631C24.5245 13.2631 24.6192 13.358 24.6192 13.5163Z" fill="#003568"/>
<path d="M35.2824 61.4485H36.0396V55.8765H35.2824V61.4485Z" fill="white"/>
<path d="M36.7336 62.3348C36.9544 62.0816 37.1122 61.765 37.1122 61.4167C37.1122 60.6886 36.5128 60.087 35.7872 60.087H33.5473C32.8217 60.087 32.2222 60.6886 32.2222 61.4167C32.2222 61.765 32.3484 62.0816 32.5693 62.3032C32.2853 62.5565 31.8121 63.0313 31.6859 63.1896C33.2002 63.8545 36.0711 63.7912 37.68 63.1896C37.4908 63.0313 36.9544 62.5565 36.7336 62.3348Z" fill="#FFCF3A"/>
<path d="M34.5883 16.4606C34.5883 16.4922 34.5883 16.4922 34.5883 16.4606C33.6103 15.5741 30.4555 15.1942 28.4365 15.7324C28.5627 15.9857 28.7204 16.7772 28.815 17.0938C31.8121 16.1123 34.5883 17.5687 34.5883 17.5687V17.5053V17.537C34.5883 17.537 37.3645 16.0807 40.3616 17.0938C40.4562 16.7772 40.614 15.9857 40.7402 15.7641C38.7211 15.2259 35.5663 15.5741 34.5883 16.4606Z" fill="#99DBF9"/>
<path d="M35.5032 52.0139H35.9449V21.2095H35.5032V52.0139Z" fill="white"/>
<path d="M33.2633 49.7978H34.683V21.2095H33.2633V49.7978Z" fill="white"/>
<path d="M36.0396 32.1953C36.1342 31.847 36.1657 31.0239 36.0396 30.7706C35.377 30.7706 34.336 30.7706 33.7366 30.7706C35.1247 31.2772 36.0396 32.1953 36.0396 32.1953Z" fill="#003568"/>
<path d="M31.055 57.6493C31.8437 57.7759 36.1342 57.9659 36.1342 57.9659L36.8283 59.7705C36.8283 59.8021 33.074 59.7071 31.055 57.6493Z" fill="#003568"/>
<path d="M48.5326 44.6057C47.2075 43.7509 45.567 44.4157 43.8319 42.9277C43.8319 47.5183 47.176 48.4364 45.2831 49.6712C43.6111 50.7792 42.0021 51.0325 40.3301 50.9059C40.4563 50.6842 40.7087 50.2727 40.9295 50.0511C38.8789 49.7978 37.0806 49.9244 36.3235 50.0194C33.7681 49.2596 30.9288 48.3098 27.4901 48.2465C28.121 48.753 28.7204 49.6395 28.7204 51.1591C28.2157 49.1013 26.0704 48.0249 25.0293 47.6133C24.7138 47.4867 24.4299 47.455 24.1144 47.3917C23.9567 47.6133 23.6412 47.9616 23.0734 48.1515C22.7579 47.9932 22.5055 48.2781 22.537 48.3731C22.537 48.4364 22.537 48.4681 22.5055 48.5314C22.19 48.943 21.1805 48.753 20.4549 48.4681C19.6031 48.1832 19.6346 48.753 19.7924 49.0696C20.0448 49.5445 20.3287 49.8611 20.4549 50.1144C21.5906 52.4572 22.4424 54.0085 24.9662 55.4648C27.3639 57.2377 30.3925 58.1558 33.4842 58.2825C34.6199 58.694 37.1753 59.3905 40.4247 58.884C39.7938 58.4724 39.1628 58.0292 38.9735 57.6176C43.0748 56.4146 46.6397 53.7235 48.0909 49.6078C48.1224 49.5762 48.1224 49.5129 48.154 49.4812C48.4064 48.5947 47.5546 47.3917 46.3242 48.5631C47.3968 45.9987 49.1635 47.1068 48.7849 48.6264C50.2046 46.7268 52.0659 44.7007 54.5898 43.9092C52.2868 42.8644 50.0153 43.7825 48.5326 44.6057Z" fill="#99DBF9"/>
<path d="M36.1026 40.6167C36.1973 40.2684 36.2288 39.4453 36.1026 39.192C35.4401 39.192 34.399 39.192 33.7996 39.192C35.1562 39.6986 36.1026 40.6167 36.1026 40.6167Z" fill="#003568"/>
<path d="M37.049 37.9256C37.049 38.6538 36.4496 39.2553 35.6925 39.2553H33.421C32.6954 39.2553 32.0645 38.6538 32.0645 37.9256C32.0645 37.1975 32.6639 36.5959 33.421 36.5959H35.6925C36.4496 36.5959 37.049 37.1658 37.049 37.9256Z" fill="#FFCF3A"/>
<path d="M35.6925 38.7805C34.3675 38.7805 33.2002 38.7805 33.2002 38.7805C33.2002 38.7805 35.0931 38.6538 36.2919 37.3875C36.5759 37.6091 36.639 38.7805 35.6925 38.7805Z" fill="#E2A235"/>
<path d="M36.1026 49.133C36.1973 48.7848 36.2288 47.9616 36.1026 47.7084C35.4401 47.7084 34.399 47.7084 33.7996 47.7084C35.1877 48.2149 36.1026 49.133 36.1026 49.133Z" fill="#003568"/>
<path d="M37.0806 46.4103C37.0806 47.1384 36.4812 47.7399 35.7241 47.7399H33.4526C32.6955 47.7399 32.096 47.1384 32.096 46.4103C32.096 45.6821 32.6955 45.0806 33.4526 45.0806H35.7241C36.4812 45.0806 37.0806 45.6504 37.0806 46.4103Z" fill="#FFCF3A"/>
<path d="M35.6925 47.2651C34.336 47.2651 33.2002 47.2651 33.2002 47.2651C33.2002 47.2651 35.0931 47.1701 36.2919 45.8721C36.6074 46.0937 36.6705 47.2651 35.6925 47.2651Z" fill="#E2A235"/>
<path d="M32.5692 27.3514H36.6074V23.3623H32.5692V27.3514Z" fill="#FFCF3A"/>
<path d="M36.6074 27.3514C35.9133 27.5097 35.9764 28.0796 35.9449 28.3012C35.9449 28.3012 34.3044 28.3012 33.2633 28.3012C33.2633 28.2379 33.2949 27.4464 32.6008 27.3514C32.5692 27.3514 36.355 27.3514 36.6074 27.3514Z" fill="#E2A235"/>
<path d="M34.9353 27.383H36.0395V23.3623H34.9353V27.383Z" fill="#E2A235"/>
<path d="M21.9376 45.3972C21.5275 45.5871 21.1489 45.9671 20.9596 46.4736C20.7703 46.9801 20.7703 47.4867 20.9596 47.9299C21.0858 48.2465 21.3382 48.4681 21.6221 48.5948C21.906 48.6897 22.2531 48.6898 22.5686 48.5631C23.0102 48.3732 23.3573 47.9932 23.5465 47.4867C23.8936 46.6002 23.5781 45.6505 22.884 45.3655C22.5686 45.2389 22.2531 45.2706 21.9376 45.3972ZM21.8114 48.0882C21.6221 48.0249 21.4959 47.8349 21.4328 47.7083C21.3066 47.4234 21.3066 47.0435 21.4328 46.6636C21.559 46.3153 21.843 45.9987 22.1269 45.8721C22.2531 45.8088 22.4424 45.7771 22.6632 45.8404C22.9471 45.9671 23.1364 46.2836 23.1364 46.6952C23.1364 46.8852 23.1049 47.0751 23.0102 47.2651C22.884 47.6133 22.6001 47.9299 22.3162 48.0566C22.2215 48.1199 22.0007 48.1832 21.8114 48.0882Z" fill="#FFCF3A"/>
<path d="M22.537 47.9616C22.3162 47.8983 21.7483 47.7084 21.0858 47.7084C20.6126 47.7084 20.1394 47.4234 20.1709 47.2651C20.2025 47.1701 20.3287 47.1068 20.5179 47.0752C20.9912 47.0118 21.9691 47.0752 23.0733 47.2335C22.9471 47.4867 22.8209 47.74 22.537 47.9616Z" fill="#99DBF9"/>
<path d="M24.2406 15.6692C24.2091 17.6954 22.6948 18.3286 22.2531 18.4552C22.3793 17.9803 23.0102 15.8908 24.2406 15.6692Z" fill="#EF442D"/>
<path d="M37.0806 29.4726C37.0806 30.2008 36.4812 30.8023 35.7241 30.8023H33.4526C32.6955 30.8023 32.096 30.2008 32.096 29.4726C32.096 28.7445 32.6955 28.1429 33.4526 28.1429H35.7241C36.4812 28.1429 37.0806 28.7445 37.0806 29.4726Z" fill="#FFCF3A"/>
<path d="M35.7241 30.3591C34.3675 30.3591 33.2318 30.3591 33.2318 30.3591C33.2318 30.3591 35.1247 30.2324 36.3235 28.9661C36.6074 29.156 36.6705 30.3591 35.7241 30.3591Z" fill="#E2A235"/>
<path d="M26.7645 48.753C28.2157 49.7345 28.7204 51.1592 28.7204 51.1592C28.7204 51.1592 29.1936 49.9561 28.5311 49.038C29.8561 48.6581 32.1592 49.2596 34.2413 50.0827C37.2699 51.2858 39.5729 51.6657 41.8759 51.2858C44.1789 50.8742 45.4093 50.3993 46.1664 49.2596C46.545 48.6264 47.7438 48.753 47.3968 49.7028C47.0813 50.6209 45.6301 53.2803 42.917 54.0401C40.2039 54.7683 35.7241 56.003 29.099 54.3251C27.3323 53.8818 23.168 52.7738 21.4644 50.5893C21.1174 50.1461 21.0227 49.3229 21.0227 49.1963C20.9912 49.038 21.1174 48.943 21.4644 49.0063C22.6317 49.2279 22.8525 48.753 23.2942 48.2782C23.7674 48.1515 25.4394 47.8666 26.7645 48.753Z" fill="white"/>
<path d="M46.9235 49.4813C44.9045 53.3437 40.9925 53.9452 36.8913 54.0719C35.2193 54.1035 33.5788 53.9136 32.1276 53.5337C33.3264 53.6603 34.5883 53.5653 35.3454 53.2804C35.0615 51.7291 32.4115 50.621 30.5817 50.4944C30.2347 50.0828 30.14 49.5763 29.2882 49.2913C29.8877 49.8295 29.8246 50.621 30.14 51.0009C31.6543 51.3175 33.4841 51.6974 34.3675 52.8688C34.052 53.2804 31.3389 53.0588 29.8561 52.7105C29.2251 52.4889 28.5626 52.0774 28.1841 51.3808C27.49 52.1723 26.3543 51.8874 25.187 51.3175C25.1555 50.8743 24.9031 50.4627 24.3037 50.3678C24.4299 50.5577 24.4614 50.7793 24.4614 50.9376C23.1679 50.1778 21.906 49.2597 21.2751 49.2913C20.3917 49.3547 23.1995 54.3252 25.5971 54.8634C32.6954 58.9791 44.5259 57.1745 47.3337 50.2411C47.7122 49.2597 47.3652 48.6265 46.9235 49.4813Z" fill="#059BD7"/>
<path d="M24.5245 50.8742C24.5561 51.3175 24.2406 51.6974 23.7674 51.729C23.2942 51.7923 22.9156 51.4757 22.8525 51.0325C22.8209 50.5893 23.1364 50.2094 23.6096 50.1777C24.0829 50.1461 24.493 50.4627 24.5245 50.8742Z" fill="white"/>
<path d="M24.1459 50.9693C24.1459 51.1909 23.9566 51.3492 23.7042 51.3492C23.4834 51.3492 23.2626 51.1909 23.2626 50.9693C23.2626 50.7477 23.4519 50.5894 23.7042 50.5894C23.9251 50.5894 24.1459 50.7477 24.1459 50.9693Z" fill="#003568"/>
<path d="M44.4313 43.8776C43.9581 45.5555 46.0087 47.835 46.0087 47.835C46.0087 47.835 45.0938 44.8907 44.4313 43.8776Z" fill="white"/>
<path d="M45.8825 44.2574C45.1569 45.2389 46.5135 47.4867 46.5135 47.4867C46.5135 47.4867 46.4504 45.6821 45.8825 44.2574Z" fill="white"/>
<path d="M48.1539 46.7902C48.7218 45.5555 49.8575 44.3207 51.0564 43.9092C48.5325 44.2258 47.9962 45.8721 48.1539 46.7902Z" fill="white"/>
<path d="M34.5884 9.49566C33.5473 7.43781 32.033 9.02077 29.4145 8.19763C28.9413 10.3505 28.4996 14.2129 28.3419 14.8777C30.1401 15.4159 31.7175 13.738 33.8628 15.131C33.6419 12.345 34.5253 10.0339 34.5253 10.0339C34.5253 10.0339 34.5568 9.71728 34.5884 9.49566Z" fill="white"/>
<path d="M34.5883 9.49567C34.3675 9.11576 34.1782 8.83082 33.8312 8.64087C33.5157 11.9651 33.4526 12.6616 32.4115 14.6245C33.074 14.7194 33.5472 14.9411 33.8943 15.1943C33.6419 12.3767 34.5883 10.1922 34.5883 10.1922C34.5883 10.1922 34.5883 9.59065 34.5883 9.49567Z" fill="#99DBF9"/>
<path d="M39.7622 8.19763C37.1437 9.02077 35.6294 7.43781 34.5883 9.49566C34.5883 10.1922 34.5883 15.321 34.5883 15.7325C37.1122 13.3581 38.8473 15.5109 40.8348 14.9094C40.7087 14.2129 40.2354 10.3505 39.7622 8.19763Z" fill="white"/>
<path d="M33.8627 21.2096H35.3455V19.5H33.8627V21.2096Z" fill="#FFCF3A"/>
<path d="M34.6199 17.8536L35.3455 19.1517H33.8627L34.6199 17.8536Z" fill="#FFCF3A"/>
<path d="M22.3163 22.9191C22.2846 22.8875 22.2846 22.8875 22.3163 22.9191V22.9191Z" fill="#099248"/>
<path d="M28.1841 31.2455C28.1841 31.2455 30.2031 30.264 30.3924 29.2193C29.7615 28.6177 28.2156 28.5544 28.2156 28.5544C28.2156 28.5544 30.0139 27.1614 29.9508 26.18C29.0674 25.7684 27.4585 25.99 27.4585 25.99C28.1841 24.9453 28.4049 24.1538 28.3734 23.4256C27.4269 23.2673 26.0073 23.8372 26.0073 23.8372C26.0073 23.8372 26.4805 22.0959 26.0073 21.2095C25.1555 20.9879 23.9251 22.5075 23.9251 22.5075C23.9251 22.5075 23.4834 20.6079 22.4739 19.5948C21.4644 20.6079 21.0227 22.5075 21.0227 22.5075C21.0227 22.5075 19.7608 20.9879 18.909 21.2411C18.4358 22.1276 18.909 23.8688 18.909 23.8688C18.909 23.8688 17.4578 23.299 16.5429 23.4573C16.5113 24.1854 16.7322 25.0086 17.4578 26.0217C17.4578 26.0217 15.8488 25.7684 14.9655 26.2116C14.9024 27.1931 16.7006 28.5861 16.7006 28.5861C16.7006 28.5861 15.1232 28.6494 14.5238 29.2509C14.7131 30.264 16.7322 31.2771 16.7322 31.2771C16.7322 31.2771 15.5333 31.5304 14.8077 32.3535C15.281 32.9867 16.322 33.5566 17.1423 33.7149C16.4482 34.2847 16.0381 34.728 15.8488 35.0762C16.9845 35.9943 19.4137 36.1526 21.8114 35.3928C21.8114 35.8677 21.8114 39.5718 21.2435 41.2814H23.6727C23.1048 39.5718 23.1048 35.836 23.1048 35.3928C25.5025 36.1526 27.9317 36.026 29.0674 35.0762C28.8781 34.728 28.4995 34.2847 27.8055 33.7149C28.6257 33.5882 29.6668 32.9867 30.14 32.3535C29.3829 31.4987 28.1841 31.2455 28.1841 31.2455Z" fill="#80C343"/>
<path d="M26.0073 31.3089C26.2282 31.1822 27.3954 30.834 27.9948 29.7892C27.3954 29.2194 26.0073 29.1877 26.0073 29.1877C26.0073 29.1877 27.2377 28.3646 27.6478 27.1615C26.5752 26.8449 25.471 27.1615 25.471 27.1615C25.471 27.1615 26.3859 25.8635 26.4805 24.7871C25.471 24.882 24.3668 25.4202 24.3668 25.4202C24.6823 24.7554 24.84 23.8056 24.6823 22.9825C24.1775 23.0775 23.7043 23.679 23.4204 24.0272C23.168 23.2041 22.7263 22.9508 22.4108 22.7609C21.9061 23.489 21.8114 23.9639 21.8745 24.977C22.0323 24.8187 22.3162 24.5338 22.7263 24.3122C22.9787 25.7368 22.4739 26.7816 22.4739 26.7816C22.4739 26.7816 23.1049 26.37 23.9252 26.275C23.9567 27.0665 23.6728 27.8897 22.8525 28.8394C22.8525 28.8394 23.5781 28.3962 24.4299 28.3329C24.3037 29.441 23.6097 30.1691 22.9156 30.8023C23.3888 30.5807 24.1775 30.6124 24.7139 30.7707C24.4299 31.6255 23.7674 32.037 22.821 32.5752C23.4204 32.5752 24.0198 32.6385 24.3668 32.8918C23.9882 33.62 23.0418 33.9682 22.3793 34.1582C23.8936 34.7281 25.3448 34.9813 26.7645 34.6331C26.6698 34.1899 26.1335 33.6833 25.5025 33.3351C26.0704 33.2084 26.9222 33.0185 27.6794 32.3853C27.3323 31.8471 26.7329 31.5305 26.0073 31.3089Z" fill="#02994B"/>
<path d="M17.931 64.0128C18.2781 65.1526 17.3632 67.3687 17.9941 68.6351C17.4578 68.6034 13.9244 69.2683 13.4197 68.7934C12.9149 68.3501 11.5583 67.3687 12.9149 66.6089C14.303 65.8807 17.7417 64.551 17.931 64.0128Z" fill="#99DBF9"/>
<path d="M51.4034 63.8862C51.8135 67.527 51.1825 67.9386 51.2456 69.015C51.5927 69.11 54.3689 69.6799 55.3469 69.1417C56.3249 68.6035 57.0189 67.3054 56.5457 66.7672C56.104 66.229 53.8326 64.7727 52.9177 64.6461C52.0343 64.4878 51.6558 64.1712 51.4034 63.8862Z" fill="#99DBF9"/>
<path d="M55.757 65.6591C54.2427 64.836 52.0028 64.3611 50.7093 62.6198C50.2361 64.3611 51.3718 65.3742 51.3403 67.9702C52.4129 65.9757 51.5296 65.4691 51.7189 64.5194C52.5707 65.6274 53.8641 65.7857 54.779 66.2606C55.9463 66.8622 56.6404 68.1918 54.2427 68.1918C49.5736 68.1918 19.6977 68.1918 14.934 68.1918C12.4732 68.1918 13.1988 66.8622 14.3345 66.2606C15.2494 65.7857 16.5429 65.6274 17.3947 64.4877C17.584 65.4375 16.6691 65.9124 17.7417 67.9386C17.6786 65.3425 18.8459 64.3927 18.3727 62.6198C17.1108 64.3611 14.8078 64.8676 13.2935 65.6591C12 66.3556 12 66.7988 12 69.015C12 70.503 12 72.3709 12 73.6056V73.6372C12 74.5237 13.0095 75.0302 14.2399 74.9986H54.7475C55.9778 75.0302 57.0189 74.5237 57.0189 73.6372C57.0189 72.3709 57.0189 70.4713 57.0189 68.9833C57.1136 66.7355 57.0505 66.3239 55.757 65.6591Z" fill="#003568"/>
<path d="M14.3345 70.0914H15.1863L15.7857 71.7694C15.7857 71.801 15.8173 71.9277 15.8804 72.1809C15.9435 71.9593 15.975 71.801 15.975 71.7694L16.5744 70.0914H17.4578L16.1959 73.0991H15.5649L14.3345 70.0914Z" fill="white"/>
<path d="M17.9626 73.0991H18.7828V70.0914H17.9626V73.0991Z" fill="white"/>
<path d="M20.3286 70.0914H21.3382L22.3793 73.0991H21.559L21.4013 72.5608H20.234L20.0763 73.0991H19.256L20.3286 70.0914ZM21.2435 71.9593L20.9281 70.9779C20.9281 70.9146 20.865 70.7879 20.8334 70.5663C20.7703 70.7879 20.7388 70.9146 20.7388 70.9779L20.4233 71.9593H21.2435Z" fill="white"/>
<path d="M24.0198 70.0914H24.9031L25.5025 71.7694C25.5025 71.801 25.5341 71.9277 25.5972 72.1809C25.6603 71.9593 25.6918 71.801 25.6918 71.7694L26.2912 70.0914H27.1746L25.9127 73.0991H25.2817L24.0198 70.0914Z" fill="white"/>
<path d="M27.5847 70.0914H29.446V70.7246H28.4049V71.2628H29.3829V71.896H28.4049V72.4026H29.446V73.0991H27.5847V70.0914Z" fill="white"/>
<path d="M30.1716 70.0914H31.0234H31.055C31.4651 70.0914 31.7806 70.0914 32.0645 70.2814C32.2853 70.4397 32.38 70.693 32.38 71.0095C32.38 71.4844 32.1591 71.7694 31.7175 71.8643L32.5377 73.0674H31.6228L30.9288 71.896V73.0674H30.1716V70.0914ZM31.1181 71.5161C31.4651 71.5161 31.6228 71.4211 31.6228 71.1362C31.6228 70.8196 31.4651 70.7246 31.1181 70.7246H30.9603V71.5161H31.1181Z" fill="white"/>
<path d="M33.1056 73.0991H33.9258V70.0914H33.1056V73.0991Z" fill="white"/>
<path d="M35.2193 70.7879H34.5568V70.0914H36.702V70.7879H36.0395V73.0991H35.2193V70.7879Z" fill="white"/>
<path d="M37.9955 70.0914H39.005L40.0461 73.0991H39.2259L39.0681 72.5608H37.9009L37.7431 73.0991H36.9229L37.9955 70.0914ZM38.942 71.9593L38.6265 70.9779C38.6265 70.9146 38.5949 70.7879 38.5318 70.5663C38.4687 70.7879 38.4372 70.9146 38.4372 70.9779L38.1217 71.9593H38.942Z" fill="white"/>
<path d="M41.4027 72.5292C41.6235 72.5292 41.7813 72.4026 41.7813 72.2126C41.7813 71.9593 41.6235 71.896 41.2765 71.801C40.7402 71.6744 40.4878 71.4528 40.4878 70.9779C40.4878 70.408 40.8979 69.9965 41.5289 69.9965C41.8759 69.9965 42.1598 70.0914 42.4122 70.2814L42.1598 70.8513C41.9705 70.693 41.7813 70.6296 41.592 70.6296C41.4027 70.6296 41.2449 70.7246 41.2449 70.8829C41.2449 71.1045 41.4658 71.1362 41.7182 71.2312C42.2545 71.3578 42.5384 71.5794 42.5384 72.1176C42.5384 72.7508 42.0967 73.1624 41.4027 73.1624C40.9926 73.1624 40.6455 73.0357 40.33 72.7192L40.7086 72.1176C40.9295 72.4026 41.1818 72.5292 41.4027 72.5292Z" fill="white"/>
<path d="M44.3367 70.0914H45.22L45.8194 71.7694C45.8194 71.801 45.851 71.9277 45.9141 72.1809C45.9772 71.9593 46.0087 71.801 46.0087 71.7694L46.6081 70.0914H47.4915L46.2295 73.0991H45.5986L44.3367 70.0914Z" fill="white"/>
<path d="M47.9331 73.0991H48.7534V70.0914H47.9331V73.0991Z" fill="white"/>
<path d="M50.0784 70.7879H49.4159V70.0914H51.5611V70.7879H50.8671V73.0991H50.0784V70.7879Z" fill="white"/>
<path d="M52.8546 70.0914H53.8641L54.9052 73.0991H54.085L53.9272 72.5608H52.7599L52.6022 73.0991H51.782L52.8546 70.0914ZM53.7695 71.9593L53.454 70.9779C53.454 70.9146 53.4224 70.7879 53.3593 70.5663C53.2963 70.7879 53.2647 70.9146 53.2647 70.9779L52.9808 71.9593H53.7695Z" fill="white"/>
<path d="M36.2288 60.657C36.4181 60.8786 36.5758 62.0183 35.5978 62.0816C33.9258 62.2083 33.1371 62.05 33.1371 62.05C33.1371 62.05 35.377 61.7967 36.2288 60.657Z" fill="#E2A235"/>
<path d="M43.7057 26.4967C43.8004 25.1353 44.4629 24.8187 45.3462 24.8187C45.851 24.8187 46.5766 24.8504 48.4064 24.8187C47.3968 24.9137 46.1034 25.4519 45.9456 26.7816C45.7879 28.0163 45.7879 32.2903 45.7563 34.1265C44.873 34.1582 43.6742 34.1265 43.3902 34.1899C43.4849 32.322 43.6111 27.858 43.7057 26.4967Z" fill="#E2A235"/>
<path d="M34.6198 21.2096H35.0615V19.5H34.6198V21.2096Z" fill="#E2A235"/>
<path d="M35.0615 19.1517L34.6198 17.8536V19.1517H35.0615Z" fill="#E2A235"/>
</svg>
