<svg width="164" height="80" viewBox="0 0 164 80" fill="none" xmlns="http://www.w3.org/2000/svg">
<path d="M113.54 5.08815C116.71 4.73555 120.008 5.44075 122.698 7.20374C124.683 8.48591 126.348 10.3451 127.277 12.5248C127.981 14.2236 128.27 16.0828 128.238 17.9099C128.206 20.6986 127.309 23.5194 125.548 25.7312C123.947 27.7826 121.641 29.161 119.175 29.9303C116.101 30.8919 112.707 30.7637 109.697 29.6418C107.552 28.8404 105.63 27.4301 104.189 25.635C103.389 24.6413 102.749 23.5194 102.3 22.3014C101.692 20.6025 101.532 18.7754 101.628 17.0124C101.788 14.5762 102.684 12.2042 104.189 10.281C105.823 8.16537 108.128 6.5306 110.658 5.69718C111.618 5.40869 112.579 5.18431 113.54 5.08815ZM114.052 5.95362C112.643 6.11389 111.298 6.69087 110.21 7.55634C109.089 8.42181 108.224 9.60782 107.616 10.8579C106.463 13.23 106.143 15.9546 106.239 18.583C106.303 20.4422 106.623 22.3334 107.36 24.0643C108.16 26.0197 109.505 27.8147 111.394 28.8084C113.924 30.1867 117.222 29.9303 119.56 28.2314C120.713 27.398 121.609 26.244 122.25 24.9619C123.53 22.3655 123.851 19.3844 123.723 16.5316C123.594 13.9672 122.986 11.3067 121.481 9.19111C120.713 8.10126 119.688 7.23579 118.503 6.65881C117.094 6.01773 115.557 5.79335 114.052 5.95362ZM129.775 5.40869C130.319 5.28048 130.895 5.37664 131.472 5.40869C135.827 5.63307 140.182 5.63307 144.536 5.56897C146.586 5.53691 148.635 5.4728 150.652 5.34458C151.005 5.34458 151.421 5.31253 151.709 5.56897C151.965 5.88951 151.901 6.33827 151.901 6.72292C151.869 7.97304 151.901 9.19111 151.901 10.4412C151.901 10.6336 151.869 10.8579 151.741 10.9862C151.581 11.1144 151.357 10.9541 151.261 10.7938C151.069 10.4412 151.069 10.0245 151.005 9.60782C150.877 8.90262 150.652 8.16537 150.172 7.6525C149.724 7.17169 149.083 6.91525 148.411 6.75498C146.938 6.46649 145.433 6.49854 143.928 6.5306C143.544 6.56265 143.063 6.5306 142.775 6.85114C142.487 7.20374 142.551 7.71661 142.519 8.13332C142.519 12.4607 142.519 16.7559 142.519 21.0833C142.519 22.9424 142.519 24.8336 142.551 26.6928C142.583 27.3018 142.711 27.975 143.192 28.3917C143.736 28.8725 144.472 29.0328 145.177 29.0969C145.529 29.161 145.881 29.1289 146.234 29.2892C146.426 29.3854 146.522 29.6739 146.394 29.8341C146.17 30.0906 145.817 30.1226 145.529 30.0906C142.551 29.8662 139.541 29.8662 136.531 30.0265C136.083 30.0265 135.634 30.1547 135.186 30.0585C134.93 30.0265 134.674 29.8021 134.738 29.5136C134.802 29.2572 135.09 29.193 135.314 29.161C136.147 29.0328 137.043 29.0328 137.748 28.552C138.164 28.2635 138.452 27.8147 138.516 27.3018C138.677 26.5325 138.58 25.7312 138.612 24.9619C138.612 20.5384 138.612 16.1469 138.644 11.7234C138.644 10.4733 138.644 9.19111 138.644 7.94099C138.612 7.62044 138.644 7.23579 138.484 6.9473C138.292 6.65881 137.908 6.56265 137.588 6.56265C136.595 6.49854 135.57 6.5306 134.578 6.56265C133.777 6.59471 133.009 6.69087 132.24 6.9473C131.6 7.13963 130.991 7.52428 130.671 8.13332C130.223 8.87057 130.191 9.76809 130.031 10.5694C129.967 10.7938 129.871 11.0823 129.582 11.0503C129.262 11.0182 129.262 10.6015 129.262 10.3771C129.262 8.99878 129.262 7.62045 129.262 6.21005C129.262 5.85745 129.422 5.4728 129.775 5.40869ZM71.2075 5.56897C73.513 5.50486 75.8186 5.34458 78.1241 5.63307C79.437 5.8254 80.7819 6.14594 81.9347 6.8832C82.8953 7.49223 83.6318 8.4218 83.984 9.51165C84.3363 10.6977 84.4003 12.0119 84.1441 13.23C83.888 14.5762 83.1194 15.8264 81.9667 16.6277C80.6858 17.5573 79.1488 17.9099 77.6118 18.2304C80.2055 21.2756 82.7672 24.2887 85.3609 27.3339C86.0334 28.1032 86.8659 28.8084 87.8586 29.0648C88.7232 29.2251 89.6518 29.161 90.4844 28.8725C91.0928 28.6802 91.6051 28.1994 91.7652 27.5583C91.9894 26.6607 91.8933 25.7312 91.9253 24.8336C91.9253 19.7049 91.9253 14.5442 91.9253 9.41549C91.8933 8.67824 91.8933 7.81277 91.3489 7.23579C90.8046 6.65881 89.972 6.59471 89.2355 6.5306C88.8833 6.49854 88.5311 6.5306 88.2108 6.37032C88.0187 6.27416 87.9547 5.98567 88.1468 5.85746C88.5311 5.60102 89.0114 5.66513 89.4597 5.66513C92.3736 5.8254 95.2876 5.85745 98.2015 5.66513C98.5858 5.63307 99.002 5.60102 99.3543 5.76129C99.4824 5.8254 99.6745 5.92156 99.6425 6.11389C99.6425 6.30622 99.4183 6.40238 99.2582 6.46649C98.4577 6.62676 97.6251 6.56265 96.8566 6.8832C96.2802 7.13963 95.96 7.71661 95.8639 8.32564C95.7038 9.25522 95.7999 10.1848 95.7679 11.1464C95.7679 15.6981 95.7679 20.2178 95.7679 24.7695C95.7679 25.5709 95.7359 26.4043 95.8319 27.2057C95.896 27.7506 96.0881 28.2955 96.5684 28.6161C97.2409 29.0969 98.1054 29.193 98.906 29.2572C99.1301 29.2892 99.4183 29.3213 99.5784 29.5456C99.7065 29.7059 99.6425 29.9944 99.4503 30.0906C99.2262 30.2508 98.906 30.2188 98.6498 30.2188C94.5191 29.8982 90.3883 30.1226 86.2575 30.1547C85.3609 30.1547 84.4323 30.1867 83.5357 30.1867C83.0874 30.1867 82.5751 30.0906 82.2869 29.738C81.8386 29.2251 81.4223 28.6802 81.006 28.1352C78.7645 25.3145 76.523 22.5257 74.3136 19.7049C74.0894 19.4165 73.8332 19.16 73.481 19.0318C73.0007 18.8715 72.5204 18.9036 72.008 18.9036C72.008 21.2436 72.008 23.5835 72.008 25.9556C72.008 26.5646 72.008 27.2057 72.1681 27.7827C72.2962 28.2635 72.6485 28.6481 73.0968 28.8404C73.6731 29.0969 74.3136 29.161 74.922 29.2572C75.1461 29.2892 75.4023 29.3854 75.4984 29.6098C75.5944 29.77 75.4984 29.9944 75.3383 30.0906C75.0821 30.2188 74.7939 30.2188 74.5377 30.1867C71.7519 29.9944 68.934 29.9623 66.1481 30.1547C65.7318 30.1547 65.3156 30.2508 64.9313 30.1547C64.6751 30.0906 64.483 29.8021 64.6111 29.5777C64.8032 29.2572 65.1875 29.2572 65.5397 29.193C66.1481 29.1289 66.7885 29.0648 67.3009 28.6802C67.6531 28.4558 67.8773 28.0711 67.9733 27.6865C68.1334 27.0454 68.1014 26.3723 68.1014 25.7312C68.1014 20.2499 68.1014 14.8006 68.1014 9.31933C68.0694 8.58208 68.0694 7.71661 67.461 7.17169C66.8206 6.59471 65.956 6.62676 65.1555 6.5306C64.8993 6.49854 64.515 6.33827 64.6111 6.01773C64.7392 5.69718 65.1234 5.69718 65.3796 5.69718C67.3649 5.66513 69.2862 5.63307 71.2075 5.56897ZM72.3923 6.62676C72.0721 6.91525 72.0721 7.39606 72.0721 7.78072C72.0721 11.1464 72.0721 14.4801 72.0721 17.8458C73.0968 17.8458 74.1535 17.8458 75.1781 17.7176C76.427 17.5573 77.7078 17.2047 78.6685 16.3392C79.501 15.5699 79.8853 14.448 80.0134 13.3261C80.1094 12.2363 80.0774 11.1144 79.8212 10.0566C79.5651 8.96673 78.9246 7.94099 77.964 7.33196C76.6832 6.49854 75.1141 6.33827 73.6411 6.33827C73.1928 6.33827 72.7125 6.33827 72.3923 6.62676ZM12.064 5.88951C12.1921 5.56897 12.5764 5.56897 12.8646 5.56897C15.9706 5.76129 19.0767 5.76129 22.1508 5.56897C22.4069 5.53691 22.6951 5.56897 22.8552 5.79335C23.0153 5.98567 22.8873 6.24211 22.6631 6.30622C21.8626 6.5306 20.966 6.46649 20.2615 6.9473C19.8452 7.23579 19.6531 7.71661 19.557 8.16537C19.461 8.67824 19.461 9.22317 19.461 9.73604C19.461 12.076 19.461 14.416 19.461 16.7559C23.7839 16.7559 28.1067 16.7559 32.4296 16.7559C32.4296 14.448 32.4296 12.1401 32.4296 9.8322C32.4296 9.15906 32.4296 8.48591 32.2695 7.84483C32.1414 7.36401 31.7572 6.9473 31.2769 6.75498C30.6044 6.46649 29.8359 6.5306 29.1635 6.30622C28.9073 6.24211 28.8753 5.92156 29.0354 5.76129C29.2595 5.53691 29.5797 5.60102 29.8679 5.60102C32.8779 5.79335 35.92 5.79335 38.93 5.60102C39.1541 5.60102 39.3783 5.60102 39.6024 5.66513C39.7625 5.72924 39.8906 5.92156 39.8266 6.11389C39.7625 6.30622 39.5384 6.37033 39.3783 6.40238C38.6738 6.5306 37.9693 6.56265 37.3289 6.8832C36.9446 7.07552 36.6564 7.42812 36.5284 7.81277C36.3362 8.38975 36.3362 9.03084 36.3362 9.60782C36.3362 14.5762 36.3362 19.5447 36.3362 24.5131C36.3683 25.4747 36.2722 26.4364 36.4323 27.3659C36.4963 27.9429 36.8486 28.4878 37.3929 28.7443C38.0654 29.1289 38.8979 29.0007 39.6024 29.2572C39.8906 29.3533 39.9226 29.77 39.6985 29.9303C39.4423 30.1226 39.0901 30.0906 38.7699 30.0585C36.6885 29.8662 34.6071 29.8662 32.4937 29.8982C31.6291 29.9303 30.7645 29.9623 29.932 30.0585C29.6438 30.0906 29.2915 30.0906 29.0354 29.8982C28.8432 29.738 28.8432 29.3854 29.0674 29.2572C29.4196 29.0648 29.8359 29.0648 30.2202 29.0007C30.7965 28.9366 31.4049 28.7443 31.8532 28.3276C32.1094 28.0711 32.2695 27.6865 32.3336 27.3339C32.4296 26.6928 32.4296 26.0197 32.4296 25.3465C32.4296 22.8783 32.4296 20.4101 32.4296 17.942C28.1067 17.942 23.7839 17.942 19.461 17.942C19.461 20.6345 19.461 23.3271 19.461 26.0197C19.461 26.6607 19.461 27.3018 19.7492 27.8788C20.0053 28.4237 20.5497 28.7122 21.0941 28.8725C21.6064 29.0328 22.1828 28.9687 22.6951 29.161C22.9193 29.2571 23.0794 29.5136 22.9513 29.77C22.8232 29.9944 22.535 30.0265 22.3109 30.0585C21.7345 30.0585 21.1901 29.9623 20.6137 29.9303C18.0841 29.8021 15.5864 29.8341 13.0567 30.0265C12.7685 30.0585 12.4163 30.0906 12.1601 29.8982C11.936 29.7059 12 29.3533 12.2562 29.2251C12.6404 29.0648 13.0567 29.0648 13.441 29.0007C14.1454 28.9366 14.8819 28.6161 15.2342 27.975C15.5223 27.3659 15.5223 26.6928 15.5223 26.0197C15.5223 20.5384 15.5223 15.0891 15.5223 9.60782C15.5223 8.96673 15.5224 8.32564 15.3302 7.71661C15.1701 7.26785 14.8179 6.8832 14.3696 6.69087C13.7612 6.43443 13.0567 6.43443 12.4163 6.30622C12.2562 6.33827 12 6.14594 12.064 5.88951ZM42.2282 5.79335C42.4843 5.50486 42.9647 5.56897 43.3169 5.56897C48.2482 5.8254 53.1795 5.60102 58.1428 5.60102C58.8473 5.60102 59.5517 5.56896 60.2562 5.66513C60.5444 5.69718 60.8646 5.79335 60.9927 6.04978C61.1528 6.37032 61.0887 6.72292 61.0567 7.04347C60.9607 8.03715 60.9607 9.06289 61.0887 10.0566C61.1208 10.3771 61.1848 10.7618 60.8966 10.9862C60.6404 11.1464 60.2882 10.9541 60.2242 10.6656C60.0961 10.1527 60.0641 9.60782 59.8719 9.09495C59.5837 8.22948 58.8793 7.55634 58.0787 7.20374C57.4063 6.8832 56.6378 6.78703 55.9013 6.72292C54.6204 6.59471 53.3076 6.59471 51.9947 6.59471C51.4503 6.59471 50.938 6.5947 50.3936 6.65881C50.1374 6.69087 49.8493 6.81909 49.7212 7.07552C49.529 7.42812 49.5611 7.81277 49.5611 8.19742C49.529 11.0503 49.5611 13.9031 49.5611 16.7239C50.8739 16.6277 52.2188 16.5957 53.4356 16.0187C54.2362 15.634 54.8446 14.8647 55.1328 13.9993C55.2929 13.4864 55.3249 12.9415 55.485 12.4286C55.5491 12.2042 55.7092 11.9478 55.9973 11.9798C56.3176 12.0119 56.4457 12.3645 56.4457 12.653C56.4457 13.23 56.3816 13.8069 56.3496 14.3839C56.1895 16.5316 56.2855 18.6792 56.4777 20.8269C56.5097 21.1474 56.5417 21.532 56.2855 21.7564C56.1254 21.9167 55.8372 21.8205 55.7412 21.6282C55.5491 21.2436 55.517 20.7948 55.3889 20.4101C55.1328 19.5126 54.5564 18.6472 53.6918 18.2625C52.443 17.6855 51.034 17.7176 49.6891 17.7176C49.6891 19.7049 49.6571 21.6923 49.6571 23.7117C49.6571 24.6413 49.6571 25.5709 49.8172 26.4684C49.9133 27.0454 50.1695 27.6224 50.6178 28.007C51.0981 28.4237 51.7065 28.6481 52.3469 28.7443C53.2115 28.9046 54.1081 28.9046 55.0047 28.9046C56.0934 28.9046 57.1821 28.8725 58.2388 28.6161C59.1034 28.4237 59.936 27.975 60.5444 27.3018C61.0887 26.6607 61.409 25.8914 61.5691 25.058C61.6331 24.8016 61.6651 24.5131 61.8573 24.2887C61.9853 24.1285 62.3056 24.0643 62.4336 24.2567C62.5938 24.449 62.5938 24.7375 62.6258 24.9619C62.6578 26.1479 62.5297 27.3339 62.4977 28.5199C62.4977 28.8725 62.4977 29.2251 62.4336 29.5777C62.4016 29.8021 62.2095 29.9623 61.9853 29.9944C61.5691 30.0585 61.1528 30.0585 60.7365 30.0265C56.5737 29.9303 52.411 29.8662 48.2802 29.8662C46.551 29.8341 44.8539 29.9303 43.1568 30.0265C42.8366 30.0585 42.3883 29.9944 42.3242 29.6418C42.2282 29.3213 42.5804 29.1289 42.8366 29.0969C43.6371 28.9687 44.5657 28.9366 45.2062 28.3596C45.7825 27.8147 45.7825 26.9813 45.8146 26.244C45.8146 22.109 45.8146 17.974 45.8146 13.839C45.8146 12.2363 45.8146 10.6015 45.8146 8.99878C45.7825 8.26153 45.7505 7.42812 45.1101 6.9473C44.4376 6.40238 43.541 6.49854 42.7405 6.30622C42.3563 6.33827 42.036 6.04978 42.2282 5.79335ZM94.9033 34.6743C95.0314 34.4179 95.3196 34.1615 95.6398 34.2897C95.992 34.45 96.1201 34.8346 96.2482 35.1552C98.6178 41.1173 100.955 47.0794 103.325 53.0415C103.773 54.1634 104.189 55.3174 104.734 56.4072C105.086 57.0483 105.502 57.7214 106.175 58.074C106.623 58.3305 107.167 58.3946 107.68 58.4907C107.936 58.5549 108.224 58.5869 108.384 58.8113C108.512 58.9716 108.448 59.1959 108.288 59.2921C108.032 59.4844 107.68 59.4524 107.392 59.4524C105.534 59.3562 103.645 59.228 101.788 59.3562C100.731 59.4203 99.6745 59.5165 98.6178 59.5165C98.3296 59.5165 97.9773 59.4844 97.7532 59.2601C97.5931 59.0998 97.6571 58.8433 97.8493 58.7472C98.1695 58.5549 98.5537 58.5549 98.938 58.4907C99.4183 58.4266 99.9627 58.3305 100.379 58.0099C100.699 57.7535 100.763 57.2727 100.699 56.888C100.603 56.1828 100.379 55.4776 100.123 54.8045C99.5784 53.3941 99.0661 51.9837 98.5217 50.5733C95.4797 50.5733 92.4697 50.5733 89.4277 50.5733C88.9153 51.8875 88.3709 53.1697 87.8586 54.4839C87.5704 55.2212 87.3463 55.9905 87.3783 56.7919C87.3783 57.1765 87.5384 57.5612 87.8266 57.8497C88.2429 58.2343 88.7872 58.4266 89.3316 58.5549C89.5557 58.619 89.8119 58.651 90.004 58.7792C90.1641 58.9075 90.2282 59.1959 90.0681 59.3242C89.7479 59.5806 89.3316 59.4844 88.9794 59.4844C87.9547 59.3883 86.93 59.2921 85.8733 59.2921C84.9447 59.2921 84.016 59.3883 83.0874 59.4203C82.7672 59.4203 82.415 59.4524 82.1588 59.228C81.9667 59.0677 81.9987 58.7151 82.2549 58.619C82.6711 58.4587 83.1194 58.3946 83.5357 58.2664C84.2082 58.1061 84.8166 57.6573 85.2329 57.1124C85.8413 56.3111 86.2255 55.4135 86.6098 54.4839C89.1715 48.3936 91.7012 42.3033 94.2629 36.2129C94.455 35.7001 94.6471 35.1872 94.9033 34.6743ZM94.1028 39.1299C92.6938 42.5277 91.2849 45.9575 89.8439 49.3552C92.5978 49.3552 95.3196 49.3552 98.0734 49.3552C96.7605 45.9575 95.4477 42.5277 94.1028 39.1299ZM105.31 34.7385C105.695 34.6423 106.079 34.7064 106.495 34.7385C110.177 34.9308 113.892 34.9949 117.606 34.9628C120.456 34.9628 123.306 34.8987 126.156 34.7064C126.508 34.7064 126.925 34.6743 127.213 34.9308C127.469 35.1872 127.437 35.5719 127.437 35.9245C127.405 37.0464 127.437 38.2003 127.437 39.3222C127.437 39.6428 127.501 40.0274 127.309 40.3159C127.181 40.4762 126.925 40.4121 126.829 40.2518C126.668 39.9954 126.636 39.6748 126.572 39.3863C126.476 38.617 126.284 37.8157 125.804 37.1746C125.388 36.6297 124.715 36.3091 124.043 36.1809C122.57 35.8604 121.033 35.9245 119.528 35.9245C119.111 35.9565 118.599 35.9245 118.279 36.2771C118.023 36.6617 118.087 37.1425 118.055 37.5913C118.055 43.329 118.055 49.0347 118.087 54.7724C118.087 55.5738 118.023 56.3752 118.311 57.1445C118.535 57.7535 119.079 58.1061 119.688 58.2984C120.328 58.5228 121.001 58.4587 121.673 58.619C121.961 58.651 122.153 59.0357 121.929 59.2601C121.545 59.5806 121.001 59.4844 120.552 59.4524C117.414 59.228 114.276 59.2601 111.17 59.4844C110.882 59.4844 110.53 59.4844 110.37 59.228C110.21 59.0357 110.306 58.7472 110.53 58.651C110.914 58.4907 111.33 58.5228 111.715 58.4587C112.419 58.3946 113.22 58.2023 113.7 57.6253C114.148 57.0804 114.18 56.3111 114.212 55.6379C114.212 49.804 114.244 43.9381 114.244 38.1042C114.244 37.6233 114.244 37.1105 114.18 36.6297C114.116 36.2771 113.796 36.0847 113.444 36.0206C112.867 35.9245 112.291 35.9565 111.715 35.9245C110.69 35.9565 109.697 35.9565 108.705 36.1168C108 36.245 107.296 36.4373 106.719 36.9181C106.271 37.3028 106.015 37.8798 105.887 38.4247C105.759 38.9376 105.727 39.4825 105.598 39.9954C105.534 40.1877 105.406 40.4441 105.182 40.4121C104.862 40.348 104.862 39.9633 104.862 39.7389C104.862 38.3606 104.862 36.9823 104.862 35.5719C104.702 35.1552 104.926 34.8026 105.31 34.7385ZM129.839 34.7385C130.063 34.6743 130.319 34.6743 130.575 34.7064C135.026 34.9628 139.477 34.9949 143.96 34.9308C145.977 34.8987 147.995 34.8346 150.012 34.7385C150.524 34.7385 151.069 34.6102 151.581 34.8026C151.901 34.9308 151.965 35.2834 151.997 35.6039C151.965 36.8861 151.965 38.1683 151.997 39.4504C151.997 39.7389 152.029 40.0595 151.869 40.2839C151.709 40.4762 151.453 40.348 151.357 40.1877C151.165 39.8672 151.165 39.4825 151.101 39.1299C151.005 38.4247 150.781 37.6875 150.332 37.1105C149.916 36.5976 149.244 36.3091 148.603 36.1488C147.675 35.9565 146.746 35.8924 145.785 35.8924C145.017 35.8924 144.28 35.8604 143.512 35.9245C143.16 35.9565 142.775 36.1168 142.679 36.5014C142.551 37.0784 142.615 37.6554 142.583 38.2324C142.583 43.9701 142.583 49.6758 142.615 55.4135C142.615 56.0867 142.583 56.7919 142.967 57.4009C143.288 57.9138 143.896 58.2023 144.472 58.3305C145.017 58.4587 145.561 58.4266 146.105 58.5549C146.33 58.5869 146.522 58.7792 146.49 59.0357C146.426 59.2601 146.202 59.3883 145.977 59.4203C145.561 59.4844 145.113 59.4203 144.697 59.3883C141.687 59.1959 138.644 59.228 135.634 59.4524C135.314 59.4844 134.802 59.3883 134.77 58.9716C134.77 58.619 135.186 58.5228 135.474 58.4907C136.371 58.3946 137.332 58.3625 138.036 57.7214C138.644 57.1765 138.677 56.3111 138.677 55.5738C138.677 49.7399 138.709 43.9381 138.709 38.1042C138.709 37.5913 138.741 37.0464 138.644 36.5335C138.58 36.1809 138.228 35.9886 137.908 35.9245C137.332 35.8283 136.755 35.8604 136.179 35.8604C135.154 35.8924 134.097 35.8924 133.073 36.0847C132.368 36.213 131.632 36.4373 131.087 36.9502C130.575 37.431 130.351 38.1362 130.223 38.8094C130.127 39.2261 130.127 39.6428 129.999 40.0595C129.935 40.2518 129.807 40.4441 129.582 40.38C129.262 40.3159 129.294 39.9313 129.262 39.7069C129.262 38.3285 129.262 36.9502 129.262 35.5398C129.262 35.1872 129.486 34.8026 129.839 34.7385ZM12.032 34.7385C24.6164 34.7385 37.2328 34.7385 49.8172 34.7385C49.8172 38.9376 49.8172 43.1367 49.8172 47.3038C49.8172 51.1824 49.2408 55.0609 47.8959 58.7151C46.3589 62.9784 43.7011 66.8569 40.2108 69.7739C38.3536 71.3446 36.3042 72.6588 34.0947 73.7166C33.1341 74.1653 32.1094 74.582 31.0847 74.8705C30.8606 74.9667 30.6685 74.8705 30.4443 74.8064C28.1067 74.0692 25.8973 72.9152 23.8479 71.5369C21.7345 70.0944 19.8132 68.3314 18.2121 66.3441C16.451 64.1964 15.0741 61.7603 14.0814 59.1639C12.7685 55.7661 12.1281 52.1119 12.032 48.4577C12 46.9832 12.032 45.4767 12 44.0022C12.032 40.9249 12.032 37.8157 12.032 34.7385ZM13.2488 35.9565C13.2488 37.5592 13.2488 39.1299 13.2488 40.7326C15.2662 40.7326 17.3155 40.7326 19.3329 40.7326C19.461 40.2518 19.9413 39.9633 20.4216 40.0274C20.3256 39.5146 20.4216 38.9376 20.7739 38.5529C21.1261 38.1362 21.7985 38.0721 22.2148 38.4247C22.439 38.585 22.503 38.8414 22.5991 39.0978C22.8873 38.9696 23.1755 38.9696 23.4636 39.0658C23.6878 38.9055 23.9119 38.7452 24.2001 38.7132C24.6164 38.6491 25.0647 38.9376 25.1928 39.3222C25.2889 39.5787 25.2248 39.8351 25.1928 40.0915C25.481 40.0915 25.7692 40.2197 25.9933 40.4121C26.0894 40.38 26.2175 40.348 26.3135 40.3159C26.1214 39.803 26.1534 39.1299 26.5697 38.7132C26.7618 38.4888 27.05 38.4568 27.3382 38.4247C27.4023 38.0401 27.5624 37.6554 27.9146 37.4631C28.491 37.1425 29.2915 37.3669 29.6438 37.9118C29.8999 38.2644 29.996 38.7452 29.8999 39.194C30.1241 39.3222 30.2842 39.4825 30.4123 39.7069C30.3803 38.4568 30.4123 37.1746 30.4123 35.9245C24.6805 35.9565 18.9486 35.9565 13.2488 35.9565ZM31.437 35.9565C31.437 39.5146 31.437 43.0726 31.437 46.5986C37.1688 46.5986 42.9006 46.5986 48.6324 46.5986C48.6324 43.0405 48.6324 39.4825 48.6324 35.9565C42.9006 35.9565 37.1688 35.9565 31.437 35.9565ZM28.1708 38.0721C27.9146 38.3285 27.8826 38.7452 28.0107 39.0978C28.1067 39.3222 27.8186 39.5787 27.5944 39.4504C27.4663 39.3543 27.3703 39.194 27.2742 39.0978C27.1141 39.0658 26.954 39.194 26.8899 39.3543C26.6978 39.7389 26.8579 40.1556 27.1461 40.4121C27.3382 40.5403 27.2742 40.8608 27.05 40.9249C26.7939 40.957 26.5377 40.9249 26.3135 40.957C26.4096 41.2455 26.4737 41.566 26.5057 41.8545C26.922 41.8225 27.3382 41.9186 27.6905 42.143C27.9466 42.3033 28.0747 42.6238 28.1708 42.9123C28.523 42.8162 28.9073 42.9444 29.0994 43.2649C29.4516 43.8739 29.3556 44.6112 29.1314 45.2202C29.6117 45.1882 30.1241 45.3484 30.3482 45.7972C30.3162 45.3164 30.3803 44.8035 30.2202 44.3227C30.1241 44.0022 29.6438 44.1624 29.5797 43.8098C29.5157 43.4572 29.996 43.4572 30.0921 43.1688C30.2522 42.8162 30.2202 42.4315 30.2202 42.0789C30.2202 41.8225 30.1561 41.534 29.8999 41.3737C29.6117 41.2134 29.2915 41.3417 29.0033 41.2775C28.7792 41.1814 28.7472 40.7967 29.0033 40.7006C29.2275 40.6365 29.4516 40.6685 29.6438 40.5723C29.8039 40.5082 29.8679 40.348 29.996 40.2197C29.8999 40.0274 29.8679 39.803 29.6438 39.7389C29.4516 39.6748 29.1314 39.7389 29.0354 39.4825C28.9713 39.2581 29.1635 39.1299 29.3236 39.0017C29.3556 38.7453 29.3236 38.4568 29.1635 38.2324C28.9073 38.0401 28.491 37.8798 28.1708 38.0721ZM21.2542 38.9696C21.062 39.194 20.998 39.4825 20.998 39.771C20.998 40.1877 21.3823 40.5082 21.2542 40.9249C21.1261 40.957 20.998 40.957 20.8699 40.9891C20.6458 40.8608 20.4536 40.7647 20.2295 40.6365C20.1334 40.7006 19.9733 40.7326 19.9413 40.8929C19.8773 41.0852 19.9733 41.2775 20.0374 41.4378C20.3256 41.4378 20.6458 41.4378 20.8699 41.6301C21.3182 41.9507 21.4143 42.5597 21.4783 43.0726C21.6384 43.0405 21.8306 43.0405 21.9907 43.0405C22.1508 42.752 22.471 42.5918 22.7912 42.5277C22.4069 42.111 21.9907 41.566 22.1828 40.957C22.2468 40.5723 22.6311 40.3159 23.0153 40.3159C22.9833 40.0595 23.0474 39.803 23.0794 39.5466C22.7592 39.6748 22.503 39.9954 22.1187 39.9633C21.9586 39.7069 22.0227 39.3863 21.9586 39.0658C21.8946 38.8094 21.4783 38.7452 21.2542 38.9696ZM23.6878 40.2839C23.7518 40.5403 23.7839 40.7647 23.7198 41.0211C23.5277 41.0532 23.3676 41.0852 23.1755 41.0211C23.0794 41.0211 22.9193 40.8929 22.8552 41.0532C22.6951 41.3737 22.9193 41.6622 23.1114 41.9186C23.3676 42.2712 23.8159 42.4315 23.9119 42.8482C23.8159 42.9123 23.7518 43.0085 23.6558 43.0726C23.3035 43.1046 22.9193 43.1046 22.5991 43.2649C22.9193 43.5855 23.0153 44.0663 23.0153 44.515C23.3035 44.8356 23.6238 45.06 23.944 45.3484C24.3602 45.2843 24.8726 45.3484 25.1608 45.701C25.2889 45.8613 25.3209 46.0857 25.3849 46.278C25.5771 46.278 25.7372 46.3101 25.9293 46.3421C25.417 45.7972 25.0327 45.092 25.0327 44.3227C25.0327 43.9701 25.2568 43.7137 25.5771 43.5534C25.481 43.329 25.3849 43.1046 25.449 42.8803C25.481 42.5918 25.6731 42.3674 25.8973 42.2071C25.9293 41.8225 25.8973 41.4058 25.7051 41.0532C25.6091 40.9249 25.481 40.7647 25.3209 40.7647C25.1288 40.7967 24.9687 40.8608 24.7765 40.9249C24.6484 40.8929 24.5204 40.8608 24.4243 40.8288C24.3282 40.38 24.7765 40.0274 24.6805 39.5466C24.6484 39.4184 24.5204 39.3543 24.3923 39.3222C23.8799 39.3543 23.5917 39.8672 23.6878 40.2839ZM13.2168 41.8545C13.2168 43.4252 13.2168 44.9959 13.2168 46.5665C14.2095 46.5665 15.2021 46.5665 16.1948 46.5665C16.2909 46.3742 16.4189 46.1819 16.5791 46.0536C17.1234 45.6369 18.052 45.8613 18.3082 46.5345C18.6284 46.5345 18.9486 46.5665 19.2368 46.4383C18.8846 46.1178 18.5003 45.7331 18.4363 45.2523C18.3402 44.6753 18.7245 44.0663 19.2688 43.874C19.0127 43.2329 18.8526 42.4636 19.2368 41.8225C17.2515 41.8866 15.2342 41.8545 13.2168 41.8545ZM19.7812 42.2392C19.5891 42.5597 19.6531 42.9764 19.7812 43.329C19.8773 43.6816 20.1014 44.0342 20.0374 44.4189C19.8773 44.4509 19.6851 44.515 19.525 44.5471C19.3009 44.5791 19.1728 44.8035 19.1087 44.9959C19.0447 45.3164 19.2368 45.6369 19.493 45.8613C19.7171 46.0857 20.0374 46.1819 20.2935 46.3421C20.4857 46.4704 20.4536 46.7909 20.2295 46.855C19.9093 46.9512 19.525 46.9512 19.3329 47.2397C19.461 47.3999 19.557 47.5602 19.6211 47.7525C19.6531 47.8487 19.6851 48.009 19.8132 48.041C20.1014 48.1372 20.4216 48.1051 20.7098 48.2654C21.1261 48.5218 21.3502 49.0668 21.3182 49.5476C21.2862 49.9002 20.8699 49.9643 20.5817 50.0284C20.8379 50.6374 21.4783 50.958 22.0867 51.1824C22.3109 50.99 22.5991 50.958 22.8873 51.0221C22.7592 50.7336 22.6951 50.381 22.8232 50.0604C22.8873 49.772 23.1755 49.6117 23.4316 49.4514C22.8873 49.1309 22.3429 48.5539 22.503 47.8807C22.535 47.5602 22.8232 47.3358 23.1114 47.2717C22.8873 46.7909 22.9513 46.278 23.2075 45.8293C23.0794 45.7652 22.8873 45.6369 22.7272 45.7331C22.471 45.8613 22.2148 45.9895 21.9266 45.9254C21.9266 45.7972 21.8946 45.6369 21.8946 45.5087C22.1828 45.1241 22.4069 44.7074 22.3429 44.2265C22.3429 43.906 22.0867 43.6175 21.7665 43.6816C21.5424 43.7778 21.3182 43.9381 21.062 44.0022C20.998 43.8739 20.8699 43.7137 20.8699 43.5534C20.8379 43.0405 20.8059 42.5277 20.4857 42.111C20.2615 42.0789 19.9413 42.0148 19.7812 42.2392ZM26.0574 42.8482C25.9293 43.0085 26.0574 43.2329 26.1855 43.3611C26.4096 43.5855 26.6978 43.6816 26.954 43.874C27.1781 44.0983 26.8899 44.483 26.6338 44.3548C26.3456 44.2907 25.9613 44.0022 25.6731 44.1945C25.5771 44.7074 25.8653 45.2202 26.1855 45.6369C26.3776 45.9254 26.6658 46.1178 26.922 46.3101C27.0821 46.4062 27.0821 46.6627 26.954 46.7909C26.8259 46.9191 26.6338 46.855 26.4416 46.855C26.6978 47.3999 26.7618 48.009 26.7298 48.618C27.1141 48.4577 27.5944 48.6501 27.8186 48.9706C28.0747 49.4514 27.9146 49.9963 27.8506 50.4771C28.1708 50.2848 28.5871 50.2207 28.9073 50.4451C29.4837 50.8298 29.6438 51.567 29.7078 52.2081C29.996 51.7593 30.1561 51.2144 30.2842 50.7015C30.3803 50.3489 30.4443 49.9643 30.3482 49.5796C30.2522 49.2591 30.0921 48.9065 29.7398 48.7462C29.6117 48.6821 29.4516 48.618 29.4837 48.4577C29.4837 47.9128 29.932 47.432 29.8679 46.8871C29.8359 46.6306 29.8039 46.3421 29.6758 46.1178C29.5797 45.8934 29.2595 45.8934 29.0354 45.9254C28.7151 45.9575 28.3949 46.278 28.0747 46.0857C28.0747 45.8613 28.0747 45.6369 28.2028 45.4767C28.555 44.9317 28.8112 44.0983 28.3629 43.5214C28.1067 43.7137 27.8506 43.906 27.4983 43.906C27.2422 43.5855 27.5944 43.1046 27.3382 42.7841C27.018 42.4315 26.3456 42.3994 26.0574 42.8482ZM23.6238 46.3742C23.3996 46.8871 24.008 47.2717 23.944 47.7846C23.6878 47.9128 23.3996 47.8807 23.1434 47.9449C23.0153 48.0731 23.0794 48.2654 23.1434 48.3616C23.4316 48.8103 23.944 49.0347 24.3923 49.227C24.6164 49.3232 24.6164 49.6437 24.4243 49.772C24.1041 49.9322 23.7198 49.9643 23.4316 50.1887C23.2715 50.381 23.3356 50.7015 23.5277 50.8618C23.8799 51.2144 24.3923 51.3747 24.8726 51.567C25.0327 51.6311 25.1608 51.8875 25.0327 52.0158C24.8726 52.2081 24.7125 52.4004 24.6164 52.6248C24.7445 52.721 24.8406 52.8812 25.0007 52.8812C25.3209 52.9133 25.6411 52.8171 25.9613 52.8492C26.1214 53.1377 26.2175 53.4582 26.5057 53.6185C27.2422 54.0031 28.1067 54.0993 28.9073 53.9711C29.0674 53.33 29.0674 52.6889 29.0033 52.0478C28.9393 51.6311 28.8112 51.1503 28.3949 50.99C28.1067 51.0541 28.0427 51.4067 27.8186 51.567C27.7225 51.535 27.5944 51.5029 27.4983 51.4388C27.3703 51.2144 27.2101 50.958 27.2101 50.7015C27.1781 50.3169 27.3062 49.9322 27.3062 49.5476C27.3062 49.4514 27.3062 49.3232 27.1781 49.2591C26.954 49.1309 26.7618 49.3552 26.6017 49.4514C26.4416 49.5796 26.0894 49.6437 26.0254 49.3552C26.0254 48.9065 26.1214 48.4577 26.0574 48.009C25.9933 47.6564 25.9613 47.2397 25.6731 46.9512C25.449 46.7909 25.2889 47.1114 25.1288 47.2076C25.0007 47.2076 24.8726 47.2397 24.7445 47.2397C24.4883 46.8871 24.8406 46.4062 24.5844 46.0536C24.3282 45.7652 23.7518 45.9895 23.6238 46.3742ZM16.8672 46.7268C16.7712 46.9191 16.7712 47.1756 16.8352 47.3679C16.9313 47.6243 17.2195 47.6884 17.3796 47.8807C17.4436 48.009 17.4757 48.1372 17.5397 48.2333C17.2835 48.5859 16.7392 48.3295 16.451 48.6501C16.2909 48.9385 16.3229 49.3232 16.5791 49.5476C16.9633 49.9322 17.5077 50.0284 18.02 50.1566C18.2442 50.1887 18.3402 50.4772 18.2121 50.6695C18.02 50.8618 17.6358 50.8298 17.5077 51.0862C17.3476 51.3747 17.6037 51.6311 17.8279 51.8234C18.3402 52.3043 19.0767 52.3363 19.6531 52.6889C19.6851 52.3363 19.9413 52.0158 20.2935 51.9196C20.8379 51.7593 21.4143 51.9196 21.9266 52.0478C21.8946 51.9517 21.8946 51.8875 21.8946 51.7914C21.4143 51.6632 20.998 51.3747 20.6137 51.0862C20.2615 50.7977 19.9733 50.381 19.9733 49.9002C20.0374 49.5476 20.3896 49.3873 20.7098 49.3232C20.6458 49.0347 20.4216 48.6821 20.0694 48.7142C19.7171 48.8744 19.6211 49.2591 19.3329 49.4835C19.2048 49.5796 19.0447 49.4835 18.9166 49.4514C18.8526 49.0347 19.2368 48.7142 19.1087 48.2975C19.0447 48.0731 19.0127 47.6884 18.7245 47.6243C18.4363 47.6564 18.1801 47.7846 17.8919 47.8487C17.6358 47.5281 17.924 47.0794 17.7318 46.7588C17.5717 46.4704 17.0594 46.4383 16.8672 46.7268ZM13.2488 47.7205C13.2809 49.3232 13.3769 50.8939 13.6011 52.4966C14.978 52.4966 16.3229 52.4966 17.6998 52.4966C17.3155 52.2401 16.9313 51.8875 16.8352 51.4067C16.7712 51.0862 16.8993 50.7977 17.0594 50.5413C16.6751 50.413 16.2909 50.2207 16.0347 49.9002C15.6504 49.4835 15.6184 48.8103 15.9066 48.3295C16.0347 48.1372 16.2268 48.009 16.4189 47.8807C16.3869 47.8166 16.3549 47.7846 16.2909 47.7205C15.2982 47.7205 14.2735 47.7205 13.2488 47.7205ZM31.437 47.7525C31.437 47.8807 31.437 48.009 31.437 48.1372C31.6931 48.2654 31.8212 48.5539 32.0774 48.6821C32.3336 48.8103 32.5897 48.9065 32.8139 49.0668C33.2302 49.3873 33.4863 49.9322 33.3903 50.4451C33.2942 50.958 32.9099 51.3106 32.5577 51.6632C32.6538 51.7914 32.7498 51.8875 32.8779 51.9517C33.1341 51.5349 33.3262 51.0541 33.7425 50.7977C34.2228 50.4771 34.8953 50.5733 35.3436 50.9259C35.5677 51.0862 35.7278 51.3426 35.984 51.5029C36.1761 51.5991 36.4003 51.6311 36.5604 51.7914C36.4963 51.9517 36.4323 52.144 36.3362 52.3043C36.1761 52.5927 36.2082 52.9133 36.1121 53.2338C35.952 53.7788 35.5037 54.2596 34.9273 54.2916C34.415 54.3557 33.9667 54.0993 33.5504 53.8749C33.4543 54.0031 33.3903 54.1314 33.4223 54.2916C33.8386 54.3557 34.2869 54.4198 34.6711 54.6763C35.0874 54.9327 35.2795 55.4456 35.2155 55.9264C35.1835 56.2469 35.0554 56.5354 34.8953 56.7919C34.7031 57.0804 34.7672 57.433 34.6711 57.7535C34.447 57.7535 34.1908 57.6894 33.9667 57.6573C33.6464 57.6573 33.3262 57.7856 32.974 57.7535C32.4617 57.7214 31.9493 57.3688 31.7892 56.856C31.6291 56.4393 31.7252 56.0226 31.7572 55.6059C31.7892 55.4456 31.5651 55.4456 31.469 55.3815C31.437 56.1828 31.469 57.0162 31.437 57.8176C31.437 58.042 31.469 58.2343 31.5651 58.4587C36.6244 58.4587 41.6838 58.4587 46.7432 58.4587C47.992 55.0609 48.5364 51.4067 48.6004 47.7846C42.8686 47.7525 37.1688 47.7525 31.437 47.7525ZM31.437 49.0027C31.437 50.6054 31.437 52.2401 31.437 53.8429C31.6931 53.7467 31.9493 53.5864 32.0134 53.2659C32.1094 52.9453 31.9173 52.6568 31.6931 52.4325C32.1094 52.5607 32.4617 52.8812 32.4617 53.33C32.4937 53.8749 31.9493 54.2916 31.437 54.2596C31.437 54.3878 31.437 54.5481 31.437 54.6763C31.7572 54.7083 32.1414 54.8045 32.3015 55.125C32.4617 55.4456 32.3015 55.7982 32.3015 56.1508C32.2695 56.4713 32.3656 56.8239 32.6858 56.9521C33.1341 57.1765 33.6464 56.888 34.1268 56.9521C34.2228 56.4713 34.6391 56.1187 34.5751 55.6059C34.543 55.2853 34.2548 55.0609 33.9667 54.9648C33.6144 54.8365 33.1661 54.9007 32.942 54.5801C32.5897 54.0993 32.8459 53.33 33.4223 53.2018C33.8386 53.1377 34.1588 53.4582 34.5751 53.5544C34.8312 53.6505 35.1514 53.5864 35.3436 53.362C35.6638 53.0094 35.5677 52.4645 35.7278 52.0478C35.3116 51.8234 35.1194 51.3106 34.6391 51.2144C34.3189 51.1182 33.9987 51.3106 33.8386 51.567C33.6144 51.8555 33.5504 52.3043 33.1341 52.4645C32.5897 52.6569 31.9493 52.2081 31.9493 51.6311C31.9493 51.2144 32.3656 51.0221 32.5577 50.7015C32.7498 50.4451 32.8459 50.0925 32.6538 49.804C32.3976 49.3553 31.8212 49.3232 31.437 49.0027ZM22.535 51.5991C22.503 52.0158 22.7592 52.4325 22.5991 52.8171C22.439 52.8171 22.2468 52.8492 22.0867 52.753C21.6384 52.5607 21.1581 52.4004 20.6458 52.4325C20.5177 52.4325 20.4216 52.5286 20.2935 52.5927C20.3576 52.753 20.4536 52.9133 20.5177 53.0736C20.4216 53.2338 20.3256 53.3941 20.1654 53.4262C19.6211 53.6505 19.0127 53.5223 18.4363 53.4262C18.2121 53.3941 17.8599 53.3941 17.7638 53.6826C17.8599 53.8429 17.988 54.0352 18.0841 54.1955C17.8919 54.484 17.5077 54.6122 17.3155 54.9007C17.1875 55.0609 17.0594 55.2853 17.0914 55.5097C17.1234 55.7341 17.4116 55.7982 17.6037 55.7982C18.052 55.702 18.2121 55.125 18.6925 55.0289C19.0767 55.2853 18.9486 55.7982 19.2048 56.1187C19.3009 56.2469 19.525 56.2469 19.6531 56.1508C20.0053 55.9264 20.1654 55.5097 20.1975 55.125C20.2295 54.7724 20.5177 54.4519 20.8699 54.3557C21.3823 54.2275 21.8946 54.4198 22.4069 54.4198C22.2468 54.0352 22.3429 53.5864 22.6311 53.2979C23.0153 52.8812 23.5917 52.753 24.1041 52.753C23.976 51.9837 23.1755 51.7273 22.535 51.5991ZM29.7398 52.8492C29.7078 53.2979 29.6758 53.7788 29.5477 54.1955C29.5157 54.3237 29.4196 54.4198 29.3236 54.4839C28.7152 54.7083 28.0427 54.6442 27.4023 54.5481C28.1067 55.1571 28.8432 55.8302 29.1955 56.6957C29.4196 57.2086 29.4516 57.7535 29.5477 58.2664C29.6758 58.9716 29.6438 59.6768 29.6438 60.382C29.6117 61.2154 29.5477 62.0488 29.4516 62.8822C29.3876 63.2669 29.3236 63.6836 29.0994 64.0041C28.7792 64.4849 28.555 65.0298 28.1388 65.4465C27.7225 65.8633 27.1461 66.0876 26.6338 66.3441C26.0894 66.6326 25.449 66.8569 25.0967 67.4019C25.3849 67.2736 25.7051 67.1454 26.0254 67.1134C26.4737 67.0493 26.922 67.1454 27.3382 67.0172C27.8186 66.8249 28.2348 66.4723 28.5871 66.1197C28.7472 66.0876 28.8753 66.0876 29.0354 66.0556C29.0674 66.1838 29.1635 66.312 29.0994 66.4402C28.8432 67.2095 28.1708 67.7224 27.8186 68.4276C27.5944 68.8443 27.5304 69.2931 27.4343 69.7418H27.4663C27.7545 69.1969 28.1067 68.6199 28.6191 68.2353C29.1314 67.8186 29.7719 67.6904 30.4123 67.6904C30.4123 62.5296 30.4123 57.3688 30.4123 52.2081C30.2842 52.5927 30.06 52.8171 29.7398 52.8492ZM23.3356 53.5223C23.1114 53.6185 22.8232 53.8429 22.9513 54.1314C23.1114 54.3237 23.3356 54.4839 23.3996 54.7404C23.2715 54.8686 23.1755 55.0289 22.9833 55.0289C22.471 55.1571 21.9266 55.0609 21.3823 54.9968C21.1901 54.9648 20.9019 54.9648 20.8059 55.1891C20.7098 55.3494 20.8379 55.4776 20.934 55.6059C21.1261 55.7982 21.3823 55.7982 21.6064 55.9264C21.7985 56.0226 21.7665 56.3431 21.5744 56.4393C21.2222 56.6316 20.8699 56.7598 20.5177 56.9842C20.2295 57.1765 19.9733 57.5291 20.1014 57.9138C20.1654 58.2343 20.6458 58.074 20.7739 58.3305C20.8699 58.5549 20.7418 58.8433 20.5497 59.0036C20.4216 59.1639 20.2295 59.2921 20.2295 59.4844C20.2295 59.6127 20.2295 59.7409 20.3256 59.805C20.6458 59.9652 20.998 59.837 21.2222 59.6126C21.3182 59.2921 21.2542 58.9075 21.4463 58.619C21.5424 58.4266 21.7665 58.3946 21.9586 58.2984C22.1828 58.4266 22.3429 58.619 22.535 58.8113C22.7592 59.0357 23.1114 58.8433 23.2075 58.619C23.3356 58.2984 23.3035 57.9138 23.4636 57.5932C23.5597 57.433 23.7198 57.2406 23.9119 57.3047C24.2322 57.3047 24.3602 57.6573 24.6805 57.6894C24.8726 57.7535 25.1288 57.6573 25.2248 57.465C25.481 56.9201 25.513 56.2469 25.9293 55.7661C26.1855 55.4135 26.5697 55.2533 26.986 55.125C26.4096 54.6442 25.7692 54.2275 25.1288 53.8429C24.6164 53.4903 23.944 53.2338 23.3356 53.5223ZM13.8252 53.6505C14.1134 55.2853 14.5617 56.856 15.1061 58.4266C16.6751 58.4266 18.2121 58.4266 19.7812 58.4266C19.3329 58.0099 19.3969 57.2727 19.7492 56.7919C19.461 56.856 19.1728 56.888 18.9166 56.7278C18.6604 56.5675 18.5324 56.279 18.4363 56.0226C18.2121 56.2149 17.956 56.4072 17.6358 56.4072C17.1234 56.4713 16.547 56.1187 16.451 55.5738C16.3869 54.9648 16.7712 54.4198 17.2195 54.0672C17.1875 53.907 17.1234 53.7788 17.0914 53.6185C16.0027 53.6505 14.9139 53.6185 13.8252 53.6505ZM26.4737 56.0226C26.0254 56.5675 26.0894 57.3688 25.6411 57.9138C25.2248 58.3625 24.4563 58.3625 24.04 57.9458C24.008 58.1061 23.976 58.2343 23.976 58.3946C25.6411 58.3946 27.3062 58.3946 28.9713 58.3946C28.8753 57.8817 28.8432 57.3368 28.6191 56.856C28.3949 56.3752 28.0427 55.9585 27.6584 55.5738C27.2101 55.67 26.7298 55.67 26.4737 56.0226ZM20.4536 56.2149C20.5497 56.279 20.7098 56.1508 20.6137 56.0546C20.5177 55.9585 20.3576 56.1187 20.4536 56.2149ZM15.5544 59.5165C16.2588 61.1833 17.1234 62.786 18.1801 64.2605C21.5103 64.2605 24.8726 64.2605 28.2028 64.2605C28.3309 64.0362 28.459 63.8438 28.5871 63.6194C28.7152 63.363 28.7472 63.0745 28.8112 62.8181C28.9713 61.7282 29.0354 60.6063 29.0354 59.5165C26.6658 59.5165 24.3282 59.5165 21.9586 59.5165C21.7665 60.3499 20.6137 60.7025 19.9413 60.1896C19.7492 60.0294 19.6851 59.7409 19.6211 59.5165C18.2762 59.5485 16.8993 59.5165 15.5544 59.5165ZM31.9493 59.5165C32.4617 61.0872 32.974 62.6258 33.5184 64.1964C34.8633 64.1964 36.1761 64.1964 37.521 64.1964C37.6811 64.1644 37.7772 64.2926 37.8733 64.3888C37.8092 64.549 37.7772 64.7734 37.5851 64.8696C36.5604 65.6389 35.5037 66.3761 34.479 67.1454C34.8312 68.3314 35.1835 69.4854 35.5037 70.6394C35.5677 70.7996 35.4717 70.9599 35.4396 71.1202C35.2795 71.1202 35.0874 71.1522 34.9273 71.0561C33.7745 70.3188 32.6218 69.5816 31.437 68.8443C31.437 70.415 31.437 71.9536 31.437 73.5242C33.3903 72.8511 35.2475 71.8895 36.9446 70.7355C38.8659 69.4533 40.6271 67.9147 42.1321 66.1838C43.8613 64.1964 45.2382 61.9206 46.2629 59.5165C41.5237 59.5165 36.7205 59.5165 31.9493 59.5165ZM31.437 60.0614C31.437 62.754 31.437 65.4465 31.437 68.1071C32.5257 68.7802 33.6144 69.4854 34.6711 70.1585C34.3829 69.1969 34.1268 68.2673 33.8386 67.3057C33.7425 67.0813 33.8386 66.7928 34.0627 66.6646C34.8953 66.0556 35.7278 65.4465 36.5604 64.8375C35.4717 64.8375 34.415 64.8375 33.3262 64.8375C33.1341 64.8696 32.974 64.7413 32.942 64.5811C32.4617 63.0745 31.9493 61.568 31.437 60.0614ZM19.0447 65.4145C21.9907 69.1007 25.9613 71.9536 30.4443 73.5563C30.4443 71.8574 30.4443 70.1265 30.4443 68.4276C29.932 68.4276 29.4196 68.5238 29.0354 68.8443C28.3949 69.3572 28.0427 70.1585 27.6905 70.8958C27.6264 71.0561 27.4663 71.1202 27.3382 71.2163C27.2422 71.1202 27.0821 71.0561 27.018 70.9278C26.6978 69.8059 26.922 68.5558 27.6584 67.6262C27.1461 67.8186 26.6017 67.7224 26.0574 67.7865C25.545 67.8506 25.1288 68.1712 24.7445 68.4917C24.6164 68.652 24.3923 68.6199 24.2001 68.652C24.1681 68.5238 24.0721 68.3955 24.1041 68.2673C24.2962 67.5301 24.6164 66.7928 25.2889 66.3761C25.8973 65.9915 26.5377 65.735 27.1461 65.3824C24.4243 65.4145 21.7345 65.4145 19.0447 65.4145ZM71.3356 34.9628C71.6238 34.7385 72.008 34.8346 72.2642 35.059C72.4563 35.2513 72.5204 35.5398 72.6164 35.7642C74.5057 41.9507 76.395 48.1372 78.2842 54.3237C79.3089 51.0221 80.3016 47.7525 81.3262 44.4509C81.9987 42.3033 82.6391 40.1236 82.7672 37.8798C82.7992 37.3669 82.7032 36.822 82.3509 36.4373C81.9026 35.9886 81.2942 35.8604 80.6858 35.7642C80.3976 35.7321 80.1094 35.7321 79.8533 35.6039C79.6291 35.4757 79.5651 35.1231 79.7892 34.9628C80.0774 34.7705 80.4296 34.8026 80.7499 34.8026C82.447 34.8987 84.1121 34.9949 85.8092 34.8987C86.3536 34.8987 86.898 34.7705 87.4103 34.8987C87.6985 34.9628 87.6985 35.3475 87.5064 35.5078C87.1221 35.7962 86.6098 35.8283 86.1935 35.9886C85.6491 36.1488 85.2008 36.5976 84.9126 37.0784C84.5284 37.8157 84.2722 38.585 84.0481 39.3863C82.2228 45.2202 80.3976 51.0862 78.5724 56.9201C78.3162 57.6894 78.1241 58.4587 77.7399 59.1959C77.5798 59.5165 77.3236 59.837 76.9393 59.9011C76.6511 59.9653 76.395 59.805 76.2349 59.5485C75.9146 59.0998 75.7866 58.5549 75.6264 58.0099C73.9293 52.2081 72.2002 46.3742 70.503 40.5723C68.7098 46.4704 66.9487 52.4004 65.1234 58.2984C64.9633 58.7151 64.8352 59.1639 64.5471 59.5165C64.3229 59.7729 63.9707 59.9653 63.6184 59.837C63.2662 59.6768 63.0741 59.3242 62.946 58.9716C62.6258 58.1381 62.3696 57.3047 62.1134 56.4713C60.1922 50.4451 58.2709 44.4189 56.3176 38.3606C56.1254 37.8157 55.9653 37.2387 55.6771 36.7579C55.485 36.4373 55.1968 36.1488 54.8126 36.0206C54.2362 35.7642 53.5957 35.8924 53.0514 35.6039C52.7952 35.4757 52.7632 35.0269 53.0514 34.9308C53.3716 34.8026 53.7238 34.8667 54.044 34.8667C56.0614 34.9949 58.0787 35.059 60.0961 34.8987C60.9607 34.8667 61.7932 34.7705 62.6578 34.8026C62.914 34.8026 63.1701 34.8346 63.3623 34.9628C63.5224 35.059 63.6184 35.2834 63.4903 35.4436C63.3623 35.6039 63.1061 35.636 62.914 35.668C62.3376 35.7321 61.7612 35.8283 61.1848 36.0206C60.8646 36.1488 60.5764 36.3091 60.3843 36.5976C60.1922 36.9502 60.1922 37.3669 60.2562 37.7516C60.3202 38.2644 60.4483 38.7773 60.5764 39.2902C61.3449 42.2071 62.2095 45.092 63.1061 47.9449C63.7785 50.1887 64.483 52.4325 65.1555 54.6763C67.0127 48.3936 68.8699 42.111 70.7592 35.8604C70.9193 35.6039 71.0154 35.2193 71.3356 34.9628ZM35.92 37.0143C36.6885 36.9823 37.3929 36.5976 38.1935 36.5655C38.8659 36.5014 39.5384 36.6617 40.1148 37.0143C40.9153 36.5335 41.94 36.4373 42.8366 36.6938C43.3809 36.854 43.8933 37.0143 44.4697 37.0143C44.8539 37.0464 45.2062 36.8861 45.5904 36.8861C45.6544 37.0464 45.7185 37.2066 45.7505 37.3669C46.0387 37.3349 46.3589 37.2707 46.6791 37.3028C46.7432 37.4631 46.8072 37.6233 46.8072 37.7836C46.8072 40.2197 46.8072 42.6238 46.8072 45.06C46.8392 45.2523 46.7112 45.4126 46.519 45.4446C45.5584 45.7331 44.5017 45.7652 43.509 45.5408C42.4843 45.3164 41.3956 45.4767 40.435 45.9254C40.2108 46.0216 39.9867 45.9575 39.7945 45.8613C38.8339 45.4446 37.7452 45.3164 36.7205 45.5728C35.7278 45.7972 34.7031 45.7652 33.7105 45.4446C33.6464 45.3164 33.5184 45.1882 33.5184 45.0279C33.5184 42.6238 33.5184 40.2197 33.5184 37.8477C33.5184 37.6875 33.5504 37.4951 33.6785 37.399C33.9667 37.3028 34.2548 37.431 34.543 37.431C34.6071 37.2707 34.6391 37.1105 34.7031 36.9823C35.0554 36.9181 35.4717 37.0784 35.92 37.0143ZM36.5924 37.5592C36.1121 37.6554 35.6318 37.6875 35.1514 37.6233C35.1514 39.7389 35.1514 41.8545 35.1514 43.9701C35.92 43.9701 36.6885 43.8098 37.489 43.7137C38.2895 43.6175 39.1221 43.6816 39.8266 44.1304C39.8266 41.9507 39.8266 39.771 39.8266 37.5592C39.3783 37.3028 38.8659 37.1746 38.3536 37.2066C37.7132 37.1746 37.1688 37.4631 36.5924 37.5592ZM40.4029 37.5592C40.4029 39.7389 40.4029 41.9186 40.4029 44.1304C40.8192 43.874 41.2995 43.7457 41.8119 43.7137C42.9006 43.6496 43.9893 44.0022 45.0781 44.0022C45.0781 41.8866 45.0781 39.771 45.0781 37.6554C44.3096 37.7836 43.541 37.6233 42.8045 37.399C42.004 37.0784 41.1074 37.1425 40.4029 37.5592ZM34.0947 37.9759C34.0947 40.2839 34.0947 42.5918 34.0947 44.8997C34.8953 45.1241 35.7599 45.1241 36.5924 44.9317C37.6491 44.6753 38.8019 44.8035 39.7945 45.1882C39.7945 44.8356 39.4423 44.6433 39.1861 44.515C38.3216 44.1624 37.3929 44.3548 36.4963 44.483C35.8879 44.5471 35.2475 44.7074 34.6391 44.515C34.543 44.3548 34.447 44.1945 34.479 44.0022C34.479 42.0148 34.479 39.9954 34.479 38.008C34.3509 38.008 34.2228 37.9759 34.0947 37.9759ZM45.6865 44.0022C45.7185 44.1945 45.6224 44.3548 45.5264 44.515C45.046 44.6753 44.5337 44.6112 44.0534 44.5471C43.0607 44.4189 42.036 44.1304 41.0754 44.483C40.7552 44.6112 40.3709 44.8035 40.4029 45.1882C41.4597 44.8035 42.6124 44.6433 43.7011 44.8997C44.5017 45.092 45.3342 45.0279 46.1348 44.8676C46.1348 42.5597 46.1348 40.2518 46.1348 37.9759C45.9747 37.9759 45.8466 38.008 45.6865 38.008C45.6865 39.9954 45.6865 42.0148 45.6865 44.0022ZM41.4276 38.6491C41.8759 38.585 42.3242 38.585 42.7725 38.7452C43.2529 38.9055 43.7011 39.0658 44.2135 39.0337C44.3096 39.0337 44.4697 39.0017 44.5337 39.0658C44.6938 39.194 44.6618 39.4825 44.4697 39.5787C44.1815 39.7389 43.8292 39.6428 43.509 39.6107C42.9647 39.5146 42.4203 39.194 41.8439 39.2581C41.4917 39.2581 41.1394 39.3863 40.7872 39.4184C40.531 39.3863 40.435 38.9696 40.6911 38.8414C40.9473 38.7132 41.1715 38.6811 41.4276 38.6491ZM37.457 38.7452C38.0654 38.585 38.7378 38.6491 39.3462 38.8414C39.6024 38.8735 39.6665 39.2261 39.4743 39.3863C39.3462 39.4825 39.1861 39.4504 39.0581 39.4184C38.5777 39.2902 38.0654 39.2261 37.5851 39.3863C37.0727 39.5466 36.5604 39.7389 36.016 39.7069C35.8239 39.7069 35.5997 39.6428 35.5357 39.4504C35.4396 39.2581 35.6318 39.0017 35.8559 39.0658C36.4003 39.1299 36.9126 38.9055 37.457 38.7452ZM41.5237 40.348C41.94 40.2839 42.3883 40.3159 42.7725 40.4121C43.2849 40.5403 43.7972 40.7006 44.3416 40.6365C44.6938 40.6044 44.6938 41.1814 44.3736 41.2455C43.477 41.4699 42.6124 40.8288 41.6838 40.957C41.3636 40.9891 41.0754 41.0852 40.7552 41.1493C40.499 41.1173 40.3709 40.7326 40.5951 40.6044C40.9153 40.4441 41.2355 40.38 41.5237 40.348ZM37.521 40.4121C38.1615 40.2839 38.8339 40.38 39.4423 40.6044C39.7305 40.7326 39.6024 41.2134 39.3142 41.1814C39.026 41.1493 38.7699 41.0211 38.4817 41.0211C37.5851 40.8929 36.7525 41.4699 35.8559 41.3417C35.6958 41.3096 35.5037 41.1814 35.5037 40.9891C35.5037 40.7967 35.6638 40.6685 35.8559 40.7006C36.4003 40.7647 36.9767 40.5723 37.521 40.4121ZM37.521 42.0789C38.1615 41.9827 38.8339 42.0789 39.4423 42.3033C39.6665 42.3674 39.6985 42.72 39.5063 42.8482C39.3783 42.9444 39.2182 42.8803 39.0581 42.8482C38.6098 42.72 38.0974 42.6238 37.6171 42.72C37.0727 42.8162 36.5284 42.9764 35.952 42.9444C35.7599 42.9444 35.5677 42.8803 35.4717 42.6879C35.3756 42.4956 35.5357 42.2071 35.7919 42.2712C36.4003 42.3674 36.9767 42.2071 37.521 42.0789ZM41.4276 42.0469C41.8759 41.9507 42.3563 41.9827 42.8045 42.0789C43.3169 42.1751 43.8292 42.3353 44.3736 42.2392C44.6298 42.2071 44.7579 42.5918 44.5657 42.752C44.3416 42.9444 43.9893 42.9123 43.7011 42.8803C43.0927 42.8162 42.5164 42.5597 41.8759 42.6238C41.5237 42.6238 41.1715 42.7841 40.8192 42.8482C40.531 42.8803 40.3709 42.4315 40.6271 42.3033C40.8833 42.1751 41.1715 42.111 41.4276 42.0469ZM41.94 48.4577C42.036 48.3295 42.1001 48.1692 42.2602 48.1692C42.5804 48.1372 42.6124 48.5539 42.8366 48.6501C43.1568 48.8424 43.541 48.9706 43.7972 49.2911C44.1174 49.6437 44.2455 50.1566 44.0854 50.6054C43.9573 51.0541 43.6051 51.3747 43.2849 51.6952C43.3809 51.8234 43.477 51.9196 43.6051 51.9837C43.8613 51.567 44.0534 51.0862 44.4697 50.8298C45.014 50.5092 45.7505 50.6374 46.1988 51.0541C46.423 51.2465 46.5831 51.5349 46.8713 51.5991C47.0314 51.6311 47.1915 51.6952 47.2875 51.8234C47.1915 52.176 46.9033 52.4645 46.9033 52.8492C46.8713 53.2979 46.6791 53.7467 46.3269 54.0352C46.0707 54.2596 45.6865 54.3557 45.3342 54.3237C44.95 54.2916 44.5977 54.0993 44.2455 53.907C44.1494 54.0352 44.0854 54.1634 44.1174 54.3237C44.6298 54.3878 45.2062 54.4839 45.5584 54.9007C45.9747 55.3174 46.0067 56.0226 45.7505 56.5354C45.6544 56.7598 45.4943 56.9521 45.4623 57.1765C45.4303 57.3688 45.3983 57.5612 45.3663 57.7535C45.1421 57.7535 44.8859 57.7214 44.6618 57.6894C44.3096 57.6894 43.9573 57.8497 43.6051 57.7535C43.0927 57.6894 42.6124 57.3047 42.4843 56.7919C42.3883 56.4072 42.4523 56.0226 42.4843 55.6379C42.5484 55.3815 42.1961 55.4135 42.0681 55.5097C42.1321 55.9585 42.2282 56.4393 42.0681 56.888C41.9079 57.3688 41.4276 57.6894 40.9153 57.7535C40.5951 57.8176 40.2428 57.6894 39.9226 57.6573C39.6665 57.6894 39.4423 57.7535 39.1861 57.7535C39.0901 57.465 39.1221 57.1124 38.962 56.8239C38.8339 56.5675 38.6738 56.3111 38.6418 56.0226C38.5777 55.5417 38.7378 54.9968 39.1541 54.7083C39.5384 54.4519 39.9867 54.3557 40.435 54.2916C40.435 54.1314 40.4029 54.0031 40.3069 53.8749C39.8586 54.0993 39.3783 54.3557 38.8659 54.2916C38.3216 54.2275 37.9053 53.7788 37.7452 53.2659C37.6491 52.9774 37.7132 52.6248 37.521 52.3363C37.425 52.176 37.3289 51.9837 37.2649 51.8234C37.3929 51.6952 37.553 51.6311 37.7132 51.5991C38.0013 51.5029 38.1615 51.2144 38.4176 51.0221C38.8339 50.6374 39.5063 50.5092 40.0187 50.7656C40.467 51.0221 40.7232 51.5029 40.9473 51.9196C41.0434 51.9196 41.1074 51.8875 41.2035 51.8555C41.2355 51.7914 41.2675 51.7273 41.2995 51.6632C40.9473 51.3106 40.531 50.8939 40.467 50.381C40.3709 49.772 40.7552 49.195 41.2995 48.9385C41.4917 48.7783 41.7799 48.6821 41.94 48.4577ZM41.1394 49.8361C40.9793 50.1246 41.0754 50.4772 41.2675 50.7015C41.4917 50.99 41.8759 51.2144 41.8759 51.5991C41.8759 52.2081 41.2035 52.6568 40.6591 52.4325C40.2749 52.2722 40.2428 51.8234 39.9867 51.5349C39.7945 51.2785 39.4423 51.1182 39.1541 51.2144C38.7058 51.3426 38.5137 51.8234 38.1294 52.0158C38.2255 52.2722 38.2575 52.5607 38.3216 52.8492C38.3856 53.2018 38.6418 53.5864 39.026 53.5864C39.5063 53.6185 39.8906 53.1697 40.3709 53.2018C40.8192 53.2659 41.1394 53.7467 41.0754 54.1955C41.0754 54.5481 40.7872 54.8366 40.467 54.8686C40.0507 54.9327 39.4743 54.9968 39.3142 55.4776C39.1221 56.0226 39.6344 56.4393 39.7305 56.9521C40.2108 56.888 40.7232 57.2086 41.1715 56.9521C41.4917 56.7919 41.5557 56.4072 41.5237 56.0867C41.5237 55.7661 41.3636 55.3815 41.5557 55.093C41.8759 54.6122 42.6765 54.6122 42.9967 55.093C43.2208 55.4456 42.9967 55.8623 43.0287 56.2149C42.9967 56.5354 43.1568 56.856 43.445 56.9521C43.8933 57.1445 44.3736 56.888 44.8219 56.9201C44.8859 56.4393 45.3022 56.0867 45.2702 55.6059C45.2382 55.2853 44.95 55.0289 44.6618 54.9648C44.3096 54.8365 43.8613 54.9007 43.6371 54.5801C43.2849 54.0993 43.541 53.33 44.1174 53.2018C44.5657 53.1377 44.918 53.4903 45.3342 53.5544C45.5904 53.6185 45.9106 53.5223 46.0707 53.2979C46.3269 52.9133 46.2629 52.4325 46.423 52.0158C46.1027 51.8234 45.9106 51.5029 45.6224 51.3106C45.3342 51.0862 44.8859 51.1182 44.6618 51.4067C44.3736 51.6952 44.3096 52.2081 43.9253 52.4004C43.413 52.6248 42.7405 52.2401 42.7085 51.6632C42.6444 51.2785 42.9967 51.0541 43.2208 50.7977C43.445 50.5733 43.6371 50.1887 43.477 49.8681C43.2528 49.3873 42.6765 49.3232 42.3242 48.9706C41.94 49.3552 41.3636 49.3873 41.1394 49.8361ZM42.4203 52.4645C42.7725 52.5927 43.0927 52.8492 43.1568 53.2338C43.2849 53.8108 42.7405 54.3878 42.1641 54.2916C41.7478 54.2596 41.4597 53.907 41.3316 53.5544C41.5237 53.6826 41.6838 53.8749 41.94 53.8749C42.3563 53.907 42.7405 53.5544 42.7405 53.1697C42.7725 52.8812 42.5804 52.6569 42.4203 52.4645ZM116.39 67.0172C116.966 66.28 117.959 65.9594 118.855 66.1197C119.368 66.1838 119.816 66.4402 120.264 66.6967C120.36 66.5043 120.392 66.2159 120.648 66.1838C120.873 66.2479 120.841 66.5043 120.841 66.6967C120.809 67.1775 120.841 67.6583 120.841 68.1391C120.841 68.2994 120.841 68.4917 120.648 68.5558C120.552 68.6199 120.456 68.4917 120.392 68.4276C120.232 68.075 120.136 67.6904 119.912 67.3698C119.464 66.7287 118.535 66.4402 117.799 66.7608C117.286 66.9852 116.902 67.5301 116.998 68.1071C117.062 68.5238 117.414 68.8123 117.735 69.0366C118.471 69.4533 119.272 69.7098 120.008 70.1585C120.392 70.415 120.777 70.7355 121.001 71.1202C121.481 71.8895 121.449 72.9152 121.001 73.6845C120.36 74.7103 119.047 75.127 117.895 74.9667C117.286 74.9026 116.742 74.5821 116.23 74.2936C116.101 74.4538 116.037 74.7423 115.813 74.6782C115.621 74.55 115.685 74.2615 115.685 74.0692C115.749 73.5243 115.717 72.9473 115.685 72.4023C115.653 72.2421 115.749 72.0498 115.941 72.0498C116.133 72.178 116.165 72.4024 116.23 72.6267C116.326 73.1075 116.55 73.5884 116.934 73.9089C117.51 74.4218 118.375 74.582 119.111 74.3256C119.624 74.1333 120.008 73.6204 120.072 73.0755C120.136 72.4985 119.848 71.9536 119.4 71.633C118.567 71.024 117.414 70.8958 116.646 70.1265C115.845 69.3251 115.685 67.9147 116.39 67.0172ZM57.022 66.28C57.3102 66.28 57.5984 66.1838 57.8866 66.312C58.0467 66.3761 58.0147 66.6005 57.8866 66.6646C57.6304 66.7928 57.3102 66.7287 57.0541 66.889C56.8299 67.0813 56.8299 67.4019 56.8299 67.6583C56.8299 69.1328 56.8299 70.6394 56.8299 72.1139C56.8299 72.7229 56.99 73.4281 57.5024 73.8127C58.1108 74.2936 58.9433 74.3256 59.6798 74.1974C60.2242 74.1012 60.7365 73.8768 61.0567 73.4281C61.505 72.8191 61.5691 72.0177 61.5691 71.2804C61.5691 69.9983 61.5691 68.7161 61.5691 67.4339C61.5691 67.1134 61.3449 66.8249 61.0247 66.7928C60.8326 66.7287 60.4803 66.7928 60.4163 66.5364C60.3843 66.28 60.7045 66.28 60.8966 66.28C61.5691 66.312 62.2735 66.312 62.946 66.28C63.1381 66.2479 63.3943 66.3761 63.2662 66.6005C63.01 66.8569 62.5617 66.6967 62.3056 66.9531C62.1455 67.1134 62.1455 67.3698 62.1134 67.5942C62.1134 68.8443 62.1134 70.1265 62.1134 71.3766C62.0814 72.1459 62.0174 72.9793 61.6331 73.6845C61.2809 74.2615 60.6725 74.6461 60.032 74.8064C59.0714 75.0308 58.0147 75.0949 57.0541 74.7423C56.4777 74.5179 55.9333 74.1012 55.7092 73.5242C55.3889 72.8191 55.485 72.0177 55.453 71.2484C55.453 70.1585 55.453 69.0687 55.453 68.0109C55.453 67.6904 55.485 67.3698 55.3249 67.0813C55.1648 66.8249 54.8766 66.8249 54.6204 66.7928C54.4923 66.7608 54.3002 66.7287 54.2682 66.5685C54.2042 66.3761 54.4923 66.312 54.6204 66.312C55.3889 66.312 56.2215 66.3441 57.022 66.28ZM105.855 66.28C106.911 66.312 107.968 66.2159 109.025 66.2479C109.729 66.28 110.434 66.3441 111.042 66.7287C111.554 67.0493 111.811 67.6263 111.875 68.2032C111.907 68.7802 111.779 69.4213 111.394 69.87C110.978 70.3509 110.338 70.5752 109.729 70.7035C110.562 71.6972 111.426 72.6908 112.259 73.6845C112.547 74.0051 112.963 74.1653 113.316 74.3577C113.508 74.4538 113.476 74.7744 113.252 74.7744C112.835 74.7744 112.387 74.7103 111.971 74.7423C111.65 74.7423 111.266 74.8064 111.042 74.5179C110.145 73.396 109.249 72.2741 108.352 71.1522C108.192 70.9599 107.936 70.9599 107.712 70.9278C107.712 71.7292 107.712 72.5306 107.712 73.364C107.712 73.6204 107.712 73.9089 107.936 74.0692C108.16 74.2294 108.48 74.1974 108.769 74.2936C108.993 74.4538 108.833 74.8064 108.576 74.7423C107.616 74.6782 106.655 74.6462 105.695 74.7423C105.502 74.7423 105.246 74.8064 105.118 74.6141C105.086 74.5179 105.118 74.3897 105.214 74.3256C105.502 74.1974 105.823 74.2615 106.079 74.0371C106.303 73.8448 106.271 73.5563 106.271 73.2999C106.271 71.4728 106.271 69.6136 106.271 67.7865C106.271 67.5301 106.271 67.2095 106.111 66.9852C105.855 66.7608 105.502 66.8249 105.182 66.6967C105.054 66.6005 105.086 66.3761 105.246 66.3441C105.47 66.2479 105.662 66.28 105.855 66.28ZM107.744 67.2095C107.744 68.2673 107.744 69.3251 107.744 70.415C108.416 70.415 109.153 70.415 109.729 70.0303C110.21 69.7098 110.338 69.0687 110.306 68.4917C110.306 67.9147 110.081 67.3057 109.569 66.9852C109.089 66.6967 108.512 66.6326 108 66.7287C107.744 66.7608 107.744 67.0172 107.744 67.2095ZM131.216 66.2479C131.344 66.1838 131.504 66.1838 131.632 66.1838C134.194 66.312 136.787 66.28 139.349 66.1838C139.541 66.1838 139.797 66.1838 139.829 66.4082C139.861 66.8249 139.829 67.2416 139.861 67.6583C139.861 67.8506 139.893 68.075 139.765 68.2353C139.605 68.3635 139.477 68.1071 139.477 67.9468C139.445 67.5301 139.285 67.0813 138.869 66.921C138.26 66.6967 137.556 66.7608 136.915 66.7608C136.627 66.7608 136.147 66.7928 136.179 67.2095C136.179 69.1007 136.147 70.992 136.179 72.8832C136.211 73.2358 136.115 73.6525 136.371 73.941C136.659 74.2615 137.204 74.1012 137.524 74.3897C137.556 74.6462 137.268 74.7423 137.075 74.7103C135.955 74.6141 134.866 74.6462 133.745 74.7103C133.521 74.7423 133.329 74.4538 133.521 74.2936C133.809 74.1333 134.226 74.2294 134.482 74.0051C134.738 73.8127 134.738 73.4601 134.738 73.1717C134.738 71.2163 134.738 69.229 134.706 67.2736C134.706 67.0813 134.706 66.8569 134.482 66.7928C134.161 66.7287 133.873 66.7608 133.553 66.7608C132.977 66.7608 132.368 66.6967 131.856 67.0172C131.472 67.2736 131.472 67.7545 131.376 68.1391C131.344 68.3314 131.055 68.2994 131.055 68.1071C130.991 67.6904 131.055 67.2416 131.023 66.8249C131.087 66.6326 131.023 66.3761 131.216 66.2479ZM142.135 66.6005C142.103 66.4402 142.231 66.312 142.359 66.28C142.551 66.2479 142.775 66.28 142.967 66.28C143.8 66.3441 144.632 66.2479 145.465 66.28C145.625 66.2479 145.817 66.4402 145.721 66.6005C145.529 66.889 145.081 66.6646 144.889 66.9531C144.729 67.2095 144.921 67.498 145.049 67.7224C145.625 68.7481 146.105 69.8059 146.682 70.8637C147.29 69.838 147.963 68.8123 148.507 67.7545C148.603 67.5301 148.731 67.2416 148.603 67.0172C148.411 66.7608 147.995 66.889 147.835 66.6326C147.739 66.4723 147.963 66.3441 148.091 66.312C148.475 66.2479 148.891 66.312 149.308 66.312C149.66 66.312 150.012 66.2479 150.364 66.28C150.524 66.28 150.588 66.4723 150.492 66.6005C150.332 66.7287 150.108 66.7608 149.948 66.889C149.66 67.0493 149.468 67.3378 149.308 67.5942C148.699 68.684 148.059 69.7418 147.386 70.7996C147.258 71.024 147.034 71.2484 147.034 71.5369C147.034 72.1459 147.034 72.7549 147.034 73.364C147.034 73.6204 147.066 73.9089 147.258 74.0692C147.514 74.2615 147.899 74.1653 148.155 74.3897C148.315 74.55 148.091 74.8064 147.899 74.7744C146.842 74.7103 145.785 74.6782 144.729 74.7744C144.504 74.8064 144.312 74.5179 144.472 74.3256C144.729 74.1653 145.081 74.2615 145.337 74.0692C145.529 73.9089 145.561 73.6525 145.561 73.4281C145.561 72.9152 145.561 72.4023 145.561 71.9215C145.561 71.6972 145.593 71.4728 145.497 71.2804C144.793 70.0303 144.088 68.7481 143.384 67.466C143.256 67.2095 143.063 66.9531 142.775 66.8569C142.519 66.7928 142.295 66.7608 142.135 66.6005ZM65.988 66.6646C65.8279 66.5685 65.892 66.3441 66.0521 66.28C66.3403 66.2159 66.6605 66.28 66.9487 66.28C67.3009 66.312 67.6531 66.2479 68.0054 66.28C68.1655 66.28 68.2936 66.4402 68.4216 66.5685C70.0227 68.5879 71.6558 70.6073 73.2569 72.6267C73.2569 71.0561 73.2569 69.4533 73.2569 67.8827C73.2569 67.5621 73.2569 67.1454 73.0007 66.921C72.7765 66.6967 72.4563 66.7608 72.2002 66.6646C72.008 66.5685 72.1041 66.2479 72.3282 66.2479C72.7445 66.2159 73.1288 66.28 73.5451 66.28C73.9613 66.28 74.3456 66.2479 74.7619 66.2479C74.954 66.2479 75.0501 66.5364 74.89 66.6326C74.6338 66.7608 74.2815 66.7287 74.0574 66.9531C73.8333 67.1454 73.8333 67.466 73.8333 67.7224C73.8333 69.9983 73.8333 72.3062 73.8333 74.582C73.8333 74.8705 73.481 74.9346 73.2889 74.7744C72.9687 74.4859 72.7445 74.1333 72.4563 73.7807C70.8873 71.8254 69.3182 69.8701 67.7492 67.9147C67.7492 69.6136 67.7492 71.3125 67.7492 73.0114C67.7492 73.3319 67.7492 73.7166 68.0054 73.941C68.2295 74.1653 68.5497 74.1653 68.8059 74.2615C68.966 74.3897 68.8379 74.6462 68.6458 74.6782C68.3256 74.7103 68.0054 74.6461 67.6531 74.6461C67.2369 74.6141 66.7886 74.6782 66.3723 74.6782C66.2122 74.6782 66.0841 74.582 66.0521 74.4218C66.1481 74.1653 66.4683 74.1974 66.6605 74.1012C67.0127 74.0371 67.2048 73.6845 67.2048 73.364C67.2368 71.4087 67.2048 69.4213 67.2368 67.466C67.2689 67.1775 66.9807 66.9852 66.7886 66.8569C66.5004 66.7608 66.2442 66.7928 65.988 66.6646ZM77.932 66.3441C78.0601 66.2479 78.2522 66.28 78.4443 66.28C79.469 66.3441 80.4617 66.3441 81.4864 66.28C81.6785 66.28 81.9346 66.3441 81.9026 66.5685C81.5824 66.889 81.0381 66.6646 80.7499 67.0172C80.5898 67.2736 80.6218 67.6262 80.6218 67.9147C80.6218 69.6777 80.6218 71.4407 80.6218 73.2037C80.6218 73.4922 80.6218 73.8127 80.8459 74.0371C81.1341 74.2936 81.5824 74.1653 81.8706 74.3897C82.0627 74.582 81.8066 74.8064 81.5824 74.7744C80.6858 74.7423 79.7572 74.6782 78.8606 74.7423C78.5724 74.7423 78.2522 74.8064 77.964 74.7103C77.8039 74.6462 77.8679 74.4218 77.996 74.3256C78.2842 74.1974 78.6685 74.2615 78.9246 74.0692C79.1808 73.8768 79.1808 73.5242 79.1808 73.2358C79.1808 71.4087 79.1808 69.5495 79.1808 67.7224C79.1808 67.466 79.1808 67.1775 78.9567 66.9852C78.6685 66.7608 78.2842 66.8249 77.964 66.7287C77.8039 66.6005 77.8359 66.4082 77.932 66.3441ZM84.3683 66.312C84.5604 66.2159 84.7525 66.2479 84.9447 66.2479C85.8413 66.3441 86.7699 66.28 87.6665 66.2479C87.8266 66.2159 88.0507 66.312 87.9867 66.5043C87.8906 66.7928 87.5384 66.6967 87.3142 66.7608C87.0901 66.7928 86.994 67.0493 87.026 67.2416C87.1221 67.6904 87.3142 68.1391 87.4423 68.5558C87.9867 70.0303 88.499 71.5048 89.0434 72.9793C89.6518 71.4407 90.2922 69.9021 90.8686 68.3314C90.9967 67.9788 91.1248 67.6583 91.1888 67.3057C91.2208 67.1134 91.1888 66.9211 91.0287 66.7928C90.8046 66.6326 90.5164 66.6967 90.2922 66.5685C90.1962 66.4723 90.1962 66.312 90.3242 66.2479C90.4523 66.1838 90.6124 66.2159 90.7726 66.2159C91.413 66.28 92.0854 66.28 92.7259 66.2159C92.886 66.1838 93.1421 66.28 93.0781 66.4723C92.95 66.7608 92.5337 66.6646 92.3096 66.889C92.0214 67.1454 91.8613 67.5301 91.7012 67.8827C90.8686 69.9342 90.0681 71.9856 89.2355 74.0371C89.0754 74.3256 88.9794 74.7103 88.6591 74.8705C88.3709 74.8705 88.2749 74.55 88.1788 74.3577C87.3142 72.0818 86.4497 69.8059 85.5851 67.5301C85.489 67.2737 85.3609 67.0493 85.1368 66.889C84.9126 66.7608 84.6565 66.7928 84.4323 66.6967C84.2722 66.6326 84.2082 66.4082 84.3683 66.312ZM95.4797 66.6326C95.3516 66.5364 95.3836 66.3441 95.5117 66.28C95.6718 66.2479 95.8639 66.2479 96.024 66.2479C97.7212 66.3441 99.3863 66.2159 101.083 66.2479C101.276 66.28 101.564 66.2479 101.66 66.4402C101.724 66.6967 101.66 66.9531 101.66 67.1775C101.628 67.466 101.724 67.7224 101.692 68.0109C101.692 68.1712 101.468 68.3314 101.34 68.1712C101.212 67.9468 101.212 67.6583 101.083 67.4339C100.923 67.0813 100.539 66.889 100.155 66.8249C99.5784 66.7287 98.97 66.7287 98.3936 66.7287C98.2015 66.7287 97.9453 66.7608 97.9453 67.0172C97.9133 68.0109 97.9453 69.0046 97.9453 69.9983C98.4577 69.9342 99.0341 69.9342 99.4503 69.5816C99.7385 69.3251 99.7385 68.9084 99.8666 68.5558C99.8986 68.3955 100.155 68.3635 100.219 68.5558C100.283 68.7802 100.251 69.0046 100.251 69.229C100.187 69.87 100.187 70.5111 100.283 71.1202C100.283 71.3766 100.347 71.633 100.219 71.8574C100.155 71.9856 99.9627 71.9536 99.9307 71.8254C99.8026 71.4728 99.7706 71.0881 99.4503 70.8317C99.0341 70.4791 98.4577 70.5111 97.9774 70.5111C97.9774 71.3125 97.9774 72.1139 97.9774 72.9152C97.9774 73.2678 98.0414 73.6845 98.3616 73.8768C98.7459 74.1333 99.2582 74.1012 99.7065 74.1012C100.315 74.1012 100.987 74.1012 101.436 73.6525C101.756 73.396 101.82 72.9793 101.948 72.6267C102.012 72.4665 102.268 72.4665 102.3 72.6588C102.428 73.0434 102.3 73.4601 102.3 73.8768C102.268 74.1012 102.332 74.3577 102.204 74.582C101.916 74.7744 101.532 74.6461 101.212 74.6461C99.3543 74.6141 97.497 74.55 95.6078 74.6461C95.3836 74.6782 95.2555 74.3577 95.4477 74.2294C95.7038 74.0692 96.0561 74.1333 96.3122 73.941C96.5044 73.7807 96.5364 73.4922 96.5364 73.2678C96.5364 71.3766 96.5364 69.4854 96.5364 67.5942C96.5364 67.3378 96.5364 67.0493 96.3443 66.8569C96.1521 66.6967 95.7679 66.8249 95.4797 66.6326ZM124.779 66.312C124.971 66.2159 125.228 66.28 125.452 66.28C126.348 66.312 127.277 66.312 128.173 66.2479C128.366 66.2159 128.622 66.2479 128.686 66.4723C128.622 66.6646 128.398 66.6967 128.238 66.7287C127.981 66.7928 127.661 66.7608 127.501 67.0172C127.341 67.2736 127.373 67.5942 127.373 67.8827C127.373 69.6457 127.373 71.4087 127.373 73.1717C127.373 73.4601 127.373 73.8127 127.629 74.0051C127.917 74.2294 128.302 74.1333 128.59 74.3256C128.814 74.5179 128.526 74.7744 128.302 74.7423C127.405 74.6782 126.476 74.6782 125.58 74.7103C125.292 74.7103 124.971 74.7744 124.683 74.6782C124.555 74.582 124.651 74.3577 124.779 74.2936C125.099 74.1974 125.452 74.2294 125.708 74.0051C125.932 73.7807 125.932 73.4601 125.932 73.1717C125.932 71.3446 125.932 69.4854 125.932 67.6583C125.932 67.4019 125.932 67.0813 125.708 66.921C125.42 66.6967 125.067 66.7928 124.747 66.6646C124.587 66.6326 124.619 66.3761 124.779 66.312Z" fill="#46505B"/>
</svg>
