<svg width="19" height="19" viewBox="0 0 19 19" fill="none" xmlns="http://www.w3.org/2000/svg">
<rect width="19" height="19" fill="white"/>
<path d="M2 4V15H7.76923V13.7778H3.15385V5.75336L9.5 10.234L15.8462 5.75336V10.1111H17V4H2ZM4.48235 5.22222H14.5177L9.5 8.76595L4.48235 5.22222ZM15.9701 11.5649C15.9701 11.5649 15.5319 12.1508 14.974 12.7298C14.6951 13.0193 14.3873 13.3045 14.1131 13.5009C13.8475 13.6911 13.6214 13.7645 13.5565 13.7694C13.5515 13.7221 13.5385 13.6506 13.5385 13.4722C13.5385 13.2431 13.5662 12.9499 13.4168 12.5938C13.2674 12.2376 12.8173 11.9444 12.3846 11.9444C11.9765 11.9444 11.6581 12.1098 11.313 12.3013C10.968 12.4929 10.6186 12.7336 10.2978 12.9721C9.65603 13.4491 9.12815 13.9222 9.12815 13.9222L9.87184 14.8556C9.87184 14.8556 10.3688 14.412 10.9603 13.9723C11.2561 13.7525 11.5752 13.5349 11.8494 13.3827C12.1143 13.2356 12.3415 13.178 12.3666 13.1738C12.3715 13.2206 12.3846 13.2932 12.3846 13.4722C12.3846 13.7014 12.3569 13.9946 12.5063 14.3507C12.6557 14.7068 13.1058 15 13.5385 15C14.0128 15 14.3928 14.775 14.7588 14.513C15.1247 14.251 15.4721 13.9251 15.7819 13.6035C16.4016 12.9603 16.8761 12.324 16.8761 12.324L15.9701 11.5649Z" fill="#001F7E"/>
</svg>
