<svg width="38" height="38" viewBox="0 0 38 38" fill="none" xmlns="http://www.w3.org/2000/svg">
<rect width="38" height="38" rx="19" fill="white"/>
<path fill-rule="evenodd" clip-rule="evenodd" d="M25.2224 27C26.2 27 27 26.2 27 25.2224V12.7776C27 11.8 26.2 11 25.2224 11H12.7776C11.8 11 11 11.8 11 12.7776V25.2224C11 26.2 11.8 27 12.7776 27H25.2224ZM22.3941 22.3941C23.2943 21.4939 23.8 20.273 23.8 19C23.8 18.7264 23.7712 18.4592 23.7216 18.2H25.4V24.5952C25.4 24.8084 25.3154 25.0128 25.1648 25.1637C25.0143 25.3146 24.81 25.3996 24.5968 25.4H13.4048C12.96 25.4 12.6 25.04 12.6 24.5952V18.2H14.2784C14.2288 18.4592 14.2 18.7264 14.2 19C14.2 20.273 14.7057 21.4939 15.6059 22.3941C16.5061 23.2943 17.727 23.8 19 23.8C20.273 23.8 21.4939 23.2943 22.3941 22.3941ZM20.2248 21.956C19.8365 22.117 19.4203 22.1999 19 22.2C18.1511 22.2002 17.3369 21.8632 16.7365 21.2631C16.136 20.663 15.7986 19.8489 15.7984 19C15.7982 18.1511 16.1352 17.3369 16.7353 16.7365C17.3354 16.136 18.1495 15.7986 18.9984 15.7984C19.4187 15.7983 19.835 15.881 20.2234 16.0417C20.6117 16.2025 20.9646 16.4382 21.2619 16.7353C21.5592 17.0325 21.7951 17.3853 21.956 17.7736C22.117 18.1619 22.1999 18.5781 22.2 18.9984C22.2001 19.4187 22.1174 19.835 21.9567 20.2234C21.7959 20.6117 21.5602 20.9646 21.2631 21.2619C20.9659 21.5592 20.6131 21.7951 20.2248 21.956ZM24.7584 15.64H22.84C22.576 15.64 22.36 15.424 22.3584 15.16V13.2416C22.3584 13.1139 22.4091 12.9914 22.4995 12.9011C22.5898 12.8107 22.7123 12.76 22.84 12.76H24.7584C24.8861 12.76 25.0086 12.8107 25.0989 12.9011C25.1893 12.9914 25.24 13.1139 25.24 13.2416V15.16C25.2396 15.2875 25.1887 15.4095 25.0984 15.4995C25.0081 15.5895 24.8859 15.64 24.7584 15.64Z" fill="#F53838"/>
</svg>
