<svg width="48" height="48" viewBox="0 0 48 48" fill="none" xmlns="http://www.w3.org/2000/svg">
<circle cx="24" cy="24" r="18" fill="white"/>
<path fill-rule="evenodd" clip-rule="evenodd" d="M30.2224 32C31.2 32 32 31.2 32 30.2224V17.7776C32 16.8 31.2 16 30.2224 16H17.7776C16.8 16 16 16.8 16 17.7776V30.2224C16 31.2 16.8 32 17.7776 32H30.2224ZM27.3941 27.3941C28.2943 26.4939 28.8 25.273 28.8 24C28.8 23.7264 28.7712 23.4592 28.7216 23.2H30.4V29.5952C30.4 29.8084 30.3154 30.0128 30.1648 30.1637C30.0143 30.3146 29.81 30.3996 29.5968 30.4H18.4048C17.96 30.4 17.6 30.04 17.6 29.5952V23.2H19.2784C19.2288 23.4592 19.2 23.7264 19.2 24C19.2 25.273 19.7057 26.4939 20.6059 27.3941C21.5061 28.2943 22.727 28.8 24 28.8C25.273 28.8 26.4939 28.2943 27.3941 27.3941ZM25.2248 26.956C24.8365 27.117 24.4203 27.1999 24 27.2C23.1511 27.2002 22.3369 26.8632 21.7365 26.2631C21.136 25.663 20.7986 24.8489 20.7984 24C20.7982 23.1511 21.1352 22.3369 21.7353 21.7365C22.3354 21.136 23.1495 20.7986 23.9984 20.7984C24.4187 20.7983 24.835 20.881 25.2234 21.0417C25.6117 21.2025 25.9646 21.4382 26.2619 21.7353C26.5592 22.0325 26.7951 22.3853 26.956 22.7736C27.117 23.1619 27.1999 23.5781 27.2 23.9984C27.2001 24.4187 27.1174 24.835 26.9567 25.2234C26.7959 25.6117 26.5602 25.9646 26.2631 26.2619C25.9659 26.5592 25.6131 26.7951 25.2248 26.956ZM29.7584 20.64H27.84C27.576 20.64 27.36 20.424 27.3584 20.16V18.2416C27.3584 18.1139 27.4091 17.9914 27.4995 17.9011C27.5898 17.8107 27.7123 17.76 27.84 17.76H29.7584C29.8861 17.76 30.0086 17.8107 30.0989 17.9011C30.1893 17.9914 30.24 18.1139 30.24 18.2416V20.16C30.2396 20.2875 30.1887 20.4095 30.0984 20.4995C30.0081 20.5895 29.8859 20.64 29.7584 20.64Z" fill="#F53838"/>
</svg>
