<svg width="140" height="38" viewBox="0 0 140 38" fill="none" xmlns="http://www.w3.org/2000/svg">
<rect y="12" width="14" height="14" fill="#001F7E"/>
<path d="M21.4441 18.1915V14.7211H23.3172C24.6867 14.7211 25.2708 15.3915 25.2708 16.4563C25.2708 17.5211 24.6867 18.1915 23.3172 18.1915H21.4441ZM28.7753 16.4563C28.7753 13.9127 27.0432 12 23.579 12H18V25.8423H21.4441V20.8732H23.579C27.1842 20.8732 28.7753 18.7437 28.7753 16.4563Z" fill="#001F7E"/>
<path d="M35.523 17.3831C36.671 17.3831 37.6378 18.0732 37.6378 19.2761H33.3276C33.529 18.0535 34.3951 17.3831 35.523 17.3831ZM40.9006 22.1944H37.2349C36.953 22.7859 36.4092 23.2592 35.4424 23.2592C34.3347 23.2592 33.4283 22.5887 33.3075 21.1493H41.102C41.1423 20.8141 41.1624 20.4789 41.1624 20.1634C41.1624 16.8113 38.8462 14.6817 35.5633 14.6817C32.2199 14.6817 29.8836 16.8507 29.8836 20.3408C29.8836 23.831 32.2602 26 35.5633 26C38.3628 26 40.3568 24.3437 40.9006 22.1944Z" fill="#001F7E"/>
<path d="M50.7335 25.8423H54.1575V19.4141C54.1575 16.4563 52.4254 14.7211 49.8272 14.7211C48.3166 14.7211 47.1082 15.3718 46.4234 16.2986V14.8394H42.9793V25.8423H46.4234V19.8676C46.4234 18.369 47.2693 17.5408 48.5785 17.5408C49.8876 17.5408 50.7335 18.369 50.7335 19.8676V25.8423Z" fill="#001F7E"/>
<path d="M64.305 25.8423H67.7289V19.4141C67.7289 16.4563 65.9968 14.7211 63.3986 14.7211C61.8881 14.7211 60.6796 15.3718 59.9949 16.2986V14.8394H56.5508V25.8423H59.9949V19.8676C59.9949 18.369 60.8408 17.5408 62.1499 17.5408C63.4591 17.5408 64.305 18.369 64.305 19.8676V25.8423Z" fill="#001F7E"/>
<path d="M81.1191 20.3408C81.1191 16.8507 78.5814 14.6817 75.2783 14.6817C71.9953 14.6817 69.4374 16.8507 69.4374 20.3408C69.4374 23.831 71.9349 26 75.238 26C78.5411 26 81.1191 23.831 81.1191 20.3408ZM72.9419 20.3408C72.9419 18.4676 74.0295 17.6 75.2783 17.6C76.4867 17.6 77.6146 18.4676 77.6146 20.3408C77.6146 22.1944 76.4666 23.0817 75.238 23.0817C73.9893 23.0817 72.9419 22.1944 72.9419 20.3408Z" fill="#001F7E"/>
<path d="M81.8788 14.8394L85.8667 25.8423H90.1164L94.1043 14.8394H90.4386L88.0016 22.6873L85.5646 14.8394H81.8788Z" fill="#001F7E"/>
<path d="M94.8691 20.3211C94.8691 23.7915 97.0645 26 99.8036 26C101.475 26 102.664 25.2507 103.288 24.2845V25.8423H106.732V14.8394H103.288V16.3972C102.684 15.431 101.495 14.6817 99.8238 14.6817C97.0645 14.6817 94.8691 16.8507 94.8691 20.3211ZM103.288 20.3408C103.288 22.0958 102.14 23.062 100.831 23.062C99.5418 23.062 98.3736 22.0761 98.3736 20.3211C98.3736 18.5662 99.5418 17.6197 100.831 17.6197C102.14 17.6197 103.288 18.5859 103.288 20.3408Z" fill="#001F7E"/>
<path d="M109.768 22.0169C109.768 24.8761 111.399 25.8423 113.735 25.8423H115.488V22.9831H114.259C113.494 22.9831 113.212 22.707 113.212 22.0563V17.6394H115.467V14.8394H113.212V12.1577H109.768V14.8394H108.398V17.6394H109.768V22.0169Z" fill="#001F7E"/>
<path d="M122.361 17.3831C123.509 17.3831 124.475 18.0732 124.475 19.2761H120.165C120.367 18.0535 121.233 17.3831 122.361 17.3831ZM127.738 22.1944H124.073C123.791 22.7859 123.247 23.2592 122.28 23.2592C121.172 23.2592 120.266 22.5887 120.145 21.1493H127.94C127.98 20.8141 128 20.4789 128 20.1634C128 16.8113 125.684 14.6817 122.401 14.6817C119.057 14.6817 116.721 16.8507 116.721 20.3408C116.721 23.831 119.098 26 122.401 26C125.2 26 127.194 24.3437 127.738 22.1944Z" fill="#001F7E"/>
</svg>
