<svg width="80" height="80" viewBox="0 0 80 80" fill="none" xmlns="http://www.w3.org/2000/svg">
<path d="M79.7495 0.250565H0.250549V79.7495H79.7495V0.250565Z" fill="#ED1C2E"/>
<path d="M15.186 15.4878H20.4168V59.0629H28.1805V64.4733H15.186V15.4878Z" fill="white"/>
<path d="M51.6784 15.4941H64.8989V20.8349H56.9092V36.5394H64.3772V42.254H56.9092V59.0582H64.8989V64.4735H51.6784V15.4941Z" fill="white"/>
<path d="M32.7393 64.4552V59.2171V59.0961L34.3778 59.09C36.5295 59.079 40.1706 57.5798 40.707 54.1904C41.2275 50.9084 40.8439 48.5319 36.6223 41.3217L36.5673 41.2008C33.6288 36.4099 30.8429 32.2262 31.8827 25.6612C33.013 18.5243 38.5932 15.3817 43.67 15.4758L45.3098 15.4733V20.7114V20.8324L43.67 20.8385C41.5196 20.8506 37.777 22.3255 37.2394 25.7137C36.7201 28.9968 37.0781 31.1204 41.1896 38.234L41.2996 38.4173C44.353 43.3341 47.1034 47.679 46.0636 54.244C44.9334 61.3809 39.4546 64.5468 34.3778 64.4539L32.7393 64.4552" fill="white"/>
</svg>
