<svg width="189" height="80" viewBox="0 0 189 80" fill="none" xmlns="http://www.w3.org/2000/svg">
<path d="M177 56.4401H12.0939V5H177V56.4401Z" fill="#6C2383"/>
<path d="M117.837 41.7429C120.09 42.685 121.123 43.7213 121.123 45.2287C121.123 47.3014 119.245 48.903 116.897 48.903C114.55 48.903 112.671 47.4899 112.671 45.6056C112.671 44.1924 113.798 43.0619 115.864 42.3082C113.798 41.4602 112.859 40.5181 112.859 39.1049C112.859 37.3149 114.644 35.9017 116.804 35.9017C118.963 35.9017 120.748 37.2207 120.748 38.7281C120.748 40.047 119.809 41.0834 117.837 41.7429ZM116.334 42.4966C114.831 43.2503 113.986 44.2866 113.986 45.6056C113.986 47.3014 115.301 48.432 116.991 48.432C118.588 48.432 119.996 47.3956 119.996 45.794C119.903 44.475 118.87 43.5329 116.334 42.4966ZM116.804 36.467C115.301 36.467 113.986 37.3149 113.986 38.5397C113.986 39.6702 114.644 40.4239 117.461 41.4602C118.682 40.8007 119.527 39.8586 119.527 38.7281C119.527 37.3149 118.306 36.467 116.804 36.467ZM130.233 45.1345V44.6635L136.525 36.0901H137.088V44.1924H138.685V45.2287H137.088V48.8088H135.679V45.2287H130.233V45.1345ZM135.773 37.9744L131.36 44.0982H135.773V37.9744ZM106.473 48.7146V48.2435C108.352 48.2435 108.446 47.9609 108.446 46.9246V37.6917C107.788 38.257 106.567 39.0107 105.816 39.2933L105.628 39.0107C106.849 38.257 108.539 36.7496 109.103 36.0901H109.854V46.6419C109.854 47.9609 110.136 48.1493 112.014 48.2435V48.7146H106.473ZM130.045 45.8882H129.669C129.387 47.113 129.012 47.3956 128.073 47.3956H123.377C125.819 45.2287 129.669 42.4024 129.669 39.3876C129.669 37.4091 128.167 35.9017 126.101 35.9017C123.941 35.9017 122.344 37.4091 122.156 39.6702H122.438C122.908 38.0686 124.129 37.0322 125.537 37.0322C127.04 37.0322 128.167 38.1628 128.167 39.6702C128.167 43.2503 122.438 47.584 121.875 48.0551V48.6204H129.669L129.857 47.3956L130.045 45.8882ZM117.93 20.8277C117.649 18.755 116.991 18.6608 116.052 18.6608H110.512V24.7846H114.925C115.864 24.7846 116.24 24.6904 116.334 23.183H116.804V27.4225H116.334C116.146 25.6325 115.677 25.7267 114.644 25.7267H110.512V31.0968C110.512 32.2274 111.075 32.51 111.92 32.51H115.677C117.367 32.51 117.93 32.1332 118.588 30.0605H119.057L118.682 33.4521H106.286V32.9811C108.258 32.8869 108.446 32.6984 108.446 31.0968V20.1682C108.446 18.6608 108.258 18.3781 106.286 18.2839V17.8129H118.118L118.306 20.9219H117.93V20.8277ZM128.918 20.2624H139.53L139.811 23.0888H139.436C139.154 21.2987 138.778 21.0161 137.933 21.0161H135.116V31.2853C135.116 32.4158 135.492 32.7927 136.712 32.7927H137.182V33.2637H131.266V32.7927H131.735C132.956 32.7927 133.332 32.4158 133.332 31.2853V21.0161H130.514C129.669 21.0161 129.294 21.2045 129.012 23.0888H128.636L128.918 20.2624ZM121.405 22.5235C121.405 21.3929 122.438 20.6392 123.941 20.6392C125.537 20.6392 126.946 21.6756 127.603 23.0888H127.979L127.697 20.8277C126.946 20.4508 125.255 19.9797 123.847 19.9797C121.593 19.9797 119.903 21.4871 119.903 23.183C119.903 26.8573 127.04 27.611 127.04 30.6258C127.04 32.2274 125.443 32.9811 123.941 32.9811C122.156 32.9811 120.56 31.9448 120.09 29.8721H119.715L120.184 32.9811C121.311 33.2637 122.908 33.6406 124.222 33.6406C126.852 33.6406 128.73 31.9448 128.73 29.8721C128.542 26.1036 121.405 25.4441 121.405 22.5235Z" fill="#FFD500"/>
<path d="M166.482 30.3431L164.51 28.4589C163.289 27.2341 162.538 26.763 161.693 26.0093C163.759 25.4441 165.073 23.8425 165.073 21.9582C165.073 19.4145 163.007 17.436 158.312 17.436C156.715 17.436 156.152 17.436 155.119 17.5302C154.086 17.6244 152.583 17.7186 151.926 17.7186V18.1897H152.489C153.992 18.1897 154.368 18.6608 154.368 20.1682V30.72C154.368 32.4158 153.804 32.7927 152.396 32.7927H151.926V33.2637H159.063V32.7927H158.5C157.091 32.7927 156.528 32.4158 156.528 30.9084V26.7631C156.903 26.7631 157.279 26.8573 157.842 26.8573C158.5 26.8573 158.875 26.8573 159.533 26.8573C161.411 27.9878 162.914 29.6837 163.853 30.5316C166.106 32.6985 166.67 33.6406 171.084 33.4521V32.9811C168.924 32.6042 167.985 31.8505 166.482 30.3431ZM157.936 26.1978C157.373 26.1978 156.997 26.1978 156.34 26.1036V18.0955C156.809 18.0013 157.091 18.0013 157.561 18.0013C161.411 18.0013 162.444 19.6971 162.444 22.0524C162.632 25.0672 160.754 26.1978 157.936 26.1978ZM166.482 30.3431L164.51 28.4589C163.289 27.2341 162.538 26.763 161.693 26.0093C163.759 25.4441 165.073 23.8425 165.073 21.9582C165.073 19.4145 163.007 17.436 158.312 17.436C156.715 17.436 156.152 17.436 155.119 17.5302C154.086 17.6244 152.583 17.7186 151.926 17.7186V18.1897H152.489C153.992 18.1897 154.368 18.6608 154.368 20.1682V30.72C154.368 32.4158 153.804 32.7927 152.396 32.7927H151.926V33.2637H159.063V32.7927H158.5C157.091 32.7927 156.528 32.4158 156.528 30.9084V26.7631C156.903 26.7631 157.279 26.8573 157.842 26.8573C158.5 26.8573 158.875 26.8573 159.533 26.8573C161.411 27.9878 162.914 29.6837 163.853 30.5316C166.106 32.6985 166.67 33.6406 171.084 33.4521V32.9811C168.924 32.6042 167.985 31.8505 166.482 30.3431ZM157.936 26.1978C157.373 26.1978 156.997 26.1978 156.34 26.1036V18.0955C156.809 18.0013 157.091 18.0013 157.561 18.0013C161.411 18.0013 162.444 19.6971 162.444 22.0524C162.632 25.0672 160.754 26.1978 157.936 26.1978ZM81.7752 17.3418C84.4047 17.3418 86.2829 18.1897 87.5037 18.755L87.6915 21.864H87.222C86.3768 19.5087 84.6864 18.0013 81.963 18.0013C77.831 18.0013 75.671 21.2045 75.671 25.4441C75.671 29.9663 78.3944 33.0753 82.1508 33.0753C83.2778 33.0753 86.0951 32.3216 87.7854 29.3068H88.255L87.0341 32.2274C85.5316 32.9811 84.3108 33.7348 81.3995 33.7348C76.3284 33.7348 73.3233 30.3431 73.3233 25.7267C73.5111 20.8277 76.6101 17.3418 81.7752 17.3418ZM105.91 32.7927V33.2637H99.712V32.7927C101.59 32.6985 101.872 32.51 101.872 31.191V25.6325H92.6688V30.9084C92.6688 32.4158 92.7627 32.6985 94.8287 32.7927V33.2637H88.6306V32.7927C90.5088 32.7927 90.6028 32.51 90.6028 31.4737V19.4145C90.6028 18.4723 90.5088 18.0955 88.6306 18.0955V17.6244H94.8287V18.0955C92.8566 18.1897 92.6688 18.3781 92.6688 19.9797V24.6904H101.872V19.7913C101.872 18.4723 101.59 18.1897 99.712 18.1897V17.7186H105.91V18.1897C104.032 18.1897 103.938 18.4723 103.938 19.5087V31.5679C103.938 32.4158 104.032 32.7927 105.91 32.7927ZM68.0643 17.7186V18.1897C70.0364 18.2839 70.2243 18.4723 70.2243 20.074V30.0605L59.8002 17.7186H56.0438V18.1897C56.889 18.1897 57.3586 18.3781 57.922 18.8492V31.191C57.922 32.1332 57.5464 32.7927 56.7012 32.7927C56.0438 32.7927 55.7621 32.039 55.3865 31.2853L49.564 17.7186H47.7798L42.5208 30.3431C41.5817 32.4158 41.3939 32.7927 40.8304 32.7927C40.173 32.7927 39.9852 32.2274 39.8913 30.5316L39.14 19.5087C39.14 18.5666 39.4217 18.1897 41.2999 18.1897V17.7186H37.074L31.6272 30.3431L26.0865 17.7186H21.6727V18.1897C23.551 18.1897 23.8327 18.4723 23.8327 19.5087L23.1753 30.1547C23.0814 32.4158 22.7997 32.7927 21.0154 32.7927V33.2637H26.1804V32.7927C25.0535 32.6985 24.1144 32.51 24.2083 31.191L24.8657 19.8855H24.9596L30.782 33.2637H31.3455L37.074 19.8855H37.1679L37.9192 31.0968C38.0131 32.4158 36.8862 32.7927 35.6653 32.7927V33.2637H45.3381V32.7927H45.2442C43.8355 32.7927 43.1782 32.51 43.1782 31.8505C43.1782 31.4737 43.4599 30.72 43.6477 30.2489L45.0564 26.9515H51.5362L53.1326 30.9084C53.2265 31.1911 53.4144 31.5679 53.4144 31.9448C53.4144 32.6042 52.8509 32.7927 51.4422 32.7927H51.0666V33.2637H61.3028V32.7927C59.1429 32.7927 59.049 32.4158 59.049 30.6258V19.8855L70.6938 33.4521H71.3512V19.5087C71.3512 18.5666 71.4451 18.1897 73.3233 18.1897V17.7186H68.0643ZM45.432 26.0093L48.2493 19.2261L51.0666 26.0093H45.432ZM151.081 20.8276L150.893 17.7186H139.06V18.1897C141.032 18.2839 141.22 18.4723 141.22 20.074V31.0026C141.22 32.51 141.032 32.7927 139.06 32.8869V33.358H151.363L151.738 29.9663H151.269C150.705 32.039 150.142 32.4158 148.357 32.4158H144.601C143.662 32.4158 143.192 32.2274 143.192 31.0026V25.6325H147.324C148.357 25.6325 148.827 25.5383 149.015 27.3283H149.484V23.0887H149.015C148.921 24.5019 148.451 24.6904 147.606 24.6904H143.192V18.5666H148.733C149.578 18.5666 150.236 18.755 150.611 20.7334H151.081V20.8276Z" fill="white"/>
<path d="M15.8503 63.1291V71.5141H14.8173V63.1291H12V62.187H18.5737V63.1291H15.8503Z" fill="#929292"/>
<path d="M24.2084 71.5141V67.0861C24.2084 66.0498 23.9266 65.3903 22.8936 65.3903C21.6728 65.3903 20.8276 66.6151 20.8276 68.2167V71.5141H19.7946V61.4333H20.8276V64.7308C20.8276 65.2019 20.8276 65.7671 20.7337 66.0498C21.1093 65.0134 21.9545 64.3539 23.1753 64.3539C24.7718 64.3539 25.2414 65.3903 25.2414 66.5208V71.3257H24.2084V71.5141Z" fill="#929292"/>
<path d="M32.4724 67.8398H27.9647C27.8708 69.9124 28.716 70.7604 30.2186 70.7604C30.9698 70.7604 31.7211 70.5719 32.1907 70.2893L32.2846 71.1372C31.6272 71.4198 30.8759 71.5141 30.0307 71.5141C27.9647 71.5141 26.8378 70.3835 26.8378 68.0282C26.8378 65.9555 27.9647 64.4481 29.8429 64.4481C31.7211 64.4481 32.4724 65.7671 32.4724 67.2745C32.4724 67.4629 32.4724 67.6513 32.4724 67.8398ZM29.749 65.296C28.8099 65.296 28.0586 65.9555 27.9647 67.0861H31.4394C31.4394 66.0497 30.782 65.296 29.749 65.296Z" fill="#929292"/>
<path d="M40.2669 71.6083C37.3557 71.6083 36.8861 70.0067 36.8861 68.4051V62.187H37.9191V68.3108C37.9191 69.6298 38.3887 70.7604 40.3608 70.7604C42.0512 70.7604 42.8963 70.0067 42.8963 68.0282V62.187H43.9294V67.934C43.9294 70.3835 42.6146 71.6083 40.2669 71.6083Z" fill="#929292"/>
<path d="M50.3153 71.5141V67.0861C50.3153 66.0497 50.0335 65.3902 49.0005 65.3902C47.7797 65.3902 46.9345 66.615 46.9345 68.2166V71.5141H45.9015V64.6365H46.9345C46.9345 65.1076 46.9345 65.7671 46.8406 66.1439C47.2162 65.1076 48.0614 64.4481 49.2822 64.4481C50.8787 64.4481 51.3483 65.4844 51.3483 66.615V71.4199H50.3153V71.5141Z" fill="#929292"/>
<path d="M53.7899 63.4119C53.4143 63.4119 53.0387 63.1292 53.0387 62.7524C53.0387 62.3755 53.3204 62.0929 53.7899 62.0929C54.1656 62.0929 54.5412 62.3755 54.5412 62.7524C54.4473 63.1292 54.1656 63.4119 53.7899 63.4119ZM53.2265 71.5142V64.6366H54.2595V71.5142H53.2265Z" fill="#929292"/>
<path d="M59.049 71.5143H58.0159L55.4804 64.6367H56.6073L58.2038 69.0647C58.2977 69.5358 58.4855 69.9126 58.5794 70.2895C58.6733 69.9126 58.7672 69.5358 58.955 69.1589L60.5515 64.6367H61.6784L59.049 71.5143Z" fill="#929292"/>
<path d="M67.5947 67.8398H63.087C62.9931 69.9124 63.8383 70.7604 65.3409 70.7604C66.0921 70.7604 66.8434 70.5719 67.313 70.2893L67.4069 71.1372C66.7495 71.4198 65.9982 71.5141 65.1531 71.5141C63.087 71.5141 61.9601 70.3835 61.9601 68.0282C61.9601 65.9555 63.087 64.4481 64.9652 64.4481C66.8434 64.4481 67.5947 65.7671 67.5947 67.2745C67.5947 67.4629 67.5947 67.6513 67.5947 67.8398ZM64.8713 65.296C63.9322 65.296 63.1809 65.9555 63.087 67.0861H66.5617C66.5617 66.0497 65.9043 65.296 64.8713 65.296Z" fill="#929292"/>
<path d="M72.4781 65.5787C70.9755 65.2961 70.2242 66.5208 70.2242 68.7819V71.5141H69.1912V64.6366H70.2242C70.2242 65.1076 70.1303 65.7671 70.0364 66.3324C70.3181 65.2961 71.0694 64.354 72.4781 64.4482V65.5787Z" fill="#929292"/>
<path d="M74.8258 71.6085C74.3563 71.6085 73.7928 71.5143 73.4172 71.5143V70.5721C73.8867 70.6663 74.4502 70.7605 74.9198 70.7605C75.9528 70.7605 76.6101 70.2895 76.6101 69.63C76.6101 67.9342 73.3233 68.9705 73.3233 66.6152C73.3233 65.4846 74.2624 64.6367 75.9528 64.6367C76.4223 64.6367 76.8919 64.7309 77.2675 64.8252V65.6731C76.798 65.4846 76.3284 65.4846 75.8589 65.4846C74.8258 65.4846 74.3563 65.8615 74.3563 66.6152C74.3563 68.2168 77.6431 67.2747 77.6431 69.63C77.6431 70.6663 76.6101 71.6085 74.8258 71.6085Z" fill="#929292"/>
<path d="M80.4605 62.7524C80.4605 62.3755 80.0849 62.0929 79.7092 62.0929C79.3336 62.0929 78.9579 62.3755 78.9579 62.7524C78.9579 63.1292 79.2397 63.4119 79.7092 63.4119C80.1788 63.4119 80.4605 63.1292 80.4605 62.7524ZM80.2727 71.5142V64.6366H79.2397V71.5142H80.2727Z" fill="#929292"/>
<path d="M84.4985 71.6084C83.0899 71.6084 82.7142 71.0431 82.7142 69.6299V65.4845H81.2117V64.6366H82.7142V62.3755L83.7472 62.0929V64.6366H85.7193V65.4845H83.7472V69.1588C83.7472 70.3836 83.9351 70.6662 84.7802 70.6662C85.1559 70.6662 85.4376 70.6662 85.7193 70.572V71.4199C85.4376 71.5142 84.9681 71.6084 84.4985 71.6084Z" fill="#929292"/>
<path d="M89.4758 72.1736C88.7245 74.2463 88.0671 75 86.5645 75C86.2828 75 86.0011 75 85.7194 74.9058L85.8133 73.9636C86.095 74.0578 86.3767 74.0578 86.6585 74.0578C87.5037 74.0578 87.8793 73.681 88.4427 72.2678L88.7245 71.4199L86.095 64.5424H87.3158L88.7245 68.4993C88.9123 69.1588 89.1001 69.6299 89.2879 70.1009C89.3818 69.6299 89.6636 68.7819 89.9453 68.0282L91.1661 64.5424H92.2931L89.4758 72.1736Z" fill="#929292"/>
<path d="M98.4912 71.6083C96.707 71.6083 95.4861 70.4778 95.4861 68.1225C95.4861 66.144 96.7069 64.5424 98.773 64.5424C100.463 64.5424 101.778 65.4845 101.778 67.934C101.778 70.0067 100.557 71.6083 98.4912 71.6083ZM98.6791 65.3903C97.646 65.3903 96.613 66.2382 96.613 68.0282C96.613 69.8183 97.3643 70.7604 98.6791 70.7604C99.7121 70.7604 100.745 69.9125 100.745 68.0282C100.745 66.4266 99.9938 65.3903 98.6791 65.3903Z" fill="#929292"/>
<path d="M107.319 62.3754C106.943 62.2812 106.567 62.187 106.286 62.187C105.253 62.187 104.783 62.7523 104.783 64.0713V64.5423H106.755V65.3903H104.783V71.4199H103.75V65.3903H102.248V64.5423H103.75V64.0713C103.75 62.187 104.689 61.2449 106.286 61.2449C106.661 61.2449 107.037 61.2449 107.413 61.3391L107.319 62.3754Z" fill="#929292"/>
<path d="M119.715 71.5142L118.87 65.7672C118.682 64.6366 118.682 63.9771 118.588 63.4119C118.494 63.7887 118.4 64.354 118.118 64.9193L115.958 71.4199H114.738L112.672 65.2961C112.484 64.6366 112.202 63.8829 112.108 63.3176C112.108 64.0713 112.014 64.8251 111.826 65.7672L111.169 71.4199H110.136L111.451 62.0929H112.766L114.832 68.4051C115.019 69.0646 115.301 69.7241 115.395 70.1952C115.489 69.5357 115.677 69.1588 115.865 68.4993L118.024 62.0929H119.433L120.842 71.4199H119.715V71.5142Z" fill="#929292"/>
<path d="M126.195 71.5141C126.195 70.9488 126.195 70.4778 126.289 70.1009C125.913 70.9488 125.068 71.7025 123.941 71.7025C122.814 71.7025 122.063 71.1373 122.063 70.0067C122.063 68.5935 123.565 67.5572 126.195 67.5572V66.9919C126.195 65.9556 125.819 65.3903 124.692 65.3903C124.035 65.3903 123.189 65.5787 122.626 65.9555L122.532 65.0134C123.19 64.7308 123.941 64.5424 124.88 64.5424C126.758 64.5424 127.322 65.4845 127.322 66.8035V69.4414C127.322 70.1009 127.322 70.8546 127.322 71.5141H126.195ZM126.101 68.3109C123.565 68.3109 123.002 69.1588 123.002 69.8183C123.002 70.4778 123.471 70.8546 124.129 70.8546C125.349 70.8546 126.101 69.6299 126.101 68.4993V68.3109Z" fill="#929292"/>
<path d="M133.52 71.5141V67.0861C133.52 66.0497 133.238 65.3902 132.205 65.3902C130.984 65.3902 130.139 66.615 130.139 68.2166V71.5141H129.106V64.6365H130.139C130.139 65.1076 130.139 65.7671 130.045 66.1439C130.421 65.1076 131.266 64.4481 132.487 64.4481C134.083 64.4481 134.553 65.4844 134.553 66.615V71.4199H133.52V71.5141Z" fill="#929292"/>
<path d="M139.06 71.6083C137.558 71.6083 136.149 70.9488 136.149 68.3109C136.149 66.0498 137.276 64.5424 139.53 64.5424C140.093 64.5424 140.657 64.6366 141.126 64.7308L141.032 65.6729C140.563 65.4845 139.999 65.3903 139.436 65.3903C137.933 65.3903 137.276 66.5208 137.276 68.1225C137.276 69.5356 137.746 70.6662 139.342 70.6662C139.905 70.6662 140.563 70.4778 141.032 70.2893L141.126 71.1372C140.657 71.4199 139.905 71.6083 139.06 71.6083Z" fill="#929292"/>
<path d="M146.855 71.5141V67.0861C146.855 66.0498 146.573 65.3903 145.54 65.3903C144.319 65.3903 143.474 66.6151 143.474 68.2167V71.5141H142.441V61.4333H143.474V64.7308C143.474 65.2019 143.474 65.7671 143.38 66.0498C143.756 65.0134 144.601 64.3539 145.822 64.3539C147.418 64.3539 147.888 65.3903 147.888 66.5208V71.3257H146.855V71.5141Z" fill="#929292"/>
<path d="M155.119 67.8398H150.611C150.517 69.9124 151.363 70.7604 152.865 70.7604C153.616 70.7604 154.368 70.5719 154.837 70.2893L154.931 71.1372C154.274 71.4198 153.523 71.5141 152.677 71.5141C150.611 71.5141 149.484 70.3835 149.484 68.0282C149.484 65.9555 150.611 64.4481 152.49 64.4481C154.368 64.4481 155.119 65.7671 155.119 67.2745C155.119 67.4629 155.119 67.6513 155.119 67.8398ZM152.396 65.296C151.456 65.296 150.705 65.9555 150.611 67.0861H154.086C154.086 66.0497 153.429 65.296 152.396 65.296Z" fill="#929292"/>
<path d="M157.842 71.6085C157.373 71.6085 156.809 71.5143 156.434 71.5143V70.5721C156.903 70.6663 157.467 70.7605 157.936 70.7605C158.969 70.7605 159.627 70.2895 159.627 69.63C159.627 67.9342 156.34 68.9705 156.34 66.6152C156.34 65.4846 157.279 64.6367 158.969 64.6367C159.439 64.6367 159.908 64.7309 160.284 64.8252V65.6731C159.814 65.4846 159.345 65.4846 158.875 65.4846C157.842 65.4846 157.373 65.8615 157.373 66.6152C157.373 68.2168 160.66 67.2747 160.66 69.63C160.66 70.6663 159.627 71.6085 157.842 71.6085Z" fill="#929292"/>
<path d="M164.416 71.6084C163.007 71.6084 162.632 71.0431 162.632 69.6299V65.4845H161.129V64.6366H162.632V62.3755L163.665 62.0929V64.6366H165.637V65.4845H163.665V69.1588C163.665 70.3836 163.853 70.6662 164.698 70.6662C165.073 70.6662 165.355 70.6662 165.637 70.572V71.4199C165.355 71.5142 164.792 71.6084 164.416 71.6084Z" fill="#929292"/>
<path d="M172.117 67.8398H167.609C167.515 69.9124 168.36 70.7604 169.863 70.7604C170.614 70.7604 171.365 70.5719 171.835 70.2893L171.929 71.1372C171.271 71.4198 170.52 71.5141 169.675 71.5141C167.609 71.5141 166.482 70.3835 166.482 68.0282C166.482 65.9555 167.609 64.4481 169.487 64.4481C171.365 64.4481 172.117 65.7671 172.117 67.2745C172.211 67.4629 172.211 67.6513 172.117 67.8398ZM169.487 65.296C168.548 65.296 167.797 65.9555 167.703 67.0861H171.178C171.178 66.0497 170.52 65.296 169.487 65.296Z" fill="#929292"/>
<path d="M177 65.5787C175.497 65.2961 174.746 66.5208 174.746 68.7819V71.5141H173.713V64.6366H174.746C174.746 65.1076 174.652 65.7671 174.558 66.3324C174.84 65.2961 175.591 64.354 177 64.4482V65.5787Z" fill="#929292"/>
</svg>
