<svg width="55" height="73" viewBox="0 0 55 73" fill="none" xmlns="http://www.w3.org/2000/svg">
<path d="M27.3065 72.5C22.0584 72.5 17.3843 71.6217 13.2843 69.865C9.20761 68.0856 5.98612 65.6445 3.61979 62.5418C1.27688 59.4164 0.070287 55.8118 0 51.7281H15.3226C15.4163 53.4392 15.9903 54.9449 17.0446 56.2453C18.1224 57.5228 19.5515 58.5152 21.3321 59.2224C23.1127 59.9297 25.1159 60.2833 27.3417 60.2833C29.6612 60.2833 31.7112 59.884 33.4918 59.0856C35.2724 58.2871 36.6664 57.1806 37.6739 55.7662C38.6813 54.3517 39.1851 52.7205 39.1851 50.8726C39.1851 49.0019 38.6462 47.3479 37.5685 45.9106C36.5142 44.4506 34.9913 43.3099 32.9998 42.4886C31.0318 41.6673 28.6889 41.2567 25.9711 41.2567H19.2587V30.3745H25.9711C28.2671 30.3745 30.2937 29.9867 32.0509 29.211C33.8315 28.4354 35.2138 27.3631 36.1979 25.9943C37.1819 24.6027 37.6739 22.9829 37.6739 21.135C37.6739 19.3783 37.2405 17.8384 36.3736 16.5152C35.5301 15.1692 34.3353 14.1198 32.7889 13.3669C31.266 12.6141 29.4854 12.2376 27.4471 12.2376C25.3854 12.2376 23.4993 12.6027 21.789 13.3327C20.0787 14.0399 18.7081 15.0551 17.6772 16.3783C16.6463 17.7015 16.0957 19.2528 16.0255 21.0323H1.44089C1.51117 16.9943 2.69434 13.4354 4.99038 10.3555C7.28643 7.27566 10.3791 4.86882 14.2683 3.13498C18.1809 1.37833 22.5973 0.5 27.5174 0.5C32.4844 0.5 36.8304 1.37833 40.5557 3.13498C44.2809 4.89163 47.1744 7.26426 49.2361 10.2528C51.3213 13.2186 52.3522 16.5494 52.3288 20.2452C52.3522 24.1692 51.0987 27.443 48.5684 30.0665C46.0615 32.6901 42.7931 34.3555 38.7633 35.0627V35.6103C44.0583 36.2719 48.0881 38.0627 50.8527 40.9829C53.6408 43.8802 55.0231 47.5076 54.9997 51.865C55.0231 55.8574 53.8399 59.4049 51.4502 62.5076C49.0838 65.6103 45.8155 68.0513 41.6451 69.8308C37.4747 71.6103 32.6952 72.5 27.3065 72.5Z" fill="#001F7E"/>
</svg>
