<svg width="48" height="48" viewBox="0 0 48 48" fill="none" xmlns="http://www.w3.org/2000/svg">
<circle cx="24" cy="24" r="18" fill="white"/>
<path d="M30.3713 21.6638C30.3713 21.525 30.3696 21.3827 30.3626 21.2404C31.0053 20.7762 31.5598 20.2009 31.9999 19.5418C31.4007 19.8074 30.7652 19.9822 30.1143 20.0606C30.7996 19.6497 31.3123 19.0042 31.5572 18.244C30.913 18.6258 30.2084 18.8951 29.4736 19.0404C28.9794 18.5121 28.3244 18.1618 27.6104 18.0439C26.8964 17.926 26.1634 18.0471 25.5254 18.3885C24.8874 18.7298 24.3801 19.2722 24.0824 19.9313C23.7848 20.5905 23.7133 21.3294 23.8793 22.0333C22.574 21.9668 21.2972 21.6271 20.1316 21.0362C18.966 20.4453 17.9376 19.6164 17.1129 18.6031C16.6911 19.3254 16.5613 20.1813 16.7501 20.996C16.9389 21.8107 17.4321 22.5225 18.1287 22.9859C17.5904 22.9685 17.0834 22.8193 16.6407 22.5746V22.6146C16.6408 23.3721 16.9032 24.1063 17.3833 24.6925C17.8634 25.2788 18.5316 25.6812 19.2746 25.8313C18.7917 25.9624 18.2852 25.982 17.7936 25.8886C18.0041 26.5397 18.4126 27.1089 18.9623 27.5169C19.5119 27.925 20.1753 28.1515 20.8599 28.1649C19.7365 29.0463 18.3214 29.5686 16.783 29.5686C16.5174 29.5686 16.2552 29.5564 16 29.5252C17.5001 30.4908 19.2474 31.003 21.0318 31C27.0706 31 30.3713 26.0013 30.3713 21.6638Z" fill="#F53838"/>
</svg>
