<svg width="38" height="38" viewBox="0 0 38 38" fill="none" xmlns="http://www.w3.org/2000/svg">
<rect width="38" height="38" rx="19" fill="white"/>
<path d="M25.3713 16.6638C25.3713 16.525 25.3696 16.3827 25.3626 16.2404C26.0053 15.7762 26.5598 15.2009 27 14.5418C26.4007 14.8074 25.7652 14.9822 25.1144 15.0606C25.7996 14.6497 26.3123 14.0042 26.5572 13.244C25.913 13.6258 25.2084 13.8951 24.4737 14.0404C23.9795 13.5121 23.3244 13.1618 22.6104 13.0439C21.8964 12.926 21.1634 13.0471 20.5254 13.3885C19.8874 13.7298 19.3802 14.2722 19.0825 14.9313C18.7848 15.5905 18.7134 16.3294 18.8793 17.0333C17.574 16.9668 16.2972 16.6271 15.1316 16.0362C13.966 15.4453 12.9376 14.6164 12.113 13.6031C11.6911 14.3254 11.5614 15.1813 11.7502 15.996C11.939 16.8107 12.4321 17.5225 13.1287 17.9859C12.5904 17.9685 12.0834 17.8193 11.6407 17.5746V17.6146C11.6409 18.3721 11.9033 19.1063 12.3833 19.6925C12.8634 20.2788 13.5316 20.6812 14.2747 20.8313C13.7917 20.9624 13.2852 20.982 12.7936 20.8886C13.0041 21.5397 13.4127 22.1089 13.9623 22.5169C14.512 22.925 15.1753 23.1515 15.8599 23.1649C14.7365 24.0463 13.3214 24.5686 11.7831 24.5686C11.5174 24.5686 11.2552 24.5564 11 24.5252C12.5001 25.4908 14.2474 26.003 16.0318 26C22.0706 26 25.3713 21.0013 25.3713 16.6638Z" fill="#F53838"/>
</svg>
