<svg width="54" height="73" viewBox="0 0 54 73" fill="none" xmlns="http://www.w3.org/2000/svg">
<path d="M2.7027 72.5V61.6792L28.3162 38.2688C30.4946 36.1879 32.3216 34.315 33.7973 32.6503C35.2964 30.9856 36.4324 29.3555 37.2054 27.7601C37.9784 26.1416 38.3649 24.396 38.3649 22.5231C38.3649 20.4422 37.8847 18.6503 36.9243 17.1474C35.964 15.6214 34.6522 14.4538 32.9892 13.6445C31.3261 12.8121 29.4405 12.396 27.3324 12.396C25.1306 12.396 23.2099 12.8353 21.5703 13.7139C19.9306 14.5925 18.6658 15.8526 17.7757 17.4942C16.8856 19.1358 16.4405 21.0896 16.4405 23.3555H2C2 18.7081 3.06577 14.6734 5.1973 11.2514C7.32883 7.82948 10.3153 5.18208 14.1568 3.30925C17.9982 1.43642 22.4252 0.5 27.4378 0.5C32.591 0.5 37.0766 1.40173 40.8946 3.2052C44.736 4.98555 47.7225 7.45954 49.854 10.6272C51.9856 13.7948 53.0514 17.4249 53.0514 21.5173C53.0514 24.1994 52.5126 26.8468 51.4351 29.4595C50.3811 32.0723 48.4955 34.974 45.7784 38.1647C43.0613 41.3324 39.2315 45.1358 34.2892 49.5751L23.7838 59.737V60.2225H54V72.5H2.7027Z" fill="#001F7E"/>
</svg>
